<?xml version="1.0" standalone="no"?>
<!DOCTYPE svg PUBLIC "-//W3C//DTD SVG 20010904//EN"
 "http://www.w3.org/TR/2001/REC-SVG-20010904/DTD/svg10.dtd">
<svg version="1.0" xmlns="http://www.w3.org/2000/svg"
 width="680.000000pt" height="1417.000000pt" viewBox="0 0 680.000000 1417.000000"
 preserveAspectRatio="xMidYMid meet">

<g transform="translate(0.000000,1417.000000) scale(0.100000,-0.100000)"
fill="#ffffff" stroke="none">
<path d="M1215 13504 c-39 -31 -109 -55 -205 -69 -54 -8 -104 -17 -111 -20
-21 -7 -236 -34 -404 -51 -82 -8 -158 -17 -167 -20 -38 -11 -18 -40 53 -78
l71 -38 76 15 c43 9 121 23 175 32 54 9 104 18 112 21 17 7 23 -52 17 -179 -5
-113 -3 -111 -114 -122 -34 -3 -106 -12 -158 -20 -52 -8 -140 -17 -195 -20
-122 -8 -135 -11 -135 -35 0 -20 83 -72 131 -84 15 -3 89 6 165 20 122 22 274
44 274 38 0 -9 -56 -147 -77 -187 -89 -177 -327 -387 -438 -387 -46 0 -65 -14
-65 -46 0 -32 27 -34 121 -9 156 41 272 117 372 243 56 70 119 173 132 212 4
13 15 36 25 52 l17 28 55 -83 c123 -182 268 -406 274 -422 4 -9 16 -20 28 -25
22 -8 221 19 244 33 15 10 16 53 1 63 -7 4 -26 8 -43 9 -75 4 -157 68 -293
231 -37 45 -87 104 -111 133 -49 58 -108 170 -95 181 12 10 226 30 386 35 142
4 157 7 157 29 0 24 -81 126 -105 132 -13 3 -42 -2 -67 -14 -87 -38 -378 -88
-378 -64 1 47 24 150 39 178 20 36 20 38 1 73 l-18 37 181 22 c100 12 192 22
203 22 12 0 27 7 34 15 11 14 4 25 -51 75 -68 63 -82 69 -114 44z"/>
<path d="M3185 13111 c-28 -26 -97 -50 -265 -91 -63 -16 -185 -32 -210 -29
-19 3 -33 19 -56 62 -37 70 -45 79 -63 67 -12 -7 -12 -20 -3 -79 17 -98 15
-136 -8 -181 -28 -54 -25 -86 11 -131 33 -42 49 -48 69 -25 10 13 17 12 49 -4
31 -17 47 -19 104 -12 66 8 67 8 67 -15 0 -15 -6 -23 -17 -23 -10 0 -46 -9
-80 -20 l-63 -19 -26 24 c-29 27 -59 33 -66 13 -3 -7 1 -41 8 -74 22 -108 35
-271 23 -301 -8 -23 -5 -37 24 -92 18 -36 43 -71 54 -76 17 -9 -5 -13 -105
-23 -69 -7 -128 -9 -131 -6 -3 3 -8 175 -9 383 -3 335 -2 379 12 390 21 18 20
51 -4 81 -11 14 -20 30 -20 37 0 19 -30 43 -53 43 -15 0 -26 -10 -34 -28 -9
-18 -32 -37 -70 -56 -32 -16 -66 -38 -75 -50 l-18 -21 0 24 c0 15 -17 41 -45
69 -41 41 -47 44 -61 30 -13 -13 -13 -20 1 -59 38 -109 62 -518 35 -595 -9
-25 -8 -40 4 -69 9 -21 16 -39 16 -41 0 -2 -17 -12 -37 -23 -50 -26 -84 -58
-77 -74 3 -8 27 -24 54 -36 51 -23 68 -21 110 14 8 7 48 31 89 54 l73 41 -6
-37 c-4 -21 -9 -51 -12 -68 -6 -40 35 -154 62 -172 19 -12 24 -12 38 2 9 9 16
28 16 43 0 15 5 34 10 42 8 12 14 10 38 -13 34 -32 54 -33 158 -7 44 11 100
23 127 26 l47 7 0 -78 c0 -68 -2 -77 -20 -82 -33 -9 -25 -55 19 -110 37 -47
38 -50 18 -59 -28 -12 -46 -45 -29 -51 15 -6 16 -86 1 -150 -12 -50 -69 -229
-87 -273 -6 -14 -18 -51 -28 -83 -9 -32 -24 -62 -33 -66 -9 -4 -56 -14 -106
-21 -49 -7 -96 -17 -102 -23 -20 -15 1 -41 59 -77 43 -27 58 -31 90 -26 21 4
47 11 56 16 22 12 79 30 122 40 19 5 62 16 95 25 94 26 288 75 296 75 4 0 19
-36 34 -80 31 -92 51 -111 83 -77 25 27 62 88 62 102 0 30 -116 179 -242 309
-41 42 -50 47 -64 36 -21 -18 -12 -46 41 -126 55 -81 56 -94 11 -94 -18 0 -52
-7 -75 -15 -23 -8 -79 -21 -124 -29 -45 -9 -92 -18 -104 -22 l-23 -6 19 53
c46 129 142 337 170 367 17 19 31 41 31 50 -1 10 -23 41 -50 71 -54 59 -57 66
-36 78 12 6 15 43 18 178 l3 170 75 7 c41 3 134 9 205 13 72 3 138 8 148 11
54 17 -25 134 -91 134 -18 0 -45 -6 -60 -13 -27 -14 -189 -46 -247 -50 -29 -2
-30 0 -33 41 -2 29 1 42 10 43 7 0 45 4 83 9 39 6 103 14 143 19 94 11 107 23
66 61 -18 15 -39 32 -48 37 -14 8 -15 16 -7 54 5 24 12 75 16 112 6 59 10 70
30 79 33 15 39 36 19 67 -48 76 -97 100 -134 66 -15 -14 -143 -55 -170 -55 -5
0 -10 13 -10 30 0 23 5 31 23 34 12 3 65 12 117 21 52 9 105 19 118 21 26 5
29 30 7 54 -15 16 -10 23 50 82 36 35 65 71 65 80 0 16 -47 91 -80 126 -28 29
-49 28 -85 -7z m5 -160 c0 -10 -3 -33 -6 -50 -6 -26 -10 -30 -30 -25 -15 4
-29 0 -39 -10 -9 -9 -25 -16 -34 -16 -10 0 -34 -6 -52 -14 -19 -7 -40 -11 -46
-9 -16 6 -17 49 -2 59 6 3 8 16 5 28 -5 21 -1 23 87 38 50 8 98 16 105 16 6 1
12 -6 12 -17z m-318 -76 c1 -19 2 -43 2 -52 1 -14 -17 -21 -84 -35 -47 -9 -88
-17 -91 -18 -9 0 -18 65 -12 89 3 12 10 17 19 14 8 -3 34 2 57 10 23 9 53 18
67 20 14 2 28 5 33 6 4 0 8 -15 9 -34z m-488 -61 c3 -9 6 -53 6 -100 0 -81 -1
-84 -22 -83 -13 1 -37 -5 -55 -12 -18 -7 -35 -10 -38 -7 -3 3 -8 43 -12 89
l-5 84 53 22 c67 26 66 26 73 7z m746 -281 l0 -58 -24 29 c-23 29 -24 30 -66
17 -23 -7 -48 -15 -56 -18 -10 -4 -14 4 -14 30 0 34 2 36 43 45 23 6 59 10 80
11 l37 1 0 -57z m-254 -5 c-3 -13 -6 -28 -6 -35 0 -8 -109 -36 -117 -29 -1 0
-4 13 -8 27 -6 24 -3 27 47 41 79 23 92 22 84 -4z m-489 -130 l-2 -131 -43
-15 c-24 -8 -46 -11 -49 -8 -3 3 -8 61 -11 130 l-5 124 34 10 c19 6 43 13 54
15 11 3 21 5 22 6 1 0 1 -58 0 -131z m733 8 c0 -52 -16 -73 -62 -79 -24 -4
-53 -10 -65 -13 -22 -6 -23 -3 -23 40 0 52 2 54 83 66 28 4 55 8 60 9 4 0 7
-10 7 -23z m-293 -26 c16 0 34 5 41 12 9 9 12 0 12 -40 0 -49 -1 -52 -26 -52
-14 0 -33 -4 -43 -10 -21 -11 -35 12 -47 75 -6 35 -6 37 14 26 11 -6 34 -11
49 -11z m43 -225 c0 -32 -4 -45 -14 -45 -7 0 -26 -3 -42 -6 -29 -6 -29 -5 -26
40 4 47 4 47 70 55 8 1 12 -14 12 -44z"/>
<path d="M870 12183 c0 -27 -11 -77 -26 -115 -21 -55 -30 -68 -52 -72 -35 -8
-485 -46 -539 -46 -38 0 -43 -3 -49 -26 -5 -21 -2 -31 17 -45 35 -26 101 -42
151 -36 116 13 313 43 350 53 11 4 -3 -23 -39 -75 l-57 -80 -40 30 c-44 32
-58 35 -74 16 -8 -9 -3 -25 19 -59 l31 -47 -44 -52 c-40 -48 -124 -123 -254
-228 -41 -34 -54 -51 -54 -72 0 -36 25 -44 52 -15 13 12 41 33 63 46 51 30
190 134 232 173 l32 30 7 -28 c4 -15 4 -108 2 -207 -4 -142 -9 -182 -21 -196
-36 -40 -37 -65 -3 -128 30 -55 35 -59 70 -62 21 -2 43 1 49 7 6 6 11 70 11
158 l1 147 190 24 c105 13 197 27 205 31 28 15 22 43 -16 82 -43 44 -60 48
-96 19 -33 -25 -93 -45 -197 -64 -46 -9 -85 -16 -87 -16 -2 0 -4 24 -4 53 l0
54 53 11 c78 17 236 43 284 47 93 8 109 46 39 95 -25 16 -47 30 -51 30 -3 0
-35 -14 -71 -30 -55 -26 -192 -59 -245 -60 -13 0 -18 11 -21 45 -3 45 -2 46
32 55 20 5 87 19 150 30 145 26 240 45 261 54 22 10 29 -82 29 -381 0 -180 -3
-233 -12 -233 -25 0 -114 28 -171 54 -57 26 -88 32 -100 20 -14 -14 9 -36 72
-71 77 -42 198 -130 205 -150 3 -8 21 -13 45 -13 35 0 43 4 58 33 20 35 21 98
14 506 l-4 215 27 26 c14 15 26 36 26 47 0 22 -105 113 -131 113 -8 0 -28 -13
-44 -30 -16 -16 -35 -30 -42 -30 -7 0 -32 -9 -55 -19 -59 -26 -294 -77 -306
-66 -2 2 114 153 134 174 7 8 593 53 604 46 14 -8 33 15 33 40 0 31 -77 115
-105 115 -10 0 -36 -11 -57 -24 -21 -13 -60 -27 -87 -31 -27 -4 -65 -11 -84
-17 -19 -6 -48 -12 -65 -13 -16 -1 -63 -5 -104 -10 l-73 -7 18 32 c11 17 36
45 57 62 20 16 37 34 37 38 0 12 -38 48 -75 71 -16 10 -47 19 -67 19 l-38 0 0
-47z"/>
<path d="M2233 11463 c-26 -9 -11 -38 53 -98 59 -56 65 -64 58 -91 -3 -16 -17
-42 -29 -59 -51 -69 -67 -125 -35 -125 6 0 40 29 76 64 36 35 85 79 109 98 54
40 64 64 38 89 -50 51 -235 134 -270 122z"/>
<path d="M2442 11168 c-5 -7 -62 -116 -126 -242 -64 -126 -121 -235 -128 -243
-9 -11 -15 -10 -34 8 -29 27 -58 22 -62 -11 -1 -14 17 -63 40 -110 39 -77 46
-85 74 -88 27 -3 35 2 55 35 13 21 47 106 75 188 29 83 73 206 98 275 51 140
60 192 35 198 -9 1 -21 -3 -27 -10z"/>
<path d="M423 10925 c-3 -9 5 -48 18 -88 23 -68 24 -84 22 -282 -3 -231 -27
-437 -64 -547 -25 -76 -71 -155 -138 -241 -56 -70 -66 -111 -29 -105 41 6 208
224 254 331 11 27 25 49 30 50 5 1 30 -29 57 -68 58 -85 86 -93 102 -30 7 27
15 39 25 38 8 -2 50 3 93 10 42 7 77 10 77 6 0 -14 -116 -167 -187 -245 -75
-84 -83 -98 -59 -107 28 -11 97 37 207 144 63 61 124 114 137 119 30 13 28 47
-4 81 l-26 28 33 5 c96 16 178 26 309 37 210 16 224 19 228 49 3 33 -81 105
-107 91 -9 -5 -41 -14 -71 -20 -30 -6 -67 -14 -82 -17 l-28 -6 0 139 0 140
108 13 c148 17 167 38 87 98 l-44 34 -59 -21 c-32 -12 -64 -21 -70 -21 -28 0
-2 197 28 219 40 27 15 76 -67 130 -78 52 -113 38 -77 -31 13 -25 15 -58 12
-180 -2 -106 -7 -151 -16 -157 -19 -11 -140 -34 -154 -28 -10 3 -12 39 -8 153
3 82 4 154 3 159 -2 6 -25 25 -51 42 -26 18 -56 39 -67 47 -13 10 -25 12 -35
6 -13 -8 -12 -18 8 -77 20 -60 42 -229 42 -319 0 -30 -2 -32 -67 -48 -38 -9
-77 -16 -88 -16 -26 0 -45 -18 -38 -37 8 -20 77 -53 113 -53 17 0 41 5 52 11
11 6 24 7 28 2 5 -4 10 -63 12 -131 l3 -122 -35 -10 c-19 -6 -62 -10 -95 -10
-33 0 -66 -4 -74 -9 -10 -7 -33 3 -75 31 -34 23 -62 42 -63 42 -1 1 4 46 11
100 9 73 16 100 29 107 9 6 28 26 42 46 13 20 52 65 85 99 69 71 69 72 1 138
-23 22 -46 36 -54 33 -8 -3 -19 -32 -26 -68 -7 -35 -24 -84 -37 -109 l-25 -45
5 65 c3 36 8 109 12 163 3 53 10 100 15 103 26 16 4 46 -72 98 -44 31 -83 56
-85 56 -3 0 -7 -7 -11 -15z m703 -644 l-9 -139 -64 -12 c-37 -7 -68 -9 -73 -4
-4 5 -10 66 -12 136 l-5 126 55 7 c30 4 65 11 76 15 41 17 41 15 32 -129z"/>
<path d="M3112 10887 c-6 -7 -15 -24 -21 -38 -8 -23 -17 -27 -66 -32 -31 -3
-62 -10 -68 -15 -7 -5 -39 -14 -72 -22 -33 -7 -80 -19 -104 -28 -48 -17 -44
-20 -83 45 -48 78 -54 84 -75 76 -17 -7 -17 -40 0 -50 17 -11 48 -167 56 -289
5 -88 4 -102 -13 -126 l-19 -27 38 -73 c46 -89 57 -102 83 -94 16 5 23 20 29
59 l8 51 180 28 c99 15 196 27 216 28 53 0 66 21 40 64 -12 18 -27 39 -35 45
-14 12 -14 18 11 153 13 72 20 90 40 103 34 23 26 43 -40 103 -58 52 -86 63
-105 39z m-3 -209 c0 -24 -6 -77 -12 -118 l-12 -75 -50 -13 c-59 -14 -236 -44
-240 -40 -4 4 -35 221 -32 223 3 2 119 23 227 40 52 9 96 18 99 21 13 13 21
-1 20 -38z"/>
<path d="M313 10659 c-7 -7 -9 -46 -6 -109 7 -124 -1 -167 -33 -182 -14 -7
-24 -20 -24 -32 0 -21 83 -136 99 -136 16 0 30 27 29 56 0 16 5 65 12 109 14
95 8 210 -14 254 -19 37 -48 55 -63 40z"/>
<path d="M2745 10186 c-15 -11 -16 -18 -7 -47 6 -19 12 -62 14 -96 l4 -62 -50
-5 c-28 -3 -106 -8 -173 -10 -112 -5 -123 -4 -123 12 -1 33 -54 117 -77 120
-21 3 -22 1 -20 -101 2 -99 1 -105 -27 -145 -25 -37 -27 -46 -21 -92 8 -57 27
-83 59 -78 17 2 27 21 51 91 l30 89 50 3 c28 1 66 6 86 10 l36 7 12 -48 c8
-32 9 -50 2 -57 -6 -6 -52 -13 -104 -17 -51 -3 -98 -9 -105 -14 -23 -14 -12
-34 31 -59 42 -25 47 -25 110 -14 36 6 69 8 72 5 3 -3 8 -21 12 -40 l5 -35
-113 -12 c-63 -6 -143 -12 -179 -14 -56 -2 -65 -4 -65 -21 0 -14 19 -29 66
-52 55 -28 71 -32 100 -24 83 21 131 30 155 30 24 0 25 -3 22 -47 l-3 -48
-105 -12 c-58 -7 -158 -15 -223 -19 -121 -6 -153 -18 -140 -50 3 -8 27 -26 52
-39 44 -22 53 -23 117 -14 113 16 228 28 231 25 2 -2 -11 -15 -29 -28 -18 -14
-45 -36 -59 -50 -71 -67 -240 -188 -316 -227 -45 -22 -60 -48 -41 -67 10 -10
25 -6 69 15 31 16 81 38 110 50 51 22 146 86 313 213 61 47 94 81 111 115 1 2
33 5 71 8 l70 6 55 -58 c57 -59 145 -161 258 -298 57 -69 66 -76 90 -70 14 4
56 10 94 14 75 8 98 22 81 49 -12 19 -40 34 -98 52 -60 19 -97 49 -237 192
l-131 133 64 7 c35 3 133 9 218 12 85 4 158 10 163 15 13 13 1 41 -36 84 l-32
39 -65 -21 c-72 -22 -248 -47 -258 -36 -10 9 -9 92 1 101 4 5 56 11 115 14
146 8 154 14 100 81 -32 40 -54 47 -90 28 -11 -6 -45 -14 -74 -18 l-54 -8 0
37 c0 35 2 38 38 44 20 3 60 6 87 6 63 0 80 10 72 42 -5 20 -2 27 19 36 34 16
144 123 144 140 0 24 -94 142 -113 142 -10 0 -22 -11 -27 -24 -16 -43 -54 -59
-158 -67 -53 -5 -118 -11 -144 -13 l-48 -6 0 43 c0 24 5 48 11 54 17 17 3 46
-33 68 -76 46 -74 45 -93 31z m445 -263 c0 -4 -7 -27 -16 -50 -16 -42 -18 -43
-36 -27 -17 16 -21 16 -62 -4 -53 -27 -66 -27 -66 -3 0 10 -9 30 -20 44 -11
14 -20 28 -20 31 0 3 33 7 73 9 39 1 89 4 110 5 20 1 37 -1 37 -5z m-289 -67
l4 -43 -75 -12 c-41 -6 -84 -14 -96 -17 -17 -5 -22 0 -27 25 -4 17 -16 40 -27
51 -11 11 -17 21 -12 21 4 1 54 5 112 9 58 3 108 7 111 8 4 1 9 -18 10 -42z
m5 -168 c-3 -13 -6 -28 -6 -34 0 -7 -25 -15 -57 -18 -32 -4 -77 -9 -101 -13
l-43 -5 3 38 c3 38 4 39 47 41 24 1 46 4 49 7 3 3 30 6 60 6 51 0 54 -1 48
-22z m-16 -192 l0 -53 -81 -8 c-45 -3 -87 -9 -94 -11 -9 -4 -14 7 -16 33 -8
75 -18 70 179 92 8 1 12 -16 12 -53z"/>
<path d="M1070 10001 c0 -12 27 -44 65 -78 37 -32 104 -104 151 -160 85 -102
108 -119 118 -85 10 35 16 147 9 158 -4 6 -62 42 -128 79 -66 38 -132 76 -147
87 -36 24 -68 24 -68 -1z"/>
<path d="M953 9618 c3 -13 12 -49 21 -81 9 -32 16 -77 16 -101 l0 -43 -47 -6
c-27 -4 -65 -9 -85 -13 -35 -6 -37 -5 -52 29 -8 20 -26 43 -41 53 -44 29 -49
11 -35 -118 9 -86 9 -137 1 -209 -15 -127 -40 -285 -53 -334 l-11 -40 -13 32
c-10 24 -29 41 -73 63 -33 16 -62 34 -65 38 -3 5 1 35 9 66 8 31 15 66 15 77
0 11 8 23 18 26 9 4 37 24 62 46 25 21 57 45 73 53 15 8 27 21 27 30 0 24 -29
73 -50 84 -17 9 -25 3 -61 -47 -61 -85 -62 -85 -55 -23 3 30 11 100 16 154 6
63 15 105 25 116 21 23 12 41 -43 87 -68 58 -91 68 -108 51 -12 -12 -12 -20 2
-59 28 -71 25 -375 -5 -544 -20 -119 -31 -165 -51 -220 -4 -11 -16 -47 -26
-80 -20 -64 -91 -177 -132 -211 -34 -28 -24 -54 19 -54 25 0 42 10 73 43 42
44 104 140 123 192 7 17 20 54 31 83 l19 54 58 -69 c32 -37 64 -69 71 -71 10
-3 11 -9 1 -30 -25 -59 -110 -182 -152 -221 -56 -52 -60 -76 -10 -68 77 13
200 153 261 300 26 60 73 259 75 315 1 25 2 24 10 -8 5 -19 8 -74 7 -122 -2
-80 0 -89 26 -127 33 -47 50 -51 82 -16 15 17 34 25 55 25 17 0 74 7 126 16
79 14 97 14 104 3 6 -10 -5 -18 -39 -31 -26 -10 -51 -16 -57 -14 -9 3 -88 -9
-257 -40 -31 -5 -38 -4 -38 9 0 9 -11 24 -26 33 -44 29 -50 7 -25 -95 11 -49
21 -103 21 -119 0 -34 -6 -36 -112 -47 -95 -10 -109 -34 -41 -69 36 -18 108
-21 197 -6 85 14 527 60 606 63 78 3 87 17 40 71 -34 38 -56 43 -108 25 -17
-6 -36 -9 -41 -7 -14 5 18 112 39 130 11 9 20 23 20 31 0 15 -57 71 -79 78
-15 5 17 219 36 237 18 18 16 35 -6 76 l-20 35 27 3 c37 4 38 28 5 77 -27 40
-29 41 -73 35 -25 -3 -52 -10 -60 -14 -26 -14 -144 -25 -137 -13 4 6 33 14 64
18 32 3 76 11 98 17 22 6 46 11 53 12 32 5 31 23 -2 55 l-34 33 -49 -16 c-26
-8 -67 -18 -90 -22 -35 -5 -43 -4 -43 9 0 9 8 18 18 21 34 10 242 29 248 23 4
-3 2 -19 -3 -34 -11 -30 -7 -53 8 -53 12 0 132 89 141 104 7 13 -52 105 -77
119 -9 5 -25 0 -42 -12 -19 -14 -68 -27 -148 -41 -146 -24 -135 -24 -135 0 0
12 8 21 23 24 94 20 129 26 181 31 93 11 103 20 70 71 -28 42 -49 47 -94 24
-22 -11 -61 -22 -87 -24 -27 -2 -58 -7 -70 -9 -20 -5 -23 -2 -23 27 0 34 -21
63 -39 52 -5 -3 -22 1 -37 9 -44 23 -67 20 -61 -7z m35 -335 c-2 -11 -25 -22
-68 -35 -84 -23 -90 -23 -90 6 0 22 6 26 48 31 26 4 52 8 57 10 29 10 56 4 53
-12z m3 -140 c12 -33 46 -46 103 -40 28 3 74 2 101 -1 48 -7 46 -8 -90 -34
-215 -42 -242 -44 -249 -20 -4 11 -13 23 -21 26 -15 5 -19 35 -9 71 4 18 13
20 81 20 68 -1 77 -3 84 -22z m239 -185 c0 -40 0 -41 -20 -23 -15 14 -31 17
-70 13 -42 -4 -50 -2 -48 10 3 15 69 38 116 41 19 1 22 -4 22 -41z m-241 -29
c-8 -5 -26 -9 -41 -9 -15 0 -32 -8 -38 -17 -9 -16 -10 -15 -8 7 2 20 11 26 48
35 45 11 67 2 39 -16z m-16 -93 c27 -1 37 -5 37 -17 0 -12 -13 -18 -47 -23
-25 -3 -47 -5 -48 -4 -1 2 -5 22 -8 45 -5 42 -5 42 12 21 12 -14 30 -22 54
-22z m245 27 c-2 -12 -16 -20 -43 -24 -22 -3 -50 -9 -62 -13 -19 -6 -23 -4
-23 13 0 16 10 21 53 29 76 14 79 14 75 -5z m22 -264 c0 -79 -9 -97 -52 -104
-22 -4 -42 -5 -44 -2 -3 3 4 36 16 73 19 65 22 69 50 69 28 0 30 -3 30 -36z
m-164 -26 c-16 -93 -16 -93 -45 -93 -25 0 -28 4 -37 60 l-10 59 36 4 c19 2 41
4 49 5 10 2 12 -7 7 -35z m-156 -17 c0 -7 3 -27 6 -43 4 -21 1 -35 -11 -46
-23 -24 -30 -21 -30 11 0 15 -4 42 -7 60 -7 29 -5 32 17 32 15 0 25 -6 25 -14z"/>
<path d="M327 9333 c-4 -3 -7 -44 -7 -91 0 -84 -29 -214 -50 -227 -20 -12 -9
-42 29 -79 22 -22 46 -36 54 -33 9 3 18 37 26 99 7 51 17 128 22 171 8 60 8
86 -2 109 -20 48 -52 71 -72 51z"/>
<path d="M2647 9263 c-17 -16 -3 -43 48 -93 54 -53 54 -54 36 -75 -21 -22 -51
-78 -51 -95 0 -23 38 -8 75 31 22 22 59 52 82 67 68 43 60 60 -56 120 -96 51
-121 59 -134 45z"/>
<path d="M2925 8999 c-49 -10 -106 -21 -125 -23 -19 -3 -57 -10 -85 -16 -209
-45 -309 -60 -352 -54 -70 10 -54 -34 33 -92 l55 -37 72 23 c40 12 90 28 112
35 22 7 78 24 125 38 300 91 305 93 308 111 4 20 -14 36 -38 35 -8 -1 -55 -10
-105 -20z"/>
<path d="M2810 8745 c-8 -10 -6 -23 10 -54 18 -37 45 -180 35 -189 -4 -4 -67
-12 -260 -33 -60 -6 -120 -16 -133 -20 -31 -12 -25 -37 13 -61 54 -32 70 -36
116 -27 24 4 56 8 71 9 24 0 26 -2 18 -27 -23 -79 -127 -236 -249 -376 l-43
-50 7 44 c4 24 18 80 32 123 27 82 24 107 -10 114 -20 4 -30 -18 -90 -198
-120 -359 -140 -411 -156 -404 -28 12 -53 9 -64 -7 -8 -12 0 -30 34 -80 90
-131 127 -142 144 -44 21 124 48 252 71 342 23 87 29 100 39 86 12 -15 15 -16
36 -1 34 22 205 189 233 227 l24 32 36 -68 37 -68 -28 -23 c-104 -87 -123
-105 -123 -118 0 -14 12 -18 39 -14 18 2 160 107 183 134 20 24 20 26 23 -85
l3 -76 -67 -12 c-36 -6 -84 -13 -106 -15 -120 -11 -263 -27 -282 -31 -37 -9
-26 -37 29 -79 l53 -39 85 18 c104 21 284 53 287 51 1 -1 3 -58 4 -126 1 -103
-2 -125 -15 -132 -23 -13 -20 -29 18 -99 38 -69 54 -82 91 -73 34 8 38 31 26
139 -6 50 -11 138 -11 197 l0 107 53 5 c147 15 288 26 324 26 58 0 73 21 48
67 -35 65 -101 96 -112 53 -4 -16 -9 -18 -19 -9 -9 7 -28 8 -66 0 -29 -5 -80
-13 -113 -16 -33 -4 -72 -9 -87 -11 -28 -6 -28 -6 -28 53 0 32 4 64 9 72 13
21 3 38 -36 62 l-35 22 46 46 46 46 61 -60 c33 -33 84 -88 112 -123 66 -81 86
-81 102 0 6 31 8 65 4 77 -5 11 -54 50 -111 87 -57 37 -106 70 -111 74 -8 7
34 66 75 107 l22 23 -22 45 c-12 25 -22 47 -22 49 0 2 12 4 28 3 107 -4 210 4
215 17 7 16 -88 136 -108 136 -8 0 -31 -7 -52 -16 -66 -29 -76 -32 -152 -41
l-74 -9 7 66 c7 75 2 83 -79 132 -56 34 -72 39 -85 23z m210 -334 c0 -6 -4
-13 -10 -16 -5 -3 -10 -16 -10 -28 -1 -12 -16 -47 -35 -77 -19 -30 -43 -71
-55 -90 -24 -42 -93 -122 -84 -98 6 18 -28 58 -76 89 l-25 17 22 38 c11 22 31
43 42 49 27 12 35 38 22 64 -17 31 -25 27 114 55 40 8 95 6 95 -3z"/>
<path d="M2131 8656 c-15 -17 17 -58 58 -76 34 -14 81 -76 81 -107 0 -11 -7
-26 -16 -34 -19 -16 -44 -63 -44 -84 0 -22 34 -18 56 6 10 12 52 46 92 76 55
41 72 60 70 75 -3 24 -120 100 -208 136 -65 26 -74 27 -89 8z"/>
<path d="M4489 8466 c-166 -44 -259 -227 -259 -506 0 -105 -1 -109 -22 -112
-20 -3 -23 -10 -26 -51 -4 -57 9 -77 49 -77 17 0 29 -5 29 -12 0 -28 64 -145
98 -181 33 -35 80 -67 97 -67 8 0 0 195 -10 233 -6 23 -4 27 12 27 15 0 22 11
31 48 6 26 14 55 17 65 6 15 1 17 -45 17 l-52 0 4 173 c4 139 9 184 26 238 70
216 212 126 240 -151 7 -68 9 -75 27 -70 11 3 53 5 93 5 l73 0 -7 45 c-28 202
-113 338 -235 374 -62 19 -78 19 -140 2z"/>
<path d="M5237 8459 c-22 -11 -75 -28 -120 -38 -58 -12 -84 -23 -94 -38 -13
-19 -12 -24 5 -41 11 -11 40 -22 66 -26 l46 -7 0 -230 0 -229 -51 0 c-45 0
-50 -2 -44 -17 3 -10 11 -39 17 -65 11 -46 13 -48 46 -48 l35 0 -5 -72 c-4
-55 -10 -75 -26 -87 -12 -10 -22 -34 -26 -61 l-6 -45 152 3 c84 1 161 2 171 2
15 0 18 7 15 42 -3 39 -6 43 -38 51 -49 12 -60 31 -60 104 l0 63 50 0 50 0 0
65 0 65 -50 0 -50 0 0 34 c0 21 -6 36 -15 40 -8 3 -15 15 -15 26 0 11 7 23 15
26 13 5 15 42 15 245 0 225 -1 239 -19 249 -24 12 -18 13 -64 -11z"/>
<path d="M2087 8293 c-18 -17 -1 -42 58 -91 46 -38 65 -60 65 -77 0 -13 -16
-69 -36 -125 -25 -74 -32 -106 -24 -114 18 -18 43 6 62 59 20 55 62 143 95
197 42 68 28 88 -90 128 -90 30 -118 35 -130 23z"/>
<path d="M4723 7960 c-29 -17 -33 -25 -33 -65 0 -37 -3 -45 -19 -45 -14 0 -21
-12 -30 -57 -14 -73 -15 -73 10 -73 19 0 21 -4 14 -37 -3 -21 -15 -58 -26 -82
-20 -46 -23 -70 -13 -119 l6 -31 37 18 c61 32 122 111 156 204 16 43 20 47 51
47 19 0 34 3 34 8 -1 16 -21 98 -29 117 -5 11 -14 34 -21 52 -26 68 -85 96
-137 63z"/>
<path d="M825 7841 c-64 -28 -80 -109 -31 -160 32 -33 27 -53 -20 -90 -20 -16
-25 -26 -20 -46 11 -42 50 -30 124 39 76 70 101 182 52 231 -28 27 -74 39
-105 26z"/>
<path d="M5583 7790 c0 -30 2 -43 4 -27 2 15 2 39 0 55 -2 15 -4 2 -4 -28z"/>
<path d="M3202 7246 c-28 -47 -55 -62 -137 -75 -38 -7 -115 -24 -170 -38 -55
-14 -114 -25 -132 -24 -40 2 -67 -23 -53 -49 5 -10 24 -27 42 -38 30 -19 37
-19 83 -7 28 7 51 11 53 10 7 -6 -55 -126 -96 -185 -50 -72 -140 -170 -157
-170 -7 0 -7 54 0 174 8 134 14 178 26 193 36 41 30 67 -32 138 -38 43 -64 45
-83 6 -18 -33 -65 -64 -144 -91 -56 -20 -71 -16 -72 15 0 23 -52 85 -70 85
-33 0 -35 -43 -6 -128 23 -69 26 -93 27 -237 1 -128 -2 -168 -15 -201 -15 -36
-15 -46 -3 -83 16 -45 16 -45 -52 -53 -29 -4 -64 -48 -56 -69 7 -18 67 -49 94
-49 11 0 48 16 83 37 127 73 163 93 171 93 5 0 5 -21 1 -46 -7 -51 11 -148 32
-165 38 -32 84 30 84 113 0 29 3 83 6 119 6 64 8 68 44 88 l37 20 12 -52 c23
-97 25 -172 7 -207 -21 -44 -20 -60 8 -124 l25 -55 -30 6 c-41 8 -38 -18 9
-81 49 -65 56 -78 88 -168 29 -83 55 -113 84 -98 23 13 36 74 22 103 -6 12
-13 37 -16 55 -7 40 -56 113 -91 136 l-27 18 21 14 c12 9 21 26 21 39 0 19 7
25 48 34 80 18 239 41 294 42 74 1 102 11 106 36 2 16 -9 29 -42 52 l-44 31
20 52 c11 29 24 63 29 76 5 12 25 32 44 43 45 27 45 51 -1 109 -56 70 -71 75
-110 33 -21 -23 -19 -15 14 53 22 43 56 129 77 191 30 89 42 113 58 115 11 2
26 12 33 23 12 18 8 28 -43 98 -66 89 -89 97 -121 43z m-12 -163 c-1 -43 -73
-277 -91 -297 -5 -6 -35 4 -73 23 -117 60 -136 27 -41 -73 36 -38 65 -73 65
-77 0 -11 -21 -16 -135 -34 l-99 -16 -28 33 -28 33 70 65 c43 41 87 95 116
145 26 44 58 90 71 102 19 18 21 26 13 47 -8 23 -7 26 13 27 12 0 38 6 57 13
39 15 90 20 90 9z m-660 -158 l0 -104 -34 20 -34 20 -38 -20 c-47 -26 -52 -20
-53 75 l-1 72 37 13 c21 7 45 12 54 11 8 -2 26 2 40 7 13 5 25 10 27 10 1 1 2
-46 2 -104z m-3 -237 l-5 -93 -71 -26 -71 -27 0 94 0 94 28 6 c75 17 102 25
107 34 13 22 16 6 12 -82z m608 -160 c-14 -86 -27 -127 -44 -132 -9 -2 -54 -9
-101 -16 -47 -6 -97 -13 -112 -15 -25 -4 -27 -2 -33 43 -3 26 -8 59 -10 75 -3
15 -1 27 2 27 9 0 208 39 253 50 19 4 39 8 43 9 5 1 6 -18 2 -41z"/>
<path d="M976 7024 c-14 -13 -14 -20 -2 -47 19 -47 25 -102 31 -307 l6 -186
-67 -24 c-38 -14 -71 -26 -74 -28 -9 -4 1 243 11 253 24 24 7 51 -63 97 -98
64 -118 51 -79 -49 10 -26 21 -79 24 -117 l7 -70 -33 32 c-36 35 -67 41 -88
16 -7 -8 -25 -22 -41 -30 l-28 -15 0 126 c0 98 4 131 16 150 22 34 11 57 -50
110 -84 72 -120 56 -90 -40 10 -32 18 -109 21 -211 l6 -162 -34 -7 c-19 -4
-68 -18 -109 -30 -41 -13 -88 -26 -103 -30 -22 -4 -28 -11 -25 -28 2 -16 16
-27 56 -41 l53 -19 67 27 c37 14 73 26 79 26 8 0 11 -49 12 -165 l1 -166 -77
-34 c-42 -20 -98 -43 -125 -53 -49 -17 -68 -43 -49 -65 16 -20 109 -50 134
-43 13 3 54 26 92 51 37 25 88 58 114 72 92 54 191 133 191 154 0 33 -23 32
-101 -6 l-74 -35 -3 71 c-2 39 -1 73 2 76 2 2 27 -5 55 -17 51 -22 51 -22 90
-3 l39 20 1 -141 c1 -154 15 -256 39 -298 9 -16 37 -36 66 -49 49 -21 50 -21
287 -6 131 9 247 20 258 26 11 6 28 11 38 11 11 0 27 6 37 13 17 12 18 27 11
206 -6 149 -11 196 -22 207 -28 28 -40 -1 -47 -114 -11 -172 -28 -214 -90
-226 -75 -15 -246 -31 -331 -31 l-100 0 -13 29 c-19 38 -30 133 -34 295 l-3
133 45 23 c25 12 55 26 68 29 l22 7 0 -165 c0 -108 -4 -173 -12 -185 -25 -40
61 -146 93 -114 9 9 13 85 15 259 1 135 5 249 8 252 6 5 156 72 163 72 10 0
-14 -83 -44 -153 -18 -43 -33 -84 -33 -89 0 -6 -14 -49 -32 -95 -23 -60 -29
-86 -21 -94 26 -26 50 4 126 153 88 177 96 194 148 347 21 63 46 125 55 138
21 33 11 71 -24 86 -15 6 -45 26 -68 44 -67 54 -90 41 -59 -34 18 -42 19 -92
2 -153 -21 -77 -37 -88 -196 -135 l-23 -7 4 171 c2 117 7 174 16 183 29 29 -4
83 -83 138 -40 27 -45 29 -59 14z m-206 -578 l0 -53 -57 -21 c-32 -11 -75 -25
-95 -30 l-38 -10 0 58 0 57 48 13 c26 6 65 18 87 25 22 7 43 13 48 14 4 0 7
-23 7 -53z"/>
<path d="M2183 6308 c-4 -7 -6 -65 -4 -129 l3 -117 -36 -38 c-42 -44 -44 -58
-14 -118 25 -53 38 -60 67 -40 34 24 50 66 67 176 14 86 15 114 5 168 -16 85
-63 137 -88 98z"/>
<path d="M2400 6238 c0 -13 43 -136 63 -178 6 -14 12 -34 12 -45 2 -40 18
-131 27 -147 23 -45 68 -6 68 58 0 14 7 48 17 76 16 50 16 52 -6 92 -24 45
-59 87 -110 129 -34 28 -71 36 -71 15z"/>
<path d="M3040 6220 c0 -21 16 -49 55 -97 30 -38 75 -110 100 -160 55 -114 72
-120 112 -39 26 54 26 54 8 93 -18 38 -71 93 -178 184 -68 58 -97 63 -97 19z"/>
<path d="M3069 5762 c-67 -42 -128 -61 -249 -77 -25 -3 -76 -12 -115 -20 -38
-8 -142 -23 -230 -35 -188 -24 -219 -31 -223 -52 -3 -18 25 -37 90 -62 46 -17
51 -17 150 2 57 11 132 25 168 30 36 6 110 18 165 27 55 8 125 20 155 25 30 5
91 12 135 16 142 12 153 27 78 106 -68 70 -73 72 -124 40z"/>
<path d="M813 5734 c-4 -11 1 -22 13 -30 10 -7 24 -18 31 -23 16 -14 25 -116
21 -251 l-3 -115 -95 -16 c-52 -8 -112 -19 -133 -23 l-39 -7 27 49 c15 27 44
71 66 97 l39 47 -18 30 c-27 47 -109 119 -126 112 -9 -3 -16 -9 -16 -13 -5
-117 -10 -140 -62 -251 -84 -182 -105 -216 -243 -388 -37 -46 -46 -92 -19 -92
17 0 205 186 232 229 9 14 29 43 45 63 l28 37 35 -16 c32 -16 39 -16 97 -1 34
9 85 20 113 24 l51 6 7 -32 c3 -18 6 -66 6 -106 l0 -74 -41 0 c-23 0 -58 -4
-78 -9 -20 -6 -92 -17 -161 -26 -197 -25 -190 -24 -190 -46 0 -14 13 -26 46
-40 80 -36 86 -35 382 18 l32 6 0 -126 c0 -138 1 -137 -68 -137 -35 0 -138
-13 -353 -44 -69 -10 -112 -11 -149 -4 -41 7 -55 7 -61 -4 -14 -21 -12 -24 42
-72 59 -53 67 -54 189 -27 103 23 275 48 385 55 44 4 132 11 195 16 63 5 188
10 276 10 176 0 192 5 180 54 -8 31 -46 78 -78 95 -21 11 -31 10 -69 -7 -60
-26 -130 -42 -187 -42 -26 0 -73 -4 -105 -10 -32 -5 -64 -7 -71 -4 -10 4 -15
39 -19 127 -3 67 -2 125 2 130 4 4 66 12 137 18 71 5 151 13 178 18 73 12 82
42 23 80 -18 11 -42 28 -54 37 -21 15 -26 15 -65 -1 -24 -10 -80 -25 -125 -35
l-81 -17 -4 81 c-2 45 -1 97 2 116 5 35 5 35 60 36 51 1 323 49 342 60 18 11
6 42 -30 77 -44 43 -52 44 -107 18 -41 -20 -118 -38 -213 -50 l-53 -7 7 125
c4 84 11 131 20 142 21 23 17 42 -13 71 -76 72 -165 102 -180 62z"/>
<path d="M3224 5336 c-43 -34 -85 -44 -274 -66 -52 -6 -135 -17 -185 -25 -49
-8 -115 -16 -145 -19 -30 -3 -104 -13 -165 -22 -60 -8 -166 -21 -235 -27
l-125 -12 -3 -30 c-3 -29 1 -33 66 -64 l68 -33 75 15 c41 9 106 21 144 27 39
7 105 18 148 26 99 18 97 18 97 -10 0 -44 -142 -387 -177 -428 -8 -9 -28 -16
-46 -16 -18 1 -85 -8 -151 -19 -160 -28 -171 -45 -75 -118 68 -51 62 -51 174
-11 193 68 673 208 687 200 14 -9 118 -222 118 -242 0 -23 19 -42 42 -42 19 0
31 33 48 143 7 46 7 74 0 86 -10 19 -67 76 -248 244 -65 61 -100 87 -117 87
-46 0 -36 -22 63 -142 23 -29 39 -55 35 -59 -13 -10 -382 -83 -389 -76 -2 2
29 69 68 148 48 95 86 157 113 182 l39 39 -17 30 c-9 16 -17 33 -17 37 0 5 51
14 113 20 61 7 126 14 142 17 17 3 85 9 153 14 71 5 130 14 138 21 21 17 10
55 -24 89 -15 14 -35 36 -44 48 -24 29 -45 27 -94 -12z"/>
<path d="M1180 4405 c-38 -24 -79 -39 -135 -49 -169 -32 -347 -56 -530 -71
-104 -9 -200 -19 -212 -21 -40 -8 -27 -38 29 -74 57 -35 61 -35 208 -10 30 5
99 15 153 21 114 15 122 11 112 -56 -24 -169 -41 -275 -46 -280 -4 -3 -87 -17
-185 -31 -99 -13 -193 -27 -211 -30 -31 -5 -47 -22 -35 -41 11 -16 105 -63
126 -63 10 0 75 12 143 26 68 14 127 24 129 21 3 -3 -11 -70 -31 -149 -20 -78
-41 -168 -47 -198 -6 -30 -14 -59 -19 -64 -11 -12 -211 -35 -315 -35 -126 -1
-135 -33 -27 -97 l45 -26 116 21 c221 39 751 90 950 91 88 0 93 1 104 25 12
27 -1 54 -50 108 -32 34 -46 34 -101 -3 -25 -17 -57 -30 -75 -30 -17 0 -47 -3
-67 -6 l-36 -6 12 64 c7 36 15 70 18 75 4 6 13 39 21 74 8 35 26 105 39 154
22 85 26 91 60 108 20 9 37 22 37 28 0 15 -18 46 -57 98 -53 69 -61 71 -103
23 -37 -44 -45 -47 -228 -94 -45 -12 -85 -19 -88 -15 -9 9 45 228 67 270 11
22 17 47 14 58 -4 11 -1 21 7 24 24 9 241 35 320 38 53 2 83 8 93 18 13 13 9
22 -43 77 -68 74 -83 76 -162 27z m-30 -584 c0 -43 -86 -431 -98 -443 -10 -10
-300 -44 -308 -36 -2 3 1 18 7 34 6 16 30 112 53 213 l41 185 35 9 c38 10 224
44 253 46 9 0 17 -3 17 -8z"/>
<path d="M2783 4353 c-21 -8 -15 -39 13 -72 17 -21 28 -49 34 -88 4 -32 6 -60
3 -63 -3 -3 -51 -14 -109 -25 -82 -16 -105 -18 -108 -8 -8 20 -37 15 -43 -6
-4 -15 -20 -22 -67 -30 -35 -6 -72 -11 -83 -11 -26 0 -44 -21 -33 -40 4 -7 35
-23 68 -35 50 -18 64 -20 93 -10 19 7 72 20 119 29 47 9 102 20 122 25 43 9
48 7 48 -28 0 -25 -3 -27 -133 -50 -72 -14 -159 -27 -192 -30 -83 -8 -86 -30
-8 -66 l58 -26 115 20 c63 11 124 23 135 26 16 5 21 1 23 -19 2 -23 -3 -26
-71 -40 -96 -21 -267 -46 -315 -46 -71 0 -96 -47 -37 -70 l25 -10 -35 -51
c-34 -47 -213 -406 -229 -457 -6 -17 -13 -21 -27 -17 -25 8 -49 -11 -49 -40 0
-23 71 -142 97 -162 30 -23 50 3 82 104 17 54 35 118 40 143 12 56 105 338
133 401 13 32 27 48 42 51 38 8 57 -87 63 -330 6 -200 6 -204 -17 -234 l-22
-30 23 -50 c23 -50 60 -88 85 -88 7 0 20 7 28 16 13 12 16 40 16 134 l0 119
55 16 c66 19 118 30 245 52 52 9 103 23 113 31 16 14 17 10 16 -69 -1 -46 -4
-96 -8 -111 l-6 -27 -75 30 c-81 31 -116 36 -123 17 -7 -22 12 -46 57 -73 24
-14 66 -50 94 -80 55 -61 94 -72 126 -36 38 42 42 80 39 358 -2 147 -2 277 1
288 3 11 19 25 36 32 16 6 30 18 30 27 0 8 -22 39 -50 68 -27 28 -48 53 -46
55 2 2 54 4 116 5 107 2 112 3 121 25 12 31 -2 64 -41 96 -37 31 -41 32 -80
12 -42 -22 -133 -44 -220 -55 -41 -5 -90 -12 -108 -16 -32 -7 -33 -6 -30 22
l3 29 155 22 c188 27 196 29 203 48 8 19 -71 95 -98 95 -11 0 -30 -7 -42 -15
-11 -8 -66 -25 -122 -38 l-102 -24 3 35 3 35 105 19 c58 10 145 22 194 28 57
5 95 14 105 24 14 15 12 20 -24 55 -63 60 -78 65 -123 42 -33 -17 -107 -38
-226 -65 l-29 -7 7 49 c3 27 3 57 0 66 -7 18 -125 107 -140 105 -5 0 -15 -3
-21 -6z m312 -602 c-15 -13 -95 -37 -235 -70 -234 -56 -242 -57 -275 -35 l-29
19 59 11 c33 7 87 17 120 23 79 16 281 49 325 54 19 2 37 5 40 5 2 1 0 -2 -5
-7z m-5 -172 l0 -51 -31 26 c-37 32 -40 32 -92 2 -42 -24 -240 -76 -290 -76
-22 0 -27 5 -27 25 0 17 8 29 23 35 23 10 286 68 377 83 14 2 28 5 33 6 4 0 7
-22 7 -50z m0 -146 c0 -16 3 -46 7 -68 l6 -40 -46 43 c-26 23 -51 42 -56 42
-5 0 -22 -11 -38 -24 -31 -26 -265 -101 -288 -92 -9 3 -15 18 -15 39 0 40 12
45 170 78 58 12 132 27 165 34 91 20 95 19 95 -12z"/>
<path d="M2183 4313 c-24 -9 -13 -30 47 -86 52 -49 60 -62 60 -93 0 -20 -9
-52 -21 -70 -25 -41 -22 -78 7 -82 16 -2 31 10 59 50 21 29 50 63 66 76 33 27
38 65 13 100 -9 13 -54 40 -100 62 -96 44 -114 50 -131 43z"/>
<path d="M2070 3920 c0 -21 12 -34 81 -91 60 -49 73 -91 53 -171 -21 -80 -16
-113 16 -113 17 0 26 6 28 20 3 11 29 71 59 134 30 62 52 119 50 125 -5 13
-20 21 -146 75 -106 46 -141 52 -141 21z"/>
<path d="M794 3145 c-3 -8 -4 -20 -1 -27 8 -24 -85 -187 -148 -260 -79 -92
-246 -263 -347 -356 -77 -70 -96 -106 -63 -118 17 -7 32 3 115 70 85 70 178
136 189 136 5 0 25 -9 44 -20 34 -20 35 -20 118 -1 76 18 84 18 95 3 11 -15
28 -101 21 -108 -5 -5 -202 -43 -310 -59 -59 -9 -121 -13 -137 -10 -25 5 -30
3 -29 -12 0 -25 52 -63 139 -103 24 -11 69 -103 82 -167 6 -32 20 -70 30 -85
11 -16 18 -28 16 -28 -2 0 -52 -7 -113 -15 -60 -8 -136 -15 -167 -15 -31 0
-60 -4 -63 -10 -8 -14 36 -53 86 -75 37 -17 49 -18 127 -7 302 41 404 53 547
67 88 8 215 15 283 16 163 3 173 17 82 107 -36 36 -50 39 -86 15 -15 -9 -47
-18 -73 -19 -25 -2 -98 -10 -161 -17 -63 -8 -116 -13 -118 -12 -2 2 17 17 41
34 24 16 67 50 96 74 28 24 76 56 106 72 33 16 55 34 55 44 0 9 -20 45 -45 81
-44 64 -45 65 -22 74 65 24 67 31 22 89 -35 46 -74 62 -90 37 -6 -10 -156 -60
-181 -60 -11 0 -14 15 -14 69 l0 68 38 7 c20 3 51 6 69 6 17 0 39 8 48 17 16
16 23 11 109 -76 53 -55 99 -93 111 -94 11 0 52 6 90 12 39 7 77 14 84 15 8 2
19 10 25 19 15 24 -9 45 -73 63 -31 9 -67 25 -80 35 -13 11 -28 19 -32 19 -13
0 -142 92 -294 210 -17 14 -55 42 -83 63 -29 22 -52 43 -52 47 0 5 16 21 35
36 19 14 35 35 35 46 0 10 -21 41 -46 68 -35 38 -54 50 -76 50 -16 0 -31 -6
-34 -15z m111 -328 c28 -23 54 -44 59 -48 16 -14 -14 -38 -67 -53 -83 -24
-238 -56 -271 -56 -29 0 -26 5 78 109 123 124 111 121 201 48z m216 -439 c-14
-62 -47 -112 -149 -223 l-52 -57 0 140 0 140 73 15 c39 8 86 15 103 16 31 1
32 0 25 -31z m-307 -40 c10 -39 7 -193 -5 -227 -8 -24 -9 -39 -1 -57 10 -21 9
-24 -16 -31 -15 -3 -45 -7 -67 -7 -40 -1 -40 -1 -43 38 -2 22 4 70 14 108 10
37 14 71 10 75 -3 4 -20 2 -37 -4 -29 -11 -33 -10 -62 24 -18 20 -32 41 -32
46 0 10 168 54 211 56 14 1 24 -7 28 -21z"/>
<path d="M2670 2321 c-94 -50 -106 -202 -21 -274 99 -83 245 -7 245 127 0 126
-118 204 -224 147z m105 -67 c19 -8 45 -55 45 -84 0 -12 -14 -35 -30 -52 -25
-24 -36 -29 -58 -24 -62 15 -84 95 -37 141 24 25 49 31 80 19z"/>
<path d="M798 1341 c-44 -39 -46 -96 -4 -140 28 -29 28 -31 12 -55 -9 -14 -25
-30 -36 -36 -21 -11 -26 -36 -11 -59 21 -33 134 48 173 123 13 24 22 61 22 89
1 43 -3 52 -32 78 -42 38 -82 38 -124 0z"/>
</g>
</svg>
