<?xml version="1.0" standalone="no"?>
<!DOCTYPE svg PUBLIC "-//W3C//DTD SVG 20010904//EN"
 "http://www.w3.org/TR/2001/REC-SVG-20010904/DTD/svg10.dtd">
<svg version="1.0" xmlns="http://www.w3.org/2000/svg"
 width="680.000000pt" height="1417.000000pt" viewBox="0 0 680.000000 1417.000000"
 preserveAspectRatio="xMidYMid meet">

<g transform="translate(0.000000,1417.000000) scale(0.100000,-0.100000)"
fill="#ffffff" stroke="none">
<path d="M1130 13506 c-22 -28 -96 -56 -175 -67 -44 -6 -83 -13 -86 -15 -9 -5
-216 -34 -246 -34 -15 0 -31 12 -49 40 -14 22 -35 42 -46 46 -36 11 -41 -9
-19 -82 11 -39 25 -126 30 -199 8 -109 8 -132 -4 -146 -21 -23 -18 -43 10 -78
l26 -30 -27 -53 c-44 -87 -103 -168 -186 -255 -43 -45 -78 -88 -78 -96 0 -51
99 -3 200 96 64 64 65 64 93 50 15 -8 36 -12 45 -9 10 3 51 10 93 15 41 6 82
13 92 17 15 5 17 -1 17 -44 l0 -50 -67 -12 c-38 -7 -126 -18 -198 -24 -160
-14 -169 -24 -63 -78 l73 -37 60 13 c33 8 88 17 123 21 l62 6 2 -41 c4 -90 19
-80 -132 -86 -74 -2 -170 -9 -214 -15 -43 -6 -97 -7 -118 -4 -45 8 -88 -9 -88
-34 0 -15 23 -33 86 -69 17 -9 34 -10 66 -3 91 21 720 71 890 71 145 0 176 9
164 47 -3 11 -25 35 -48 53 -46 38 -64 39 -163 15 -53 -13 -176 -25 -290 -29
l-40 -1 -3 54 c-2 36 1 57 10 62 7 4 42 10 78 14 197 17 272 29 278 43 9 25
-67 85 -98 78 -14 -3 -43 -8 -65 -11 -22 -3 -51 -7 -65 -9 -14 -2 -51 -7 -82
-11 l-58 -7 0 28 c0 16 -3 39 -6 50 -5 18 0 24 28 32 34 10 200 29 318 36 36
3 68 5 73 5 19 2 4 45 -25 72 -64 60 -68 61 -123 34 -28 -13 -66 -25 -85 -25
-19 0 -66 -7 -105 -15 -38 -8 -71 -15 -72 -15 -2 0 -3 23 -3 50 0 31 4 50 11
50 8 0 10 12 6 34 l-5 33 69 12 c39 6 105 14 147 17 44 4 84 13 93 21 22 19
13 49 -20 69 -30 18 -32 34 -12 168 7 51 16 75 35 95 14 15 26 32 26 38 0 6
-19 34 -42 62 -44 52 -75 64 -98 37z m-24 -223 c-12 -164 -10 -159 -75 -177
-31 -8 -87 -20 -126 -26 -169 -25 -211 -32 -232 -37 -21 -5 -23 -2 -23 36 0
25 5 43 13 45 51 14 209 41 290 51 63 7 103 17 113 27 15 15 13 20 -22 58 -38
40 -40 41 -79 31 -84 -20 -251 -59 -286 -65 -35 -6 -37 -5 -43 25 -3 18 -4 34
-2 37 4 4 97 20 381 65 50 8 92 15 94 16 2 0 1 -38 -3 -86z m-302 -375 c3 -29
6 -63 6 -75 0 -24 -7 -26 -122 -38 -53 -6 -57 -5 -51 12 4 10 15 24 25 31 21
15 23 43 6 60 -22 22 15 41 123 61 3 0 9 -23 13 -51z"/>
<path d="M2857 13126 c-3 -7 6 -29 19 -48 35 -48 52 -173 59 -418 l5 -206 -46
-12 c-26 -7 -48 -11 -50 -9 -8 8 -9 334 -1 358 7 23 2 30 -52 72 -85 67 -112
61 -84 -18 17 -49 35 -273 27 -335 -3 -25 -1 -57 5 -72 10 -26 8 -29 -25 -43
-20 -8 -49 -15 -65 -15 -36 0 -62 -25 -50 -48 5 -9 29 -24 54 -34 l45 -16 114
38 c68 23 115 34 119 28 4 -6 7 -101 8 -212 l1 -201 -60 -17 c-91 -27 -86 -33
-93 94 -4 70 -3 116 3 122 21 21 8 43 -46 80 -66 44 -89 42 -80 -7 17 -87 26
-230 15 -244 -7 -7 -9 -30 -6 -53 5 -42 0 -46 -55 -41 -26 3 -58 -18 -58 -37
0 -17 74 -82 92 -82 12 0 194 49 224 61 22 8 307 79 318 79 2 0 6 -33 10 -72
4 -45 13 -79 22 -88 35 -35 104 97 104 202 1 78 36 228 59 249 38 35 33 42
-69 109 -79 52 -106 33 -76 -52 9 -27 15 -52 12 -57 -3 -4 -8 -50 -10 -101 -3
-51 -9 -97 -14 -102 -8 -8 -181 -33 -187 -26 -2 1 -6 101 -10 220 l-8 216 44
11 c24 6 62 16 83 22 37 10 40 9 63 -20 48 -61 70 -36 83 90 5 52 14 141 19
198 9 86 14 106 31 118 27 19 25 49 -2 64 -13 7 -52 34 -87 61 -35 26 -70 48
-77 48 -24 0 -26 -40 -4 -98 18 -46 23 -85 27 -208 l4 -151 -75 -21 c-114 -34
-106 -41 -107 106 -2 248 2 356 16 375 20 28 10 42 -70 102 -72 55 -108 67
-118 41z"/>
<path d="M2324 13106 c-3 -9 5 -35 19 -59 29 -49 45 -127 50 -244 l4 -83 -31
-1 c-17 -1 -78 -13 -136 -27 -128 -33 -138 -48 -56 -85 l56 -26 72 25 c39 13
77 24 84 24 10 0 13 -30 13 -129 0 -121 -2 -129 -22 -140 -40 -21 -62 -36 -98
-63 -20 -16 -39 -28 -43 -28 -3 0 -28 -15 -55 -32 -27 -18 -63 -41 -80 -50
-24 -13 -32 -24 -29 -40 3 -20 13 -25 69 -37 l66 -13 52 48 c29 27 60 53 69
58 10 5 23 18 30 28 7 10 17 18 23 18 5 0 9 -76 9 -185 0 -102 -2 -185 -4
-185 -2 0 -33 14 -69 31 -36 16 -75 31 -86 32 -12 1 -21 5 -21 9 0 4 -7 8 -15
8 -21 0 -19 -15 8 -43 105 -111 138 -149 161 -185 40 -63 71 -54 110 30 15 33
16 67 12 299 -3 150 -2 269 4 279 5 9 45 45 89 79 83 64 107 92 97 117 -10 25
-34 15 -108 -42 l-73 -56 -7 53 c-3 30 -6 80 -7 112 l-1 57 33 1 c17 0 64 8
102 18 86 23 94 41 38 94 -43 42 -53 45 -77 18 -9 -10 -27 -21 -39 -24 -12 -2
-29 -7 -37 -11 -13 -5 -15 9 -12 106 3 62 8 120 12 128 12 23 -2 41 -62 82
-65 45 -105 57 -114 34z"/>
<path d="M652 12227 c-9 -10 -7 -22 7 -48 21 -39 34 -96 23 -103 -4 -2 -83
-12 -177 -22 -93 -9 -173 -22 -177 -28 -10 -15 2 -31 50 -66 50 -36 69 -36
208 6 45 13 85 24 88 24 3 0 6 -17 6 -38 0 -49 34 -85 76 -80 l29 3 -3 67 -3
67 60 12 c76 15 100 31 85 56 -12 19 -29 21 -104 11 l-45 -6 0 56 0 57 -45 22
c-53 26 -64 27 -78 10z"/>
<path d="M1032 12218 c-7 -7 -12 -19 -12 -28 0 -43 -47 -142 -105 -218 -35
-47 -61 -91 -58 -98 10 -26 38 -14 88 36 28 27 53 49 57 50 8 0 28 -57 28 -81
0 -20 7 -18 -201 -50 -136 -21 -149 -21 -180 -7 -19 9 -47 20 -63 24 -27 7
-28 6 -23 -22 3 -16 9 -45 14 -64 5 -19 7 -56 5 -82 -3 -42 -6 -46 -33 -50
l-28 -4 -3 69 c-3 68 -4 70 -37 88 -19 10 -39 23 -45 29 -5 5 -20 10 -33 10
-29 0 -30 -22 -1 -61 18 -24 23 -44 23 -91 0 -68 -1 -68 -95 -87 -51 -9 -51
-35 1 -61 40 -21 44 -21 103 -7 33 8 80 18 104 22 l42 7 0 -39 0 -38 -47 -1
c-42 0 -198 -26 -245 -40 -10 -3 -18 -14 -18 -24 0 -29 46 -55 95 -52 l42 1
-8 -48 c-11 -68 -72 -185 -130 -246 -51 -54 -60 -79 -33 -89 26 -10 28 -8 92
56 59 58 98 118 166 251 24 48 27 62 18 78 -13 20 -10 23 29 32 l26 7 -8 -49
c-16 -101 -90 -256 -158 -329 -42 -45 -44 -66 -8 -76 17 -4 35 9 85 62 120
128 151 192 172 354 6 51 16 112 21 135 5 23 10 70 11 105 l1 63 7 -65 c11
-96 11 -385 1 -413 -8 -19 -4 -36 19 -78 15 -30 35 -58 44 -64 24 -15 50 6 54
43 3 25 8 31 37 36 19 4 72 20 119 35 l85 29 -60 -75 c-58 -71 -69 -103 -35
-103 18 0 126 91 184 156 40 44 45 47 54 29 22 -37 170 -196 198 -210 46 -24
85 -19 98 10 14 31 15 65 2 99 -5 14 -14 65 -20 113 -16 128 -18 133 -39 133
-26 0 -30 -15 -25 -91 6 -86 -3 -139 -22 -132 -15 6 -144 180 -144 194 0 5 23
47 50 93 28 47 53 93 57 103 4 10 17 28 30 40 22 21 23 24 9 51 -21 40 -83 93
-101 86 -8 -4 -15 -9 -16 -13 0 -3 -2 -22 -3 -41 -2 -19 -18 -75 -37 -125 -39
-106 -36 -110 -74 109 -34 192 -36 182 29 190 30 4 70 15 90 25 40 21 45 18
69 -41 26 -63 77 -42 92 38 5 25 0 35 -37 70 -68 65 -137 114 -153 108 -21 -9
-19 -24 11 -68 l26 -39 -28 17 c-28 17 -31 16 -77 -3 -27 -12 -51 -21 -53 -21
-2 0 -4 21 -4 47 0 28 -6 53 -16 64 -19 21 -22 20 161 39 126 13 165 25 165
50 0 25 -70 82 -90 74 -59 -25 -123 -43 -173 -47 l-57 -6 20 26 c15 19 17 30
9 44 -20 37 -87 67 -107 47z m12 -519 c11 -110 41 -254 80 -384 4 -13 -5 -37
-24 -68 l-31 -48 -19 23 c-15 19 -27 23 -67 22 -55 -1 -63 5 -54 49 6 29 11
33 61 42 62 12 74 30 37 60 l-27 21 20 52 c27 70 25 84 -10 110 -35 26 -38 27
-63 5 -18 -17 -18 -16 -15 16 3 32 7 35 48 45 37 9 46 15 48 37 2 15 -5 32
-17 43 -19 17 -26 18 -83 6 -35 -6 -67 -15 -73 -18 -11 -7 -11 -7 -70 -17 -34
-6 -43 -3 -60 16 -11 12 -15 20 -9 16 5 -3 30 -1 55 5 43 10 203 34 245 37 19
1 22 -6 28 -70z m-204 -118 c0 -29 -14 -41 -51 -41 -14 0 -19 7 -19 28 0 36 6
42 42 42 24 0 28 -4 28 -29z m86 -135 c-8 -41 -23 -51 -88 -61 l-48 -7 0 39 0
40 68 15 c37 8 69 13 71 12 2 -2 0 -19 -3 -38z m-86 -195 c0 -39 -4 -50 -19
-54 -15 -4 -20 2 -25 32 -10 63 -8 71 19 71 23 0 25 -3 25 -49z"/>
<path d="M2644 11655 c-4 -8 8 -37 25 -63 44 -68 50 -130 58 -564 5 -301 4
-380 -7 -393 -9 -10 -11 -31 -7 -65 7 -57 10 -55 -103 -70 -41 -5 -92 -13
-112 -16 -34 -6 -39 -4 -47 19 -16 42 -26 527 -12 570 17 50 6 66 -96 140 -88
62 -123 72 -123 33 0 -13 6 -29 14 -35 25 -21 64 -126 75 -201 5 -41 13 -136
16 -210 7 -134 6 -135 -19 -173 -28 -41 -28 -57 5 -134 10 -24 17 -43 16 -43
-1 0 -41 -5 -87 -11 -80 -10 -110 -21 -110 -40 0 -18 122 -99 149 -99 14 0 67
12 116 26 50 14 115 32 145 39 30 7 91 22 135 33 44 10 125 29 180 41 55 13
127 29 161 37 33 8 65 14 70 14 5 0 15 -37 22 -82 22 -143 41 -185 75 -172 29
11 36 48 87 439 10 79 37 271 46 332 2 17 11 34 19 37 32 12 2 96 -35 96 -5 0
-10 5 -10 10 0 13 -64 78 -99 102 -18 12 -29 14 -38 6 -18 -15 -16 -37 7 -83
16 -31 20 -58 20 -135 -1 -125 -16 -329 -31 -407 l-11 -63 -42 0 c-37 0 -99
-8 -198 -25 -21 -3 -38 -3 -39 2 -5 47 -9 257 -10 527 -1 294 1 332 17 361 24
45 14 70 -53 139 -81 81 -155 117 -169 81z"/>
<path d="M1005 10920 c-4 -6 5 -24 18 -40 18 -21 27 -47 32 -92 16 -134 20
-288 12 -418 -5 -74 -9 -149 -9 -167 0 -24 -5 -32 -21 -37 -42 -11 -63 -6 -97
24 -45 38 -64 39 -57 3 5 -28 5 -28 -46 -28 -29 0 -79 -3 -112 -5 l-60 -5 -3
43 c-4 51 -6 50 135 66 123 13 136 25 86 78 -44 47 -54 49 -109 24 -27 -12
-64 -26 -81 -29 -32 -6 -33 -5 -33 27 0 32 1 33 64 44 35 7 79 12 97 12 52 0
109 19 109 36 0 8 -15 24 -33 34 -32 19 -34 22 -26 63 14 81 38 150 60 173 26
28 21 46 -31 107 -38 43 -45 45 -79 14 -37 -34 -149 -67 -281 -83 -63 -7 -119
-14 -125 -14 -5 0 -20 18 -33 41 -49 86 -94 17 -58 -89 19 -56 22 -233 4 -262
-14 -22 -2 -50 49 -110 18 -21 33 -40 33 -43 0 -2 -27 -7 -59 -11 -86 -10 -90
-37 -9 -80 35 -19 36 -19 123 3 49 12 92 18 96 14 8 -9 24 -83 17 -83 -2 0
-47 -9 -99 -21 -52 -11 -127 -24 -168 -29 -103 -11 -115 -39 -36 -85 44 -26
93 -32 126 -15 16 9 19 7 19 -8 0 -11 7 -36 15 -56 8 -20 18 -71 21 -113 10
-141 18 -149 78 -83 33 37 36 45 30 78 -14 74 -84 192 -116 192 -34 0 -13 11
47 25 45 11 55 11 55 0 0 -7 12 -38 26 -69 14 -31 34 -96 43 -143 10 -48 23
-89 30 -91 21 -7 71 49 71 78 0 34 -49 131 -101 199 -25 33 -35 53 -27 55 7 3
28 9 46 15 27 8 32 7 32 -5 0 -9 9 -28 19 -42 22 -31 94 -188 113 -247 19 -57
42 -57 70 2 35 71 28 96 -53 192 -39 45 -84 91 -101 101 l-31 18 39 11 c21 5
62 15 89 22 28 6 56 19 62 27 7 9 15 13 18 10 3 -3 15 -57 26 -119 21 -117 20
-182 -2 -244 -12 -31 -10 -37 16 -75 54 -79 95 -79 95 -1 l0 49 49 11 c27 6
118 17 201 26 84 8 156 17 161 21 15 9 10 43 -8 53 -44 25 -43 25 -32 87 15
86 39 145 73 174 21 20 27 31 20 42 -14 25 -114 128 -125 128 -5 0 -16 -11
-25 -25 -15 -24 -112 -76 -165 -88 l-25 -6 3 92 c2 51 6 115 9 144 l5 52 47 6
c26 3 71 10 101 15 30 6 75 10 101 10 79 0 93 39 33 95 -21 19 -42 35 -47 35
-5 0 -36 -13 -70 -29 -33 -17 -85 -33 -113 -36 l-53 -7 -2 74 c-4 119 -2 137
17 157 27 31 14 53 -60 98 -69 42 -108 53 -120 33z m-189 -217 c-14 -77 -15
-77 -48 -36 -40 51 -58 49 -74 -7 -6 -25 -19 -67 -27 -95 l-15 -50 -1 93 c-1
92 -1 93 27 103 15 6 41 11 57 11 17 -1 37 3 45 8 32 20 43 12 36 -27z m-252
-65 c12 -105 10 -107 -42 -37 l-48 64 35 12 c20 6 39 12 42 12 3 1 9 -23 13
-51z m221 -77 c-7 -29 -15 -54 -17 -56 -2 -2 -21 -7 -42 -11 l-40 -7 55 65
c30 36 55 64 56 64 1 -1 -4 -26 -12 -55z m-319 -43 c22 -65 22 -68 4 -68 -22
0 -27 14 -34 100 -6 71 -4 68 30 -32z m104 -28 c0 -19 -5 -30 -14 -30 -12 0
-12 5 -3 30 6 17 13 30 14 30 2 0 3 -13 3 -30z m0 -144 c0 -31 -3 -34 -37 -40
-21 -4 -50 -9 -64 -12 -26 -5 -26 -4 -16 30 10 29 18 36 52 44 64 15 65 15 65
-22z m753 -258 c-3 -24 -11 -77 -17 -118 l-12 -75 -45 -7 c-66 -11 -222 -29
-224 -26 -2 2 -7 49 -12 106 -8 99 -8 103 12 107 95 19 132 25 168 25 23 1 56
7 72 15 54 25 64 20 58 -27z"/>
<path d="M2863 10194 c-3 -9 1 -29 11 -44 17 -30 22 -193 10 -342 l-7 -76 -81
-20 c-44 -11 -115 -26 -156 -33 -131 -22 -141 -40 -48 -88 l62 -33 55 17 c31
10 75 26 99 36 23 11 46 19 50 19 4 0 3 -58 -2 -130 -8 -113 -11 -130 -26
-130 -10 0 -35 -6 -57 -14 l-39 -14 -24 35 c-16 24 -29 33 -42 30 -16 -5 -18
2 -18 53 0 56 -1 59 -37 81 -21 12 -56 27 -78 34 l-40 12 -7 64 c-4 35 -4 67
0 71 4 4 52 18 106 32 55 14 103 29 108 34 14 14 -1 40 -37 62 -41 25 -71 25
-130 0 -26 -11 -51 -20 -57 -20 -7 0 -9 46 -5 145 l5 145 -68 40 c-74 43 -86
47 -93 28 -5 -16 30 -87 46 -94 9 -3 12 -45 12 -147 l1 -143 -81 -18 c-44 -10
-101 -20 -127 -23 -85 -9 -89 -47 -9 -88 57 -28 78 -31 100 -11 13 10 92 31
91 23 -7 -38 -76 -194 -168 -380 -46 -92 -82 -176 -80 -185 5 -24 42 -22 46 2
2 11 53 93 112 183 60 90 112 172 115 183 17 54 25 6 26 -157 0 -98 3 -216 5
-262 4 -74 2 -90 -18 -128 -22 -41 -22 -44 -6 -71 9 -15 26 -44 38 -65 18 -33
25 -38 53 -35 l32 3 0 140 c0 77 -3 241 -7 365 l-7 225 64 -68 c36 -38 69 -65
75 -62 5 3 10 -3 10 -15 0 -12 7 -34 15 -51 30 -58 53 -266 35 -320 -12 -37
-12 -39 45 -128 40 -64 63 -91 76 -91 25 0 35 26 22 59 -5 15 -8 42 -5 62 l4
35 86 12 c48 6 146 17 217 24 127 13 130 14 133 38 2 18 -7 34 -28 55 -35 34
-38 60 -16 175 18 94 24 108 47 121 24 12 25 53 1 77 -9 9 -28 32 -40 50 -28
39 -47 40 -81 6 -28 -28 -120 -69 -179 -80 -31 -6 -34 -5 -29 10 4 10 10 62
13 116 4 54 10 103 13 109 9 14 108 35 371 78 32 5 49 17 50 35 0 18 -74 88
-94 88 -30 0 -202 -48 -259 -72 -26 -12 -50 -18 -54 -14 -3 3 1 59 10 123 10
65 17 131 17 147 0 16 7 34 16 41 30 22 9 59 -57 104 -66 44 -96 51 -106 25z
m267 -871 c0 -52 -22 -239 -29 -246 -4 -4 -50 -15 -102 -23 -145 -24 -153 -26
-167 -37 -18 -14 -21 -9 -33 77 -6 43 -15 89 -20 103 -17 46 -12 60 29 67 60
10 162 33 237 54 39 11 73 20 78 21 4 0 7 -7 7 -16z"/>
<path d="M334 9942 c-7 -10 -15 -38 -19 -62 -5 -31 -18 -55 -41 -78 -41 -41
-42 -65 -9 -115 35 -51 57 -48 100 15 34 51 35 56 35 143 0 92 -8 115 -40 115
-8 0 -20 -8 -26 -18z"/>
<path d="M1150 9596 c-63 -34 -282 -64 -595 -82 -149 -9 -167 -24 -88 -74 51
-32 120 -40 179 -21 16 5 55 12 87 15 l57 6 0 -35 c0 -27 -4 -35 -17 -35 -10
0 -81 -7 -158 -15 -183 -20 -170 -21 -183 24 -12 38 -47 71 -77 71 -12 0 -15
-13 -15 -57 0 -75 -24 -163 -49 -183 -12 -8 -23 -28 -26 -45 -5 -25 0 -36 30
-67 37 -39 65 -48 82 -25 10 12 40 115 45 152 3 18 18 21 163 37 88 9 171 18
185 20 23 3 25 -1 28 -40 l3 -42 -27 25 c-15 14 -30 25 -33 25 -3 0 -71 -14
-151 -30 -155 -31 -185 -47 -154 -81 37 -40 68 -43 172 -16 53 14 114 28 134
31 21 4 42 14 47 24 8 13 10 3 11 -39 0 -42 -4 -58 -15 -63 -22 -8 -19 -29 15
-96 21 -41 36 -60 49 -60 25 0 51 41 51 80 l0 31 31 -21 c36 -27 43 -27 189
-6 63 9 140 20 170 24 71 9 78 34 24 81 -42 37 -42 37 -174 -2 -47 -14 -114
-28 -150 -32 -36 -4 -72 -14 -81 -22 -15 -13 -17 -7 -18 69 -1 45 1 102 5 125
7 49 -4 46 199 63 72 6 145 13 163 16 27 4 32 2 32 -16 0 -12 -7 -28 -15 -37
-10 -9 -13 -23 -9 -37 6 -18 2 -17 -25 9 -31 29 -32 29 -79 15 -26 -7 -94 -23
-152 -35 -88 -18 -105 -24 -108 -41 -2 -14 7 -25 33 -37 37 -18 56 -17 303 19
30 5 53 17 80 43 21 20 59 52 85 71 67 50 69 68 11 135 -51 59 -71 66 -98 37
-18 -21 -86 -35 -281 -57 -71 -8 -131 -15 -132 -15 -2 0 -3 15 -3 34 0 39 4
41 95 50 280 28 305 32 305 49 0 22 -93 98 -117 97 -4 -1 -19 -7 -33 -14z"/>
<path d="M615 9063 c-49 -13 -110 -31 -135 -39 -25 -7 -64 -16 -87 -20 -60 -9
-63 -30 -11 -75 50 -44 70 -47 118 -17 19 12 85 47 145 79 82 42 111 62 113
78 4 28 -26 27 -143 -6z"/>
<path d="M1144 8935 c-32 -20 -75 -30 -215 -49 -235 -33 -518 -65 -549 -63
-19 2 -25 -3 -25 -18 0 -14 15 -28 51 -46 l52 -26 153 18 c84 10 187 25 228
33 42 8 112 18 156 21 44 3 90 8 103 11 21 4 22 1 22 -51 0 -30 -3 -55 -6 -55
-4 0 -22 10 -41 21 -31 20 -40 21 -86 11 -158 -34 -279 -53 -419 -64 -140 -11
-158 -14 -158 -30 0 -22 94 -78 132 -78 16 0 85 11 155 24 71 14 182 30 248
36 66 6 129 13 141 15 20 5 21 3 9 -47 -14 -63 -7 -61 -233 -82 -92 -9 -207
-21 -257 -26 -49 -5 -118 -7 -152 -4 -77 8 -113 0 -113 -25 0 -23 64 -81 88
-81 9 0 89 10 177 21 197 25 472 42 581 35 91 -5 120 -1 128 21 10 25 -12 50
-50 58 -84 15 -89 35 -49 191 20 76 32 103 50 117 14 10 25 24 25 31 0 14 -85
106 -97 106 -5 -1 -26 -12 -49 -25z"/>
<path d="M2640 8723 c0 -9 9 -36 20 -59 12 -23 25 -66 31 -96 5 -29 14 -78 20
-108 5 -30 9 -70 7 -89 l-3 -35 -72 72 c-49 49 -76 70 -87 66 -20 -8 -20 -28
0 -86 8 -26 14 -61 12 -79 -3 -33 -5 -34 -98 -61 -52 -15 -140 -40 -195 -54
-55 -14 -117 -30 -137 -35 -26 -7 -38 -15 -38 -28 0 -24 106 -91 143 -91 15 0
53 17 85 38 55 37 221 117 227 110 7 -7 -114 -269 -159 -343 -46 -76 -141
-200 -228 -296 -43 -48 -78 -94 -78 -102 0 -28 29 -48 51 -37 10 6 19 15 19
21 0 5 50 60 110 120 156 156 192 203 188 248 -3 31 0 36 18 33 38 -5 137 166
190 332 48 148 54 138 56 -109 3 -229 -2 -557 -8 -564 -6 -7 -86 30 -140 64
-62 40 -84 44 -84 15 0 -19 29 -52 120 -137 25 -23 62 -60 82 -83 36 -38 68
-50 94 -32 6 4 24 32 39 62 l27 54 -11 136 c-10 113 -21 490 -14 490 1 0 17
-26 36 -58 33 -57 101 -154 249 -354 39 -54 78 -98 87 -98 15 0 68 16 151 45
26 9 36 19 38 38 3 22 -3 29 -31 41 -119 49 -285 194 -393 343 -42 57 -75 106
-73 107 2 2 68 47 147 100 116 78 148 96 174 94 44 -4 46 14 10 93 -16 35 -35
81 -41 101 -23 72 -59 70 -68 -3 -7 -60 -54 -126 -162 -233 -85 -84 -92 -88
-109 -73 -16 14 -18 37 -21 179 l-2 163 25 19 c14 10 26 25 26 32 0 13 -115
110 -157 132 -33 18 -73 15 -73 -5z"/>
<path d="M4489 8466 c-166 -44 -259 -227 -259 -506 0 -105 -1 -109 -22 -112
-20 -3 -23 -10 -26 -51 -4 -57 9 -77 49 -77 17 0 29 -5 29 -12 0 -28 64 -145
98 -181 33 -35 80 -67 97 -67 8 0 0 195 -10 233 -6 23 -4 27 12 27 15 0 22 11
31 48 6 26 14 55 17 65 6 15 1 17 -45 17 l-52 0 4 173 c4 139 9 184 26 238 70
216 212 126 240 -151 7 -68 9 -75 27 -70 11 3 53 5 93 5 l73 0 -7 45 c-28 202
-113 338 -235 374 -62 19 -78 19 -140 2z"/>
<path d="M5139 8467 c-98 -28 -188 -104 -223 -189 -13 -31 -13 -37 0 -56 22
-31 37 -28 86 20 88 85 185 99 247 37 62 -62 55 -167 -21 -319 l-53 -105 -68
-3 c-60 -3 -68 -5 -62 -20 20 -50 37 -170 39 -264 l1 -108 90 0 c50 0 133 -3
186 -6 l95 -7 48 94 c75 150 62 201 -31 120 l-46 -41 -159 0 -159 0 42 50 42
50 186 2 186 3 -3 44 c-5 80 -7 81 -138 81 -101 0 -115 2 -110 16 5 12 0 11
-22 -4 -15 -11 -36 -29 -46 -41 -11 -12 -28 -21 -38 -21 -48 0 -27 69 44 146
41 45 107 85 159 97 19 5 29 17 38 47 33 110 20 207 -39 288 -55 76 -175 116
-271 89z"/>
<path d="M4723 7960 c-29 -17 -33 -25 -33 -65 0 -37 -3 -45 -19 -45 -14 0 -21
-12 -30 -57 -14 -73 -15 -73 10 -73 19 0 21 -4 14 -37 -3 -21 -15 -58 -26 -82
-20 -46 -23 -70 -13 -119 l6 -31 37 18 c61 32 122 111 156 204 16 43 20 47 51
47 19 0 34 3 34 8 -1 16 -21 98 -29 117 -5 11 -14 34 -21 52 -26 68 -85 96
-137 63z"/>
<path d="M825 7841 c-64 -28 -80 -109 -31 -160 32 -33 27 -53 -20 -90 -20 -16
-25 -26 -20 -46 11 -42 50 -30 124 39 76 70 101 182 52 231 -28 27 -74 39
-105 26z"/>
<path d="M4898 7526 c-11 -26 -5 -56 12 -56 5 0 10 18 10 40 0 46 -6 50 -22
16z"/>
<path d="M2723 7273 c-18 -7 -16 -29 5 -49 15 -16 17 -36 15 -159 -2 -132 -17
-302 -28 -313 -12 -12 -324 -48 -529 -61 -103 -6 -127 -18 -113 -54 9 -24 165
-97 207 -97 35 0 125 18 313 64 115 28 111 33 71 -96 -85 -271 -359 -570 -534
-582 -54 -4 -75 -31 -45 -56 36 -30 85 -30 163 2 88 35 133 62 220 131 103 81
223 244 268 364 10 26 24 59 30 71 12 23 13 23 40 -25 53 -94 198 -334 236
-392 10 -14 31 -52 48 -83 16 -32 38 -62 48 -67 11 -6 62 -5 140 2 99 10 125
15 133 29 13 23 -5 58 -29 58 -20 0 -124 62 -171 102 -37 32 -196 212 -216
243 -6 11 -40 64 -74 118 -58 93 -101 182 -101 210 0 15 114 32 270 42 175 12
258 20 265 27 15 14 -6 55 -55 111 -29 31 -60 57 -70 57 -10 0 -34 -9 -53 -20
-42 -25 -106 -44 -217 -65 -47 -8 -93 -18 -103 -21 -16 -5 -17 -1 -12 48 14
112 45 259 60 280 28 40 19 63 -51 127 -65 59 -92 70 -131 54z"/>
<path d="M1235 7042 c-5 -4 -18 -23 -28 -43 -21 -40 -79 -70 -177 -90 -30 -6
-59 -15 -65 -20 -5 -5 -23 -9 -40 -10 -16 0 -57 -6 -90 -13 l-59 -12 -16 27
c-8 15 -30 55 -48 88 -26 49 -37 61 -57 61 -32 0 -40 -15 -27 -59 41 -139 45
-171 49 -366 5 -184 3 -210 -20 -320 -14 -69 -38 -148 -56 -186 -44 -94 -158
-221 -225 -253 -59 -28 -71 -45 -52 -72 20 -27 73 -13 148 40 127 88 228 216
273 343 17 48 22 53 54 59 20 3 45 8 56 12 11 3 25 6 30 7 12 1 161 23 265 39
90 14 99 30 48 83 -54 56 -63 58 -116 24 -30 -19 -70 -33 -112 -40 -36 -5 -81
-13 -100 -16 -19 -3 -49 -8 -66 -10 l-32 -5 9 37 c5 21 9 59 9 85 0 43 2 47
32 57 47 17 204 48 279 57 68 8 129 28 129 44 0 11 -108 100 -122 100 -6 0
-26 -12 -45 -26 -42 -32 -246 -94 -261 -79 -12 12 -14 163 -3 169 11 7 395 86
417 86 12 0 20 -157 29 -520 2 -85 4 -159 5 -165 1 -5 2 -59 1 -119 l-1 -108
-27 6 c-16 4 -81 27 -147 52 -65 25 -125 43 -132 40 -8 -3 -14 -14 -14 -26 0
-14 16 -28 59 -50 77 -38 221 -132 245 -159 24 -26 77 -28 98 -3 45 51 51 79
43 221 -4 75 -8 138 -10 141 -5 9 -15 304 -16 490 l-1 174 32 27 c29 25 31 29
18 52 -16 30 -133 157 -145 157 -4 0 -12 -4 -18 -8z"/>
<path d="M2241 5796 c-10 -12 0 -27 48 -81 55 -61 61 -71 61 -111 0 -25 -7
-61 -15 -81 -18 -42 -20 -93 -4 -93 6 0 43 33 83 73 40 39 80 78 89 85 50 38
-4 105 -146 177 -97 50 -100 51 -116 31z"/>
<path d="M1081 5722 c-9 -16 -172 -90 -326 -147 -88 -32 -100 -39 -100 -56 0
-10 12 -14 37 -13 31 1 36 -1 29 -15 -5 -9 -18 -24 -28 -33 -11 -10 -37 -44
-58 -77 l-40 -60 -22 27 c-39 48 -38 57 22 144 l56 81 -18 35 c-30 56 -76 80
-87 44 -7 -19 -109 -72 -141 -72 -20 0 -55 48 -55 76 0 19 -44 18 -61 -2 -10
-13 -10 -26 0 -72 18 -82 25 -425 12 -655 -9 -166 -14 -204 -30 -230 -13 -22
-16 -38 -11 -54 15 -39 82 -123 97 -123 39 0 42 24 43 333 0 163 3 297 6 297
9 0 42 -41 70 -87 41 -68 72 -55 119 50 14 32 25 66 25 77 0 19 1 19 45 -2 44
-22 44 -22 127 -4 46 10 108 22 138 27 30 4 89 15 130 23 86 17 119 19 75 4
-34 -11 -51 -15 -255 -53 -242 -45 -260 -55 -190 -102 37 -26 33 -26 180 8 47
10 129 27 183 38 l97 18 0 -21 c0 -40 -14 -49 -42 -26 -32 25 -32 25 -82 1
-41 -20 -143 -44 -268 -65 -85 -14 -99 -26 -62 -55 49 -39 41 -39 359 29 66
15 77 13 73 -12 -3 -25 12 -22 -218 -52 -69 -9 -159 -23 -200 -32 -41 -9 -85
-18 -97 -20 -42 -8 -27 -38 28 -58 49 -18 60 -18 157 0 28 5 32 3 32 -14 0
-12 5 -24 10 -27 6 -3 17 -20 26 -37 18 -36 54 -168 45 -168 -3 1 -33 16 -66
35 -117 67 -131 74 -144 65 -44 -27 69 -129 201 -181 79 -31 89 -33 198 -31
134 3 144 5 157 35 9 18 5 32 -19 76 -17 29 -38 79 -47 110 -13 42 -22 57 -38
59 -28 4 -31 -12 -19 -96 12 -86 8 -92 -69 -92 -72 0 -96 8 -85 29 5 9 16 41
25 71 9 30 30 74 47 98 53 75 6 103 -52 31 l-33 -42 -38 44 c-21 24 -39 47
-39 50 0 6 46 13 205 30 163 17 179 19 186 31 10 17 -8 47 -35 59 -16 8 -22
18 -20 34 4 39 25 99 42 117 14 16 12 23 -21 75 l-36 58 27 8 c15 4 37 5 49 2
28 -7 73 11 73 29 0 8 -15 27 -34 44 l-34 30 36 7 c75 13 132 36 132 54 0 29
-22 41 -79 41 -49 0 -62 5 -120 45 -37 24 -81 57 -100 73 l-34 29 29 7 c31 8
54 24 54 37 0 5 -14 24 -31 44 -35 39 -81 48 -98 17z m24 -203 c33 -34 52 -57
41 -52 -11 6 -33 7 -55 2 -69 -16 -81 -13 -81 24 0 22 -8 41 -21 53 -19 17
-19 19 -2 25 40 16 60 8 118 -52z m-201 -26 c15 -25 24 -48 21 -51 -2 -3 -26
-8 -52 -13 -27 -4 -61 -10 -78 -14 -30 -6 -30 -6 12 32 23 21 46 50 52 66 6
15 12 27 15 27 2 0 16 -21 30 -47z m-418 -28 c-21 -50 -20 -97 3 -142 22 -41
39 -143 25 -143 -5 0 -28 7 -52 15 -24 9 -46 13 -50 11 -4 -2 -7 61 -7 140 l0
144 35 6 c19 3 40 7 45 8 17 5 17 0 1 -39z m762 -75 c11 -18 7 -21 -39 -34
-28 -9 -78 -20 -112 -26 -34 -6 -70 -13 -79 -16 -14 -4 -18 1 -18 20 0 21 6
26 38 31 133 21 157 30 153 57 -2 14 45 -13 57 -32z m-458 -64 c25 0 59 3 76
7 25 6 33 5 38 -9 4 -9 5 -18 4 -19 -2 -2 -61 -13 -133 -25 -71 -12 -136 -27
-142 -32 -7 -6 -13 -7 -13 -2 0 5 -3 19 -6 32 -5 17 -2 22 12 22 11 0 30 9 44
20 17 14 33 18 50 14 14 -4 45 -7 70 -8z"/>
<path d="M3188 5537 c-19 -18 -55 -37 -79 -43 -24 -7 -69 -19 -99 -28 -83 -25
-257 -54 -399 -66 -217 -19 -228 -24 -170 -72 54 -46 113 -72 135 -60 21 11
185 39 254 44 l45 3 -2 -184 c-2 -233 -20 -461 -38 -480 -18 -18 -85 -27 -310
-42 -118 -7 -185 -16 -194 -24 -15 -14 -16 -12 64 -76 43 -33 38 -33 195 -14
19 3 94 12 165 20 72 9 180 22 240 30 61 8 168 17 240 19 109 4 131 7 142 22
7 10 13 23 13 29 0 15 -38 65 -73 98 -28 25 -30 25 -65 10 -21 -9 -46 -20 -57
-24 -11 -5 -51 -13 -90 -19 -38 -6 -85 -13 -102 -16 l-33 -6 0 98 c1 55 5 133
10 174 5 41 14 117 20 167 7 71 15 98 30 113 24 24 20 47 -13 93 -13 19 -16
32 -9 39 13 13 213 47 280 48 39 0 54 4 59 16 7 19 -18 67 -61 112 -50 54 -59
55 -98 19z"/>
<path d="M2110 5392 c0 -10 29 -44 65 -76 74 -65 78 -82 50 -190 -17 -64 -12
-99 12 -94 17 3 19 6 57 88 14 31 40 77 57 103 31 47 32 49 16 82 -14 29 -26
36 -125 69 -125 41 -132 42 -132 18z"/>
<path d="M2462 5129 c-20 -33 -67 -106 -103 -162 -37 -56 -100 -165 -141 -242
-46 -87 -83 -144 -96 -150 -30 -14 -28 -37 13 -110 64 -115 76 -106 150 105
28 80 173 407 230 517 9 18 19 48 22 68 5 31 3 35 -16 35 -16 0 -32 -16 -59
-61z"/>
<path d="M1137 4863 c-17 -17 -1 -44 71 -118 42 -44 86 -99 96 -123 27 -60 50
-56 81 15 23 52 24 58 10 80 -9 13 -35 35 -58 49 -23 15 -68 44 -99 65 -55 37
-87 47 -101 32z"/>
<path d="M557 4793 c-3 -10 -8 -39 -12 -64 -4 -31 -14 -53 -30 -67 -29 -25
-31 -53 -7 -102 28 -57 51 -47 95 39 39 78 46 123 26 180 -9 25 -16 31 -39 31
-19 0 -30 -6 -33 -17z"/>
<path d="M884 4448 c-4 -7 -7 -27 -6 -44 2 -19 -10 -60 -28 -98 -16 -37 -30
-69 -30 -71 0 -13 -98 -167 -148 -234 l-33 -43 3 97 c3 89 5 99 25 113 13 8
23 22 23 31 0 20 -62 96 -90 111 -22 12 -50 3 -50 -16 0 -16 -50 -64 -68 -64
-7 0 -31 -9 -53 -19 l-39 -19 -11 21 c-19 37 -62 77 -82 77 -17 0 -19 -5 -14
-37 4 -21 14 -63 22 -93 9 -31 20 -135 26 -242 9 -161 9 -190 -4 -208 -13 -19
-13 -28 -1 -73 7 -28 10 -55 6 -58 -4 -4 -33 -14 -65 -23 -44 -13 -57 -21 -57
-36 0 -21 42 -58 76 -66 26 -7 136 42 189 82 18 13 39 24 48 24 8 0 18 6 21
13 3 6 4 -16 1 -50 -5 -56 -3 -66 21 -103 21 -31 33 -40 55 -40 38 0 44 24 34
158 -8 107 -8 152 -1 159 2 2 20 -6 39 -17 28 -17 40 -19 56 -11 11 6 29 11
41 11 19 0 21 -4 16 -37 -3 -21 -8 -64 -11 -95 -6 -56 -8 -58 -35 -58 -69 0
-77 -23 -24 -70 34 -29 41 -31 88 -26 61 7 186 16 279 20 77 4 77 3 51 -83
-13 -47 -17 -51 -37 -45 -12 4 -37 10 -55 15 -18 4 -38 11 -45 17 -26 20 -75
31 -86 18 -14 -16 -3 -30 45 -54 23 -12 70 -44 105 -72 102 -82 126 -67 169
105 l26 101 83 -14 c45 -7 89 -11 97 -8 22 8 17 47 -12 89 l-26 38 -63 -6 -64
-7 6 128 c3 71 6 130 7 131 0 1 43 6 95 12 51 6 99 15 106 21 18 15 8 43 -25
75 l-29 28 -59 -17 c-89 -25 -86 -28 -78 67 3 45 8 93 11 107 4 21 -2 30 -35
53 -47 32 -63 33 -98 9 -25 -17 -66 -28 -255 -69 -67 -14 -68 -14 -87 9 -24
29 -24 28 3 58 16 18 43 30 102 42 44 10 119 27 166 38 48 11 124 22 170 25
134 10 152 35 69 99 l-49 38 -53 -26 c-74 -36 -298 -80 -298 -58 0 6 11 24 25
40 36 43 32 64 -22 106 -49 38 -67 44 -79 24z m-333 -420 l4 -86 -31 5 c-16 3
-46 1 -66 -5 l-36 -10 -6 77 c-4 42 -8 81 -9 86 -1 6 27 19 63 31 78 25 76 28
81 -98z m248 -117 l2 -130 -48 -6 c-26 -4 -60 -10 -75 -15 l-28 -9 0 85 c0 62
3 84 13 84 7 0 39 27 72 60 33 33 60 60 61 60 1 0 3 -58 3 -129z m402 87 c2
-46 0 -141 -3 -144 -2 -2 -22 -7 -44 -12 -40 -9 -41 -8 -36 15 4 19 -6 35 -43
73 l-48 48 39 11 c22 5 55 14 74 19 53 15 60 14 61 -10z m-217 -107 c20 -32
36 -61 36 -64 0 -5 -12 -8 -87 -22 -28 -5 -28 -5 -30 57 -3 76 0 88 26 88 13
0 31 -19 55 -59z m-440 -63 c3 -18 7 -68 8 -111 3 -76 3 -78 -22 -84 -14 -3
-30 -13 -36 -21 -7 -9 -18 -12 -31 -8 -19 6 -21 16 -25 109 -2 56 -2 107 -1
113 3 9 58 29 90 33 7 0 14 -14 17 -31z m649 -196 l-6 -122 -43 0 -43 0 6 35
c8 52 -12 88 -73 131 -64 43 -60 48 38 59 37 3 80 10 95 14 15 5 29 7 31 6 1
-1 -1 -56 -5 -123z m-214 -12 c33 -50 61 -96 61 -104 0 -14 -99 -29 -126 -19
-11 4 -14 29 -14 109 0 57 4 104 9 104 4 0 36 -41 70 -90z"/>
<path d="M2456 4344 c-3 -9 -6 -33 -6 -54 0 -100 -111 -250 -328 -443 -19 -17
-32 -38 -32 -53 0 -20 5 -24 30 -24 18 0 33 6 37 15 3 9 19 23 35 31 51 26
119 82 242 197 65 62 129 119 142 127 34 21 37 38 15 74 -11 17 -32 54 -47 81
-15 28 -32 53 -38 57 -19 13 -44 9 -50 -8z"/>
<path d="M3132 4230 c-18 -17 -39 -30 -48 -30 -8 0 -29 -7 -47 -17 -35 -18
-60 -25 -190 -53 -49 -10 -94 -23 -101 -29 -7 -6 -15 -8 -19 -5 -3 3 -15 3
-26 -1 -37 -12 -25 -42 30 -74 l50 -28 77 24 c42 13 100 29 127 34 133 29 194
40 243 46 83 9 87 40 17 121 -44 50 -68 53 -113 12z"/>
<path d="M2536 3973 c-56 -129 -203 -300 -403 -472 -50 -42 -63 -60 -63 -82 0
-16 7 -32 17 -37 18 -10 63 19 208 138 l78 64 -6 -226 c-5 -186 -9 -230 -24
-255 -21 -38 -9 -72 46 -132 42 -46 53 -49 79 -23 15 15 16 32 11 167 -9 212
-1 433 17 469 18 37 18 60 -1 76 -23 19 -19 28 41 96 37 43 63 64 78 64 26 0
46 18 45 40 0 8 -15 44 -32 80 -40 81 -66 90 -91 33z"/>
<path d="M3260 3845 c-23 -19 -43 -35 -44 -35 -2 0 -70 -13 -152 -29 -82 -17
-185 -34 -229 -40 -149 -19 -250 -33 -262 -37 -28 -8 -10 -35 47 -74 56 -38
64 -41 108 -34 26 4 58 11 72 16 13 5 58 15 100 23 41 7 82 16 92 20 14 5 17
-3 22 -57 10 -116 17 -498 9 -498 -4 0 -64 33 -132 74 -68 41 -130 72 -137 69
-25 -10 -14 -42 24 -70 59 -43 164 -144 196 -188 36 -51 54 -65 83 -65 20 0
30 13 59 73 l36 72 -2 270 c0 149 1 290 3 315 4 45 5 45 43 47 238 9 261 27
171 136 -22 26 -46 47 -53 47 -6 0 -31 -16 -54 -35z"/>
<path d="M1332 3130 c-13 -25 -39 -42 -110 -76 -51 -24 -101 -44 -112 -44 -10
0 -30 -4 -44 -10 -24 -9 -28 -6 -52 38 -32 55 -70 92 -94 92 -26 0 -31 -26
-11 -52 23 -30 38 -97 51 -231 26 -265 -43 -669 -125 -737 -16 -13 -16 13 -13
359 3 342 4 373 21 382 9 6 17 18 17 27 0 18 -95 142 -109 142 -5 0 -21 -16
-35 -35 -32 -42 -59 -57 -160 -89 l-75 -24 -47 73 c-46 73 -68 93 -80 74 -8
-14 3 -70 25 -121 24 -55 40 -224 38 -400 -2 -122 -4 -139 -21 -151 -20 -15
-19 -26 8 -88 l15 -37 -77 -26 c-100 -35 -107 -39 -107 -67 0 -19 12 -30 58
-53 65 -33 61 -34 162 34 33 22 83 51 110 65 28 14 74 39 103 55 58 33 61 29
37 -39 -8 -23 -11 -49 -8 -59 11 -31 54 -82 69 -82 13 0 13 -3 1 -20 -17 -25
-137 -110 -154 -110 -23 0 -14 -39 10 -45 37 -10 108 28 191 101 101 88 151
163 190 283 l31 96 105 27 c58 15 131 34 163 41 l57 14 1 -31 c1 -78 -3 -351
-5 -354 -2 -2 -44 9 -92 23 -137 41 -134 40 -134 17 0 -15 21 -35 73 -68 39
-26 96 -70 125 -98 62 -60 73 -58 115 25 l28 54 -7 235 c-4 129 -8 264 -9 300
-1 36 -5 144 -10 241 l-8 175 26 27 c15 14 27 31 27 36 0 5 -22 38 -48 73 -58
75 -84 84 -110 38z m13 -222 c4 -40 5 -88 3 -107 l-3 -34 -31 26 c-38 32 -57
34 -93 8 -28 -20 -123 -61 -141 -61 -6 0 -10 35 -10 80 l0 79 43 19 c24 11 64
22 89 26 25 4 54 13 64 21 11 8 31 15 46 15 25 0 26 -2 33 -72z m-622 -165 c3
-54 4 -99 2 -101 -2 -2 -17 6 -33 18 l-30 22 -67 -36 c-38 -20 -69 -35 -70
-34 -2 2 -6 42 -10 89 l-6 85 83 27 c130 41 124 44 131 -70z m630 -242 c-2 -3
-13 5 -26 16 -45 41 -63 45 -94 20 -31 -25 -112 -62 -156 -72 l-28 -6 7 63
c13 117 4 108 155 154 l134 41 6 -106 c3 -58 4 -108 2 -110z m-633 -45 l0
-114 -42 -15 c-24 -9 -67 -26 -95 -38 -29 -13 -56 -20 -59 -16 -4 4 -9 60 -12
125 l-5 119 49 12 c27 7 67 19 89 26 77 26 75 29 75 -99z"/>
<path d="M2670 2321 c-94 -50 -106 -202 -21 -274 99 -83 245 -7 245 127 0 126
-118 204 -224 147z m105 -67 c19 -8 45 -55 45 -84 0 -12 -14 -35 -30 -52 -25
-24 -36 -29 -58 -24 -62 15 -84 95 -37 141 24 25 49 31 80 19z"/>
<path d="M798 1341 c-44 -39 -46 -96 -4 -140 28 -29 28 -31 12 -55 -9 -14 -25
-30 -36 -36 -21 -11 -26 -36 -11 -59 21 -33 134 48 173 123 13 24 22 61 22 89
1 43 -3 52 -32 78 -42 38 -82 38 -124 0z"/>
</g>
</svg>
