<?xml version="1.0" standalone="no"?>
<!DOCTYPE svg PUBLIC "-//W3C//DTD SVG 20010904//EN"
 "http://www.w3.org/TR/2001/REC-SVG-20010904/DTD/svg10.dtd">
<svg version="1.0" xmlns="http://www.w3.org/2000/svg"
 width="680.000000pt" height="1417.000000pt" viewBox="0 0 680.000000 1417.000000"
 preserveAspectRatio="xMidYMid meet">

<g transform="translate(0.000000,1417.000000) scale(0.100000,-0.100000)"
fill="#ffffff" stroke="none">
<path d="M1100 13516 c-14 -8 -63 -21 -110 -31 -47 -9 -103 -21 -125 -26 -39
-9 -151 -21 -359 -39 -138 -11 -158 -36 -62 -79 58 -25 83 -26 222 -5 89 13
108 13 115 2 6 -10 0 -14 -24 -16 -27 -2 -118 -13 -305 -39 -38 -5 -42 -3 -42
17 0 30 -31 80 -50 80 -27 0 -40 -22 -40 -70 0 -84 -20 -156 -46 -171 -38 -20
-41 -53 -8 -102 35 -52 52 -67 70 -60 17 6 48 74 58 124 3 19 15 42 25 51 10
9 20 21 23 28 2 6 26 13 53 15 28 1 79 5 115 9 49 4 56 3 30 -3 -19 -5 -65
-12 -102 -16 -109 -11 -126 -43 -44 -82 35 -17 50 -19 82 -12 21 5 73 17 114
27 66 15 75 20 78 41 5 30 -20 51 -62 52 -28 1 -28 2 9 10 76 15 75 16 75 -56
0 -53 -3 -63 -15 -59 -8 4 -50 -3 -93 -14 -42 -11 -116 -26 -164 -33 -70 -11
-89 -17 -94 -32 -6 -20 11 -47 31 -47 7 0 18 -7 25 -15 17 -20 48 -19 95 5 22
11 44 20 50 20 5 1 45 18 88 39 l77 38 0 -27 c0 -49 78 -95 94 -54 3 8 3 68
-1 134 l-6 118 49 7 c27 3 78 10 114 15 35 5 65 8 67 6 6 -5 -130 -36 -160
-36 -52 0 -47 -52 7 -78 22 -11 41 -11 119 3 50 9 118 16 149 16 49 0 61 4 85
28 15 16 47 40 71 55 23 14 42 31 42 37 0 19 -101 129 -119 129 -9 0 -26 -7
-38 -15 -11 -8 -67 -22 -124 -30 -57 -9 -135 -23 -173 -31 -55 -11 -71 -12
-77 -2 -19 31 12 41 206 67 139 19 149 28 88 85 -42 40 -47 41 -83 22z m150
-230 c0 -1 -5 -17 -11 -35 l-11 -32 -22 19 c-11 11 -37 24 -56 28 l-35 9 50 6
c72 9 85 9 85 5z"/>
<path d="M1143 13146 c-23 -8 -64 -17 -90 -20 -26 -4 -70 -12 -96 -18 -39 -10
-47 -16 -45 -32 2 -11 18 -28 37 -38 30 -17 41 -18 95 -8 33 6 77 13 96 16 33
5 34 4 15 -11 -11 -9 -31 -18 -45 -20 -14 -3 -71 -16 -127 -30 -55 -14 -111
-25 -122 -25 -29 0 -36 -23 -16 -54 12 -18 26 -26 45 -26 24 0 140 18 228 36
29 6 32 4 32 -18 0 -23 -6 -25 -72 -37 -40 -7 -113 -19 -161 -25 -95 -14 -121
-30 -99 -62 21 -32 105 -44 168 -25 44 13 164 34 169 29 11 -11 -127 -69 -210
-89 -49 -12 -93 -26 -97 -33 -10 -15 19 -43 57 -56 25 -8 50 -6 116 9 46 11
85 18 88 16 3 -3 -22 -46 -50 -87 -3 -4 -44 8 -92 27 -48 19 -89 35 -92 35 -2
0 -20 -15 -40 -34 -44 -43 -36 -76 18 -67 4 1 33 -6 64 -15 l56 -16 -24 -19
c-39 -29 -187 -108 -217 -115 -41 -10 -155 -49 -170 -58 -10 -6 -10 -11 -1
-22 36 -43 276 19 437 113 l73 43 60 -43 c33 -23 68 -46 77 -52 10 -5 34 -20
54 -33 37 -23 38 -23 110 -7 92 21 102 26 106 58 4 31 -16 43 -73 46 -41 2
-103 19 -120 33 -5 4 -14 8 -21 8 -7 0 -37 15 -68 32 l-57 33 30 30 c67 68
131 139 131 145 0 11 -41 60 -80 97 l-35 32 47 1 c25 0 53 3 62 6 26 10 18 44
-14 62 -36 21 -38 41 -5 80 32 38 32 59 -1 93 -25 27 -26 27 -5 34 34 10 27
51 -11 75 -38 23 -57 24 -115 6z"/>
<path d="M3023 13111 c-5 -3 -16 -20 -23 -37 -9 -21 -26 -35 -59 -48 -63 -26
-97 -40 -161 -69 -75 -33 -366 -120 -480 -143 -45 -8 -122 -53 -117 -68 8 -22
132 -5 353 49 123 30 170 32 178 8 8 -26 26 -294 21 -303 -3 -4 -42 -11 -87
-15 -46 -4 -130 -13 -188 -21 -58 -8 -162 -18 -233 -21 -131 -6 -152 -13 -145
-50 2 -10 26 -33 53 -51 58 -40 62 -40 295 2 229 40 266 46 284 46 16 0 16
-19 10 -232 -5 -191 -9 -238 -23 -258 -29 -45 -29 -54 6 -122 31 -60 38 -68
63 -68 16 0 35 7 43 15 23 23 31 139 29 422 l-2 262 32 5 c18 3 56 8 83 12 28
4 61 8 75 10 31 5 92 10 243 19 154 10 163 22 83 118 -21 26 -46 47 -55 47
-10 0 -40 -16 -67 -35 -31 -22 -60 -35 -81 -35 -17 0 -35 -4 -38 -10 -3 -5
-20 -9 -38 -8 -18 0 -41 -2 -52 -5 -11 -4 -57 -9 -102 -11 l-82 -5 6 132 c4
97 9 134 19 140 20 12 17 40 -7 68 l-20 23 94 22 c52 12 101 25 108 30 8 5 42
9 77 10 100 1 105 24 24 113 -45 49 -97 77 -119 62z"/>
<path d="M645 12951 c-6 -4 -53 -18 -106 -31 l-97 -23 -31 22 c-17 12 -41 21
-54 19 -25 -3 -25 -5 -9 -148 15 -131 8 -337 -12 -359 -9 -10 -16 -24 -16 -31
0 -21 78 -147 95 -153 8 -4 24 3 35 15 16 18 19 30 14 68 -6 45 -5 46 31 63
20 9 84 24 143 32 187 26 197 33 134 91 -40 37 -68 42 -110 20 -15 -7 -65 -22
-110 -31 -72 -16 -85 -16 -93 -4 -18 28 -8 38 49 49 31 7 71 16 87 20 17 5 50
11 75 15 94 14 107 30 58 76 -33 30 -65 36 -96 20 -17 -10 -94 -33 -144 -45
-23 -5 -28 -3 -28 12 0 20 60 40 210 68 41 7 81 16 88 19 19 7 14 42 -9 59
-21 14 -21 16 -5 65 9 27 16 52 16 55 0 2 -15 14 -34 25 -35 22 -66 27 -81 12z
m-11 -123 c-3 -13 -7 -24 -8 -25 0 0 -38 -10 -84 -21 l-83 -19 3 20 c2 17 18
26 73 43 94 30 108 30 99 2z"/>
<path d="M544 12220 c-5 -5 -7 -38 -4 -75 4 -43 2 -66 -6 -69 -6 -2 -23 -39
-38 -83 -15 -43 -37 -96 -48 -119 l-20 -41 -66 44 c-36 23 -76 43 -89 43 -38
0 -27 -33 25 -77 26 -22 61 -60 77 -84 17 -24 38 -53 48 -64 11 -11 32 -42 47
-69 l29 -49 -20 -39 c-11 -21 -23 -37 -27 -34 -10 6 -202 -22 -229 -34 -15 -6
-23 -18 -23 -34 0 -20 9 -29 46 -46 53 -23 76 -25 107 -8 12 6 35 15 52 19 71
18 215 58 272 77 l61 20 6 -22 c3 -11 6 -34 6 -51 1 -92 38 -100 83 -16 27 50
29 57 17 94 -26 87 -134 227 -157 204 -5 -6 4 -62 20 -121 2 -9 -75 -36 -105
-36 -17 0 -17 2 0 38 51 111 149 280 175 303 25 22 29 31 22 47 -15 30 -104
102 -119 96 -8 -3 -16 -25 -18 -52 -5 -51 -96 -292 -109 -292 -5 0 -9 3 -9 8
0 4 -14 23 -30 42 -16 19 -30 37 -30 40 0 16 157 297 170 305 6 3 10 22 10 42
0 62 -90 129 -126 93z"/>
<path d="M1351 11912 c-28 -19 -130 -62 -150 -62 -7 0 -61 -12 -120 -26 -123
-29 -254 -54 -293 -54 -47 0 -35 -31 25 -62 65 -34 80 -35 191 -2 125 37 119
50 113 -251 -3 -132 -8 -247 -12 -257 -4 -9 -22 -18 -43 -21 -130 -17 -265
-38 -272 -42 -5 -3 -11 14 -15 37 -10 61 -51 143 -86 173 -35 28 -51 31 -68
11 -14 -17 -2 -59 44 -159 17 -37 30 -85 34 -130 5 -62 9 -72 26 -75 15 -2 25
7 38 33 9 20 17 45 17 56 0 19 2 18 50 -6 27 -14 58 -25 70 -25 11 0 87 13
169 29 82 17 182 33 223 36 243 22 223 17 226 46 2 21 -7 37 -43 70 -26 24
-51 46 -56 47 -5 2 -25 -8 -44 -22 -18 -14 -40 -26 -48 -26 -8 0 -31 -7 -52
-16 -59 -24 -65 -16 -65 78 1 46 5 141 10 212 8 118 10 131 31 147 20 15 22
21 12 41 -31 62 -30 64 49 76 40 6 95 14 123 17 27 3 56 12 64 20 12 12 12 17
-3 40 -19 28 -93 85 -110 84 -6 0 -22 -7 -35 -17z"/>
<path d="M2903 11663 c-20 -8 -15 -32 12 -65 23 -27 25 -38 27 -141 9 -401
-24 -687 -96 -826 -7 -14 -24 -46 -36 -71 -13 -25 -33 -58 -44 -73 -27 -37
-154 -164 -183 -184 -13 -8 -23 -24 -23 -34 0 -30 38 -23 107 17 115 68 205
172 283 327 28 55 50 106 50 115 0 16 28 -41 85 -178 15 -36 34 -72 41 -81 8
-8 14 -25 14 -36 0 -31 39 -112 58 -121 9 -5 59 -6 110 -3 95 6 112 14 112 54
0 18 -5 21 -51 31 -33 7 -103 63 -120 96 -8 14 -26 44 -41 66 -45 69 -168 329
-168 357 0 17 8 30 23 38 12 7 40 28 63 48 136 121 179 157 195 163 32 13 40
42 21 79 -35 67 -67 109 -84 109 -18 0 -38 -28 -38 -55 0 -17 -66 -122 -138
-220 l-45 -60 6 145 c8 182 23 320 37 334 23 23 9 53 -49 104 -48 42 -103 76
-114 71 -1 0 -8 -3 -14 -6z"/>
<path d="M2499 11527 c-65 -61 -93 -78 -214 -131 -152 -67 -181 -91 -138 -114
17 -10 137 26 246 72 l37 16 0 -79 0 -79 -47 -7 c-27 -4 -84 -15 -128 -26 -44
-10 -96 -19 -117 -19 -65 0 -56 -43 18 -86 46 -27 47 -27 98 -11 104 33 127
39 133 34 6 -7 -16 -78 -28 -91 -5 -6 -9 -17 -9 -25 -1 -47 -154 -296 -252
-409 -30 -36 -36 -69 -13 -78 17 -7 95 57 130 106 14 19 40 54 58 76 17 23 59
78 92 122 33 45 63 81 67 81 6 1 17 -445 10 -466 -2 -8 -29 0 -80 24 -101 47
-122 51 -122 26 0 -23 18 -40 80 -76 25 -14 72 -53 105 -86 60 -62 91 -75 114
-47 12 15 14 400 3 614 -4 67 -6 122 -5 122 8 0 116 -145 130 -174 19 -41 48
-47 57 -13 3 12 6 51 6 85 0 59 -2 66 -32 95 -18 16 -61 43 -95 59 -35 15 -63
34 -63 41 0 6 -3 22 -6 34 -6 23 11 28 153 52 64 10 62 14 70 -164 4 -105 9
-137 26 -167 37 -67 77 -42 77 49 0 72 18 166 47 250 30 88 22 108 -25 62 -18
-17 -32 -36 -32 -43 -1 -6 -17 19 -36 57 -25 49 -40 67 -54 67 -12 0 -23 -7
-27 -16 -5 -13 -10 -11 -32 10 l-26 25 -63 -26 c-35 -14 -65 -23 -66 -21 -2 1
-6 38 -10 80 l-7 77 70 21 c75 23 98 40 84 63 -23 39 -82 97 -99 97 -10 -1
-49 -29 -85 -63z"/>
<path d="M463 11343 c-19 -7 -16 -33 10 -89 24 -50 41 -108 52 -179 12 -73 46
-86 90 -33 24 28 26 38 21 76 -7 54 -43 121 -97 185 -39 45 -50 51 -76 40z"/>
<path d="M284 11316 c-3 -8 1 -25 9 -38 26 -42 36 -129 22 -199 -8 -41 8 -111
29 -129 20 -16 50 2 64 37 15 39 22 191 11 220 -5 14 -28 47 -51 74 -41 49
-74 62 -84 35z"/>
<path d="M871 10916 c-9 -11 -9 -20 -2 -35 15 -27 14 -57 -2 -89 -8 -15 -27
-54 -42 -86 -28 -56 -161 -266 -170 -266 -2 0 -1 42 2 93 3 61 10 96 19 103 8
6 14 17 14 23 0 27 -84 91 -119 91 -11 0 -27 -12 -37 -28 -17 -30 -60 -57
-106 -68 -24 -5 -29 -1 -49 38 -25 50 -38 61 -56 46 -17 -14 -16 -35 3 -105
23 -87 30 -404 10 -461 -11 -31 -13 -49 -5 -69 13 -36 1 -46 -62 -49 -29 -2
-54 -6 -57 -8 -2 -3 -2 -20 2 -39 5 -25 16 -39 45 -55 51 -29 64 -28 116 8 24
17 48 30 53 30 5 0 33 13 63 30 30 16 57 30 62 30 11 0 8 -98 -3 -105 -19 -12
-9 -40 29 -82 75 -83 95 -53 87 131 -3 72 -7 183 -9 246 l-3 115 28 23 28 23
9 -24 c16 -42 25 -164 12 -171 -19 -12 -12 -40 25 -99 41 -66 71 -76 81 -26 6
33 19 42 53 37 21 -3 20 -6 -19 -83 -50 -99 -81 -137 -194 -235 -64 -56 -101
-81 -132 -89 -52 -13 -61 -24 -38 -46 33 -34 133 3 260 96 64 48 169 182 211
269 l31 65 0 -170 c1 -150 3 -174 21 -202 10 -17 27 -36 37 -41 31 -16 98 -22
134 -12 19 6 85 13 148 16 63 3 122 9 132 15 22 11 33 64 25 116 -3 21 -12 83
-20 138 -8 55 -15 101 -15 103 -1 1 -8 2 -16 2 -18 0 -16 8 -21 -75 -4 -73
-27 -162 -47 -187 -7 -9 -46 -20 -92 -27 -100 -14 -127 -14 -160 1 l-26 11 2
146 c1 80 6 152 12 159 5 6 13 27 16 45 6 30 10 32 61 39 30 3 81 6 113 7 70
1 83 19 42 61 -26 27 -27 29 -15 87 15 71 25 92 58 119 25 21 26 22 9 47 -32
49 -79 97 -95 97 -8 0 -31 -12 -49 -26 -19 -14 -56 -32 -82 -39 l-48 -12 43
66 c23 36 53 79 66 95 42 52 42 53 -8 106 -26 27 -53 50 -60 50 -7 0 -22 -13
-33 -29 -16 -21 -40 -35 -89 -51 -37 -12 -73 -24 -81 -26 -7 -2 -2 11 13 30
32 43 32 56 1 105 -40 64 -88 88 -114 57z m211 -294 c-9 -22 -27 -52 -40 -67
-22 -28 -23 -28 -55 -13 -55 26 -75 3 -38 -44 l20 -25 -77 -11 c-128 -20 -150
-14 -109 30 13 13 40 45 61 71 29 35 45 47 65 47 15 0 59 11 97 25 94 33 97
33 76 -13z m-532 -69 c0 -21 3 -62 7 -92 5 -40 3 -52 -6 -47 -6 4 -32 0 -56
-10 -25 -9 -47 -15 -49 -13 -2 2 -6 41 -9 86 -5 81 -5 81 22 92 14 5 37 12 51
14 14 2 28 5 33 6 4 0 7 -16 7 -36z m687 -213 l-13 -64 -78 -14 c-42 -8 -80
-12 -83 -9 -3 3 3 38 13 77 20 77 16 74 129 98 49 10 51 4 32 -88z m-272 -25
c-7 -42 -14 -77 -16 -79 -2 -2 -29 -7 -60 -10 l-55 -7 -12 63 c-6 34 -8 66 -4
69 5 6 92 27 153 38 3 1 0 -33 -6 -74z m-406 -83 l2 -98 -41 -13 c-23 -7 -48
-15 -56 -18 -11 -4 -14 13 -14 94 l0 99 48 16 c26 9 50 17 53 17 3 1 6 -43 8
-97z"/>
<path d="M3080 10163 c-38 -51 -113 -92 -335 -183 -113 -46 -141 -62 -143 -79
-7 -43 57 -38 205 19 l73 28 6 -33 c11 -61 5 -68 -71 -81 -182 -33 -198 -41
-168 -83 25 -36 56 -42 131 -26 37 9 77 20 90 25 22 10 23 9 20 -37 l-3 -47
-74 -17 c-47 -11 -83 -14 -95 -9 -39 16 -78 48 -67 54 15 9 3 36 -32 74 -37
39 -46 39 -103 6 l-44 -26 0 65 c0 36 5 69 11 72 6 4 7 19 4 35 -6 26 -3 29
32 40 136 42 145 53 96 116 -35 42 -63 44 -112 5 -40 -32 -229 -131 -252 -132
-8 0 -39 -12 -69 -27 -39 -19 -56 -34 -58 -50 -5 -36 21 -36 128 2 l101 35 9
-25 c6 -14 10 -54 10 -89 l0 -64 -32 -5 c-18 -3 -60 -11 -93 -17 -33 -6 -77
-14 -98 -16 -43 -6 -66 -35 -47 -58 13 -15 76 -39 100 -37 8 0 43 7 77 15 l61
15 -25 -67 c-32 -85 -110 -233 -176 -330 -50 -74 -60 -112 -37 -135 11 -11 51
22 84 70 48 72 179 254 180 252 5 -10 -11 -448 -16 -453 -3 -4 -31 5 -61 19
-61 29 -80 32 -95 13 -13 -16 -7 -24 39 -59 20 -15 53 -49 72 -76 24 -32 47
-52 70 -59 72 -22 77 0 84 378 l6 318 43 -57 c73 -97 78 -103 91 -94 15 9 36
109 28 131 -3 9 -20 26 -38 38 -122 83 -127 87 -127 109 0 18 7 24 33 29 17 3
53 9 78 14 43 7 47 6 47 -13 0 -12 10 -48 22 -81 19 -51 23 -82 24 -206 1
-142 2 -147 29 -188 21 -32 34 -41 50 -39 17 2 23 11 25 35 3 29 8 33 57 47
29 9 56 16 59 16 3 0 6 -22 6 -48 l0 -49 -75 -16 c-41 -9 -108 -20 -147 -23
-40 -4 -79 -11 -85 -16 -21 -17 2 -42 57 -62 53 -19 60 -19 178 8 l62 14 0
-69 0 -68 -32 -5 c-18 -3 -103 -11 -188 -16 -85 -6 -160 -16 -167 -22 -16 -13
-6 -28 40 -60 32 -23 92 -26 172 -8 39 8 408 36 577 43 133 5 150 34 68 111
-27 25 -55 46 -62 46 -7 0 -30 -11 -50 -25 -35 -24 -162 -54 -228 -55 -24 0
-25 2 -27 69 l-1 69 74 11 c41 6 96 11 122 11 72 0 120 11 127 28 3 9 -11 31
-40 58 -49 47 -79 55 -118 29 -13 -8 -48 -19 -78 -25 -30 -6 -62 -13 -71 -16
-16 -5 -18 2 -18 49 l0 54 43 7 c23 3 93 9 155 13 80 4 115 10 119 19 3 8 -19
35 -49 63 -43 40 -51 52 -40 62 6 7 12 22 12 32 0 10 10 50 22 87 16 49 29 72
45 79 34 16 28 43 -23 105 -48 59 -67 68 -83 38 -8 -16 -166 -82 -194 -82 -4
0 -7 20 -7 43 l0 44 93 21 c50 12 135 25 187 28 106 7 130 16 130 45 0 26 -77
109 -102 109 -11 0 -33 -11 -50 -25 -16 -14 -42 -27 -56 -31 -15 -3 -52 -12
-82 -21 -30 -8 -70 -18 -87 -20 -36 -6 -39 3 -27 77 6 34 9 37 67 53 34 10 86
23 116 30 80 18 84 33 26 101 -56 64 -82 71 -115 29z m66 -565 c-3 -13 -6 -41
-6 -63 l-1 -40 -20 28 c-25 32 -47 34 -91 7 -46 -28 -50 -26 -46 22 l3 43 55
11 c30 7 68 12 84 13 25 1 28 -2 22 -21z m-262 -44 c3 -9 6 -28 6 -43 0 -26
-4 -29 -47 -34 -27 -4 -58 -9 -70 -13 -19 -5 -23 -1 -29 30 -3 21 -3 40 1 44
6 6 87 26 121 31 7 0 15 -6 18 -15z m242 -136 c-3 -13 -6 -28 -6 -33 0 -12
-77 -35 -115 -35 -22 0 -25 4 -25 35 0 32 3 35 38 40 20 4 42 8 47 10 6 2 23
4 39 4 25 1 28 -2 22 -21z m-236 -62 c0 -33 0 -33 -56 -40 -31 -4 -58 -5 -59
-4 -1 2 -5 20 -8 41 l-6 37 65 0 64 0 0 -34z"/>
<path d="M997 9626 c-3 -8 1 -35 9 -62 22 -72 19 -113 -8 -119 -13 -3 -52 -12
-88 -20 -36 -8 -84 -15 -108 -15 -84 0 -108 -36 -46 -68 29 -15 39 -29 54 -73
26 -77 40 -162 40 -242 0 -97 40 -168 85 -151 8 3 17 16 21 27 8 24 32 46 52
47 7 0 12 -14 12 -39 0 -44 -10 -51 -70 -51 -20 0 -54 -7 -73 -15 -20 -8 -52
-15 -71 -15 -77 0 -88 -32 -26 -75 43 -30 51 -29 166 1 18 5 25 -2 42 -38 11
-24 25 -67 31 -96 15 -72 37 -104 70 -100 22 3 27 9 33 48 3 25 22 75 41 112
30 57 33 69 21 79 -16 13 -33 3 -69 -38 l-21 -23 -38 39 -38 39 33 6 c19 4 66
14 104 22 39 8 88 19 110 24 22 5 43 6 47 4 4 -2 21 -30 39 -62 36 -63 46 -73
66 -65 14 6 53 82 53 105 0 16 -73 88 -147 146 -47 36 -50 40 -30 46 12 3 34
6 48 6 37 0 43 24 14 58 -23 27 -23 30 -11 96 7 37 23 80 35 96 11 16 21 33
21 37 0 4 -16 30 -35 57 -19 27 -35 53 -35 57 0 5 33 9 73 11 69 3 72 4 72 27
0 18 -13 34 -47 58 l-47 33 -88 -29 c-49 -16 -107 -31 -130 -34 -42 -5 -43 -4
-43 23 0 16 5 32 10 35 16 10 12 23 -17 50 -25 24 -84 55 -103 55 -4 0 -10 -6
-13 -14z m289 -225 c-6 -9 -103 -46 -148 -55 -22 -5 -25 -3 -21 13 5 19 28 27
108 37 22 3 42 7 44 10 8 8 22 4 17 -5z m-266 -70 c0 -15 -12 -21 -61 -30 -46
-8 -65 -7 -80 2 -18 11 -12 14 48 29 89 21 93 21 93 -1z m235 -98 c-4 -21 -8
-40 -10 -42 -2 -2 -16 6 -30 18 -25 19 -29 19 -62 6 -45 -19 -45 -19 -41 8 2
18 13 24 63 33 92 18 88 19 80 -23z m-231 -20 c4 -9 1 -20 -6 -24 -18 -12 -88
-22 -96 -15 -12 12 15 41 44 47 47 11 52 10 58 -8z m216 -103 c0 -19 -10 -23
-103 -44 -26 -6 -28 -5 -22 16 10 30 9 29 47 38 59 14 78 12 78 -10z m-217
-41 c4 -15 -1 -22 -19 -30 -45 -17 -61 -11 -66 21 -4 29 -4 30 38 30 34 0 43
-4 47 -21z m187 -92 c0 -8 11 -24 25 -37 33 -31 21 -41 -60 -47 l-66 -6 3 44
c3 42 5 44 38 50 56 10 60 10 60 -4z"/>
<path d="M649 9514 c-20 -21 -195 -114 -216 -114 -3 0 -32 -10 -64 -21 -50
-18 -59 -26 -59 -46 0 -34 23 -38 78 -15 26 10 63 22 84 25 31 5 37 2 42 -16
8 -31 7 -85 -1 -90 -5 -3 -64 -13 -133 -22 -134 -19 -155 -27 -141 -54 12 -22
125 -65 148 -57 10 4 37 11 61 15 40 8 42 7 36 -13 -19 -61 -121 -244 -188
-336 -42 -58 -75 -112 -74 -120 2 -8 13 -16 24 -18 24 -3 122 96 194 197 85
119 79 117 81 26 3 -98 -2 -339 -7 -344 -1 -2 -24 4 -50 13 -61 20 -74 20 -74
-1 0 -21 162 -173 184 -173 36 0 41 36 46 365 l5 320 74 -74 c85 -85 104 -86
109 -10 4 75 -18 99 -130 140 -48 17 -58 24 -58 44 0 21 6 25 48 30 131 17
147 30 111 87 -29 45 -70 50 -115 16 -49 -39 -55 -34 -52 39 l3 66 75 32 c42
18 76 39 78 47 4 21 -55 88 -77 88 -10 0 -28 -12 -42 -26z"/>
<path d="M2716 8734 c-20 -20 -21 -17 18 -57 38 -39 48 -82 66 -273 6 -60 13
-119 15 -131 5 -20 -2 -23 -93 -43 -53 -12 -103 -23 -110 -26 -18 -6 -15 123
4 153 12 20 12 24 -6 40 -19 18 -18 19 48 42 100 35 102 41 34 118 -61 69 -94
80 -100 33 -5 -33 -16 -45 -76 -85 -63 -41 -149 -86 -283 -148 -101 -46 -118
-62 -90 -86 15 -12 109 14 179 50 20 10 47 19 58 19 12 0 39 10 61 23 51 29
56 21 58 -92 l1 -88 -103 -26 c-109 -29 -214 -52 -287 -65 -35 -6 -46 -12 -48
-28 -4 -28 16 -42 87 -60 57 -15 64 -15 123 4 35 11 81 24 103 28 22 3 52 13
67 20 52 27 56 22 56 -69 l0 -83 -71 -28 c-333 -134 -374 -156 -360 -192 5
-15 92 -64 113 -64 10 0 94 49 193 112 59 38 118 70 122 66 6 -6 10 -137 7
-230 l-2 -87 -107 55 c-109 55 -127 61 -138 44 -10 -16 25 -70 52 -81 36 -13
152 -114 180 -154 12 -18 28 -35 35 -38 36 -13 78 47 78 111 0 35 2 39 23 35
36 -7 229 102 306 174 l35 31 18 -23 c10 -13 18 -27 18 -32 0 -18 164 -177
222 -217 63 -42 137 -58 177 -37 18 10 21 20 21 79 0 38 -4 72 -10 78 -11 11
-33 191 -25 205 11 16 -6 49 -24 49 -13 0 -21 -17 -34 -72 -9 -40 -18 -99 -21
-132 -3 -32 -7 -60 -9 -63 -18 -18 -199 143 -231 205 l-17 33 55 67 c99 122
128 152 145 152 22 0 41 19 41 42 0 9 -23 52 -51 93 -40 59 -57 75 -73 73 -17
-2 -22 -13 -27 -50 -9 -61 -116 -268 -139 -268 -10 0 -24 61 -54 226 l-21 120
50 12 c27 6 97 19 155 28 131 21 129 20 137 40 6 17 -68 100 -99 110 -10 3
-30 -3 -46 -14 -15 -10 -68 -33 -119 -49 l-91 -31 -7 146 c-7 125 -5 149 9
173 30 50 21 63 -86 123 -53 30 -90 33 -112 10z m118 -590 c3 -9 6 -29 6 -45
0 -44 38 -224 63 -296 l21 -63 -25 -26 c-13 -14 -80 -67 -149 -117 -69 -49
-131 -94 -138 -100 -10 -8 -12 27 -10 178 l3 189 60 32 c33 18 80 43 105 56
45 23 61 51 42 70 -11 11 -88 -14 -162 -52 -22 -11 -42 -20 -45 -20 -3 0 -5
34 -5 75 0 73 1 75 28 81 23 5 135 38 167 49 22 7 33 4 39 -11z"/>
<path d="M1260 8714 c0 -10 29 -46 65 -80 35 -35 73 -81 85 -104 32 -63 71
-53 84 23 10 53 -8 77 -94 127 -84 49 -140 63 -140 34z"/>
<path d="M731 8663 c-5 -21 -15 -58 -21 -83 -7 -25 -23 -57 -37 -72 -18 -19
-23 -32 -18 -48 12 -39 47 -90 60 -90 16 0 71 112 89 182 l13 50 29 -39 c47
-63 132 -133 203 -166 51 -23 85 -31 148 -35 143 -8 155 4 123 119 -11 41 -20
86 -20 102 0 35 -27 48 -46 22 -9 -12 -14 -45 -14 -87 l0 -67 -32 5 c-18 3
-77 19 -130 35 -93 28 -101 33 -177 105 -45 43 -85 73 -92 69 -6 -4 -17 2 -25
14 -23 32 -42 26 -53 -16z"/>
<path d="M3045 8660 c-10 -17 5 -49 29 -63 40 -21 146 -150 182 -219 37 -73
45 -81 68 -72 17 7 32 48 41 114 6 42 4 47 -32 84 -45 46 -235 166 -263 166
-10 0 -22 -5 -25 -10z"/>
<path d="M4489 8466 c-166 -44 -259 -227 -259 -506 0 -105 -1 -109 -22 -112
-20 -3 -23 -10 -26 -51 -4 -57 9 -77 49 -77 17 0 29 -5 29 -12 0 -28 64 -145
98 -181 33 -35 80 -67 97 -67 8 0 0 195 -10 233 -6 23 -4 27 12 27 15 0 22 11
31 48 6 26 14 55 17 65 6 15 1 17 -45 17 l-52 0 4 173 c4 139 9 184 26 238 70
216 212 126 240 -151 7 -68 9 -75 27 -70 11 3 53 5 93 5 l73 0 -7 45 c-28 202
-113 338 -235 374 -62 19 -78 19 -140 2z"/>
<path d="M5170 8467 c-62 -17 -108 -47 -162 -105 -52 -55 -65 -86 -48 -107 19
-23 43 -18 91 19 120 91 229 60 229 -66 0 -74 -40 -120 -165 -190 -47 -26 -61
-40 -63 -60 -5 -38 25 -52 79 -38 23 6 60 10 84 9 36 -2 48 2 86 35 24 21 60
46 79 56 l35 18 -28 11 c-16 6 -36 11 -45 11 -11 0 -3 13 25 43 76 77 100 166
68 245 -42 98 -156 149 -265 119z"/>
<path d="M4723 7960 c-29 -17 -33 -25 -33 -65 0 -37 -3 -45 -19 -45 -14 0 -21
-12 -30 -57 -14 -73 -15 -73 10 -73 19 0 21 -4 14 -37 -3 -21 -15 -58 -26 -82
-20 -46 -23 -70 -13 -119 l6 -31 37 18 c61 32 122 111 156 204 16 43 20 47 51
47 19 0 34 3 34 8 -1 16 -21 98 -29 117 -5 11 -14 34 -21 52 -26 68 -85 96
-137 63z"/>
<path d="M5370 7902 c-21 -10 -34 -24 -34 -35 1 -10 -5 -17 -17 -17 -10 0 -30
-5 -44 -12 -19 -9 -28 -9 -37 0 -8 8 -47 12 -106 12 -86 0 -94 -2 -87 -17 3
-10 11 -39 17 -65 l11 -48 144 0 c159 0 156 1 128 -67 -41 -97 -119 -150 -206
-140 -51 6 -59 -2 -59 -65 l0 -28 77 0 c70 0 81 3 140 37 57 34 62 39 44 47
-44 20 -20 57 67 105 67 36 87 52 102 81 7 14 20 30 28 36 8 6 17 34 20 62 4
42 1 53 -12 58 -9 3 -16 15 -16 26 0 12 -12 24 -35 34 -46 19 -82 18 -125 -4z"/>
<path d="M825 7841 c-64 -28 -80 -109 -31 -160 32 -33 27 -53 -20 -90 -20 -16
-25 -26 -20 -46 11 -42 50 -30 124 39 76 70 101 182 52 231 -28 27 -74 39
-105 26z"/>
<path d="M1111 7025 c-34 -15 -59 -21 -236 -49 -55 -9 -137 -23 -182 -31 -45
-8 -108 -15 -141 -15 -76 0 -95 -18 -59 -54 33 -33 84 -41 167 -27 90 14 143
14 138 -1 -6 -16 -84 -38 -138 -38 -25 0 -77 -3 -117 -6 -68 -5 -71 -5 -78 18
-4 13 -21 40 -37 60 -41 52 -60 42 -57 -31 3 -65 -17 -128 -42 -134 -33 -9
-34 -53 -4 -97 33 -48 69 -54 87 -15 l11 25 34 -26 34 -25 72 17 c40 10 104
25 142 34 79 20 91 37 54 76 -20 21 -21 26 -9 34 37 23 50 5 50 -66 0 -41 -2
-44 -27 -44 -16 0 -80 -14 -143 -30 -63 -17 -139 -33 -167 -37 -95 -11 -95
-51 -1 -79 60 -18 60 -19 32 -30 -25 -11 -31 -9 -51 12 -22 24 -47 24 -56 1
-2 -7 4 -44 14 -82 12 -41 17 -85 14 -108 -3 -24 0 -48 10 -67 18 -34 14 -36
-19 -15 -20 14 -25 14 -35 1 -10 -11 -10 -24 -3 -48 6 -18 13 -69 17 -113 3
-44 8 -87 11 -97 5 -18 -10 -23 -113 -33 -56 -6 -63 -9 -63 -28 0 -16 16 -31
60 -55 56 -30 63 -32 101 -22 23 6 49 15 58 20 9 4 41 15 72 24 31 9 73 28 94
42 21 14 56 29 79 33 73 15 136 48 136 72 0 19 -4 20 -42 14 -59 -9 -120 -27
-135 -38 -10 -7 -13 -3 -13 16 0 14 -3 32 -6 40 -7 19 14 27 117 41 l86 13 12
-83 c6 -46 9 -94 5 -108 -7 -28 20 -92 47 -109 14 -9 15 -14 7 -25 -9 -10 -7
-21 7 -44 15 -26 17 -44 12 -116 -4 -46 -8 -87 -11 -89 -5 -6 -116 -28 -181
-37 -101 -14 -109 -28 -43 -76 46 -34 67 -36 128 -15 23 8 44 15 46 15 12 0 0
-42 -32 -105 -43 -89 -104 -153 -218 -229 -59 -39 -86 -63 -86 -77 0 -25 34
-24 75 1 17 10 50 29 75 42 25 12 66 37 91 55 46 33 47 33 53 10 3 -12 6 -50
6 -84 l0 -62 -32 -5 c-108 -15 -283 -31 -376 -34 -48 -2 -64 -6 -69 -19 -8
-22 58 -83 91 -83 23 0 141 14 211 25 l30 4 -35 -30 c-37 -32 -146 -109 -155
-109 -3 0 -24 -15 -48 -32 -24 -18 -76 -49 -115 -68 -39 -19 -71 -41 -72 -47
0 -20 48 -27 93 -13 80 23 307 148 440 241 l27 20 0 -95 c0 -52 -4 -98 -10
-101 -19 -12 -10 -42 26 -89 24 -31 33 -53 29 -66 -3 -10 1 -33 9 -49 9 -17
16 -44 16 -60 0 -35 0 -35 -182 -51 -64 -6 -123 -12 -130 -15 -7 -2 -28 18
-48 48 -20 28 -44 53 -54 55 -16 4 -18 -1 -12 -35 16 -94 26 -223 21 -278 -12
-129 -27 -235 -51 -340 -35 -163 -66 -236 -155 -373 -78 -120 -57 -168 33 -74
43 45 128 163 128 178 0 4 14 38 31 74 l31 68 45 -26 c56 -31 84 -31 154 1 30
14 77 34 104 44 45 17 51 18 51 4 0 -9 4 -44 8 -78 l8 -62 -34 -6 c-18 -3 -76
-10 -128 -16 -52 -6 -120 -14 -150 -18 -77 -9 -79 -30 -6 -66 l56 -27 116 16
c63 10 122 20 130 23 11 4 14 -5 14 -36 0 -26 -5 -41 -12 -41 -7 0 -71 -7
-143 -14 -71 -8 -183 -18 -248 -21 -88 -6 -120 -11 -124 -22 -9 -23 24 -49 85
-67 53 -16 64 -17 152 -2 192 30 354 41 676 44 182 2 203 4 209 19 4 13 -8 31
-44 66 -44 41 -53 46 -71 37 -11 -6 -87 -15 -168 -20 -81 -6 -164 -12 -184
-14 l-38 -4 0 42 0 43 178 14 c172 14 177 15 180 37 3 16 -8 33 -34 57 -39 36
-62 43 -81 24 -10 -10 -167 -39 -215 -39 -18 0 -28 5 -28 15 0 8 4 15 9 15 17
0 23 40 9 57 -7 9 -33 28 -57 43 l-44 28 44 27 c47 30 61 44 53 57 -8 13 -45
9 -112 -12 -82 -26 -92 -25 -92 4 0 26 23 34 150 54 55 9 64 35 26 72 l-26 23
-69 -16 c-86 -21 -81 -22 -81 7 0 26 12 30 132 42 l66 7 6 -44 c3 -24 8 -84
12 -134 9 -135 28 -163 122 -179 50 -9 291 12 345 30 69 23 76 50 34 144 -8
19 -23 56 -32 83 -12 33 -22 47 -35 47 -26 0 -32 -27 -25 -103 6 -61 5 -66
-16 -78 -13 -7 -80 -18 -149 -26 -116 -13 -126 -12 -137 4 -25 33 -15 53 35
73 26 11 68 31 95 45 26 15 47 21 47 15 0 -6 10 -10 23 -8 35 5 36 72 2 118
l-26 35 41 3 c50 4 55 31 10 63 -29 22 -29 23 -14 58 8 20 24 45 34 57 29 29
25 43 -22 91 l-42 43 61 0 c34 0 68 3 77 6 44 17 -19 124 -73 124 -15 0 -31
-4 -36 -9 -23 -20 -117 -42 -212 -49 -102 -8 -103 -7 -103 15 0 12 5 25 10 28
6 3 10 17 10 31 0 21 -9 29 -51 46 -43 18 -49 24 -43 42 5 17 11 147 14 301 0
15 12 8 58 -36 31 -30 103 -97 160 -148 98 -88 104 -91 138 -85 20 4 70 9 112
13 75 6 77 7 80 33 4 32 -11 41 -97 58 -79 15 -190 67 -237 110 -23 21 -59 49
-80 63 -22 14 -49 36 -62 50 -21 22 -21 25 -6 31 10 4 90 9 178 12 89 3 175 7
193 10 50 7 49 30 -3 81 -39 37 -51 44 -73 38 -14 -3 -44 -10 -66 -16 -22 -5
-83 -13 -135 -18 -52 -5 -110 -13 -127 -16 l-33 -7 0 41 c0 23 5 51 11 62 8
17 5 25 -23 53 -18 18 -40 35 -48 38 -11 3 -6 14 19 44 30 37 80 141 95 198 4
18 16 28 44 35 72 20 69 27 47 -120 -17 -114 -11 -159 30 -203 23 -25 29 -26
117 -25 183 1 254 25 252 85 -4 85 -23 217 -33 227 -19 19 -34 -8 -42 -75 -6
-52 -12 -67 -38 -90 -32 -28 -79 -45 -146 -50 l-40 -3 -3 50 c-6 87 41 245 73
245 31 0 16 48 -27 84 -46 40 -71 45 -90 18 -17 -24 -33 -33 -74 -42 -25 -6
-34 -4 -34 5 0 17 19 76 35 105 19 36 4 63 -57 104 -29 20 -47 36 -40 36 6 0
12 11 12 25 0 22 4 25 33 25 35 0 230 27 260 36 24 8 22 51 -3 59 -18 6 -20
12 -15 58 8 72 13 89 29 111 14 17 16 17 38 2 28 -20 58 -20 100 -2 18 8 45
17 60 21 33 6 49 32 38 61 -7 17 -20 23 -67 28 -68 8 -154 36 -224 73 l-51 26
59 59 c32 33 68 64 80 69 12 4 25 20 29 34 5 22 -1 34 -37 71 -46 47 -63 53
-88 30 -9 -8 -39 -24 -67 -35 l-52 -20 -4 29 c-4 27 -2 30 31 35 20 4 55 10
78 16 23 5 56 9 73 9 18 0 33 6 36 15 7 18 -34 82 -57 88 -9 2 -49 -6 -90 -18
-41 -12 -110 -33 -154 -45 -44 -13 -83 -28 -88 -34 -4 -6 8 -23 28 -41 l36
-31 -48 -70 c-26 -39 -69 -95 -95 -125 l-47 -54 -25 24 c-22 21 -25 30 -20 60
4 20 15 44 25 54 23 21 15 42 -31 80 l-30 26 -55 -20 c-30 -10 -60 -19 -67
-19 -20 1 33 27 114 57 40 14 81 33 91 42 17 14 18 13 12 -34 -5 -40 -2 -56
15 -83 23 -38 46 -49 69 -35 13 8 16 30 16 121 0 61 3 113 6 116 3 3 19 0 36
-6 26 -10 51 -7 155 16 143 33 160 43 136 84 -22 35 -64 40 -137 13 -31 -11
-86 -26 -123 -34 -64 -13 -68 -13 -68 5 0 10 1 18 3 18 1 0 29 5 62 10 33 6
76 13 95 15 19 2 67 8 105 14 39 6 82 11 97 11 l27 0 -14 -40 c-12 -35 -12
-41 1 -55 9 -8 18 -15 21 -15 8 0 126 93 140 110 17 21 7 50 -30 83 -48 43
-68 48 -128 31 -56 -15 -143 -34 -169 -36 -8 0 -59 -9 -112 -18 -75 -13 -98
-15 -98 -5 0 7 24 17 58 23 116 22 190 32 229 32 69 0 82 36 32 88 -34 35 -57
39 -108 17z m-466 -311 c-39 -14 -88 -26 -168 -39 -65 -10 -33 11 35 24 35 7
79 16 98 21 57 13 78 10 35 -6z m465 -338 l-45 -44 -44 20 c-46 21 -43 37 9
38 14 1 45 9 70 19 25 11 47 17 50 15 2 -3 -16 -24 -40 -48z m-470 -16 c0 -34
-16 -45 -82 -55 l-48 -7 0 31 c0 17 6 33 13 35 32 9 93 24 105 25 7 0 12 -11
12 -29z m321 -70 c10 -6 19 -14 19 -19 0 -10 -66 -55 -150 -102 l-65 -36 -27
20 c-27 20 -29 20 -63 4 -49 -24 -52 -22 -57 23 -4 44 -5 44 77 55 28 4 56 12
64 18 9 8 8 2 -3 -15 -18 -28 -15 -48 8 -48 7 0 32 15 56 33 114 86 109 84
141 67z m165 -125 c-15 -16 -54 -32 -118 -49 -120 -32 -151 -26 -79 15 169 96
151 89 186 72 l32 -15 -21 -23z m-597 -120 c-1 -82 -4 -94 -20 -98 -26 -7 -33
25 -27 115 5 66 19 95 41 81 4 -2 7 -47 6 -98z m603 -67 l-4 -58 -33 0 c-18 0
-56 -5 -84 -12 -28 -6 -53 -10 -55 -7 -2 2 -6 24 -10 49 l-7 45 43 13 c91 27
143 38 149 33 3 -3 3 -32 1 -63z m78 -1753 c0 -8 -65 -32 -108 -40 -37 -6 -40
-5 -35 14 3 11 15 22 27 24 31 6 116 8 116 2z m-242 -32 c4 -24 -4 -27 -95
-38 -51 -5 -53 -5 -53 19 0 21 6 25 58 34 75 13 86 11 90 -15z m-248 -27 c0
-26 -4 -27 -97 -41 -41 -6 -43 -6 -43 18 0 24 4 26 58 32 31 4 62 8 67 10 6 2
11 4 13 4 1 1 2 -10 2 -23z m490 -62 c0 -3 -5 -25 -11 -50 l-11 -44 -53 0
c-30 0 -61 -3 -70 -6 -14 -6 -16 0 -13 42 l3 49 65 3 c35 2 67 5 69 8 6 6 21
5 21 -2z m-245 -66 c-4 -24 -8 -44 -9 -44 0 -1 -29 -4 -63 -8 l-63 -7 0 40 c0
43 -6 40 90 54 53 9 52 10 45 -35z m-235 -27 l0 -38 -80 -9 -80 -10 0 46 0 45
80 2 80 2 0 -38z m480 -105 c0 -8 -30 -42 -67 -76 -76 -69 -86 -67 -81 22 3
60 11 65 101 67 34 1 47 -3 47 -13z m-561 -52 c2 -2 6 -45 10 -95 l7 -92 -31
-12 c-16 -7 -52 -16 -79 -20 l-49 -8 5 29 c3 16 14 70 24 120 l18 91 45 -5
c25 -2 48 -6 50 -8z"/>
<path d="M3185 6692 c-38 -20 -92 -39 -120 -44 -27 -4 -77 -13 -110 -18 -33
-6 -130 -19 -215 -30 -85 -10 -191 -23 -235 -29 -44 -6 -150 -15 -235 -22 -85
-6 -162 -14 -170 -18 -8 -5 -16 -20 -18 -34 -3 -21 7 -33 48 -66 55 -44 63
-46 125 -31 44 11 398 66 510 80 39 4 86 11 105 14 78 12 294 34 495 49 25 2
30 7 33 32 2 24 -8 42 -54 93 -30 34 -63 62 -72 61 -9 0 -48 -17 -87 -37z"/>
<path d="M3161 5779 c-67 -33 -201 -73 -241 -72 -14 1 -70 -5 -125 -13 -113
-15 -288 -31 -447 -40 -136 -9 -146 -18 -89 -75 39 -39 44 -41 84 -35 244 35
247 35 247 -29 0 -29 -2 -31 -65 -43 -83 -16 -115 -15 -134 2 -23 20 -54 27
-70 17 -12 -8 -13 -16 -2 -51 22 -74 30 -182 15 -205 -20 -29 -17 -46 17 -111
42 -80 52 -86 88 -53 16 15 21 28 17 45 -5 19 -2 24 16 28 13 2 47 9 76 15 30
6 76 11 103 11 61 0 65 -8 75 -148 l7 -100 -24 1 c-13 1 -36 -2 -51 -6 -41
-11 -46 25 -15 102 21 53 23 62 10 73 -13 10 -20 7 -44 -20 -16 -18 -30 -32
-33 -32 -2 0 -15 18 -30 40 -19 29 -33 40 -51 40 -22 0 -25 -5 -25 -32 0 -18
7 -51 15 -73 8 -22 14 -56 15 -76 l0 -36 -136 -13 c-179 -18 -198 -35 -107
-100 l45 -33 102 16 c55 9 117 18 136 21 19 2 50 8 68 14 17 6 32 9 32 7 0 -2
-42 -35 -92 -74 -51 -38 -105 -79 -121 -91 -40 -32 -146 -86 -235 -121 -87
-34 -120 -63 -100 -86 8 -10 22 -13 41 -9 30 6 240 90 267 107 8 5 42 23 75
40 33 17 104 60 157 95 l98 63 0 -88 c0 -70 -3 -90 -15 -95 -21 -8 -18 -33 13
-96 22 -44 32 -56 54 -58 20 -2 31 4 44 23 15 23 16 44 9 183 -7 152 -6 156
12 141 10 -8 70 -59 133 -111 63 -53 129 -110 145 -128 54 -57 69 -60 162 -36
45 11 89 28 97 36 25 26 28 56 8 80 -17 21 -19 21 -35 6 -21 -21 -69 -10 -172
40 -92 44 -128 67 -197 123 -31 25 -67 53 -80 62 -23 16 -22 17 36 29 32 6
125 15 206 19 198 9 215 22 132 104 -52 51 -69 54 -132 21 -28 -14 -161 -36
-170 -28 -3 3 30 39 73 79 42 41 77 77 77 81 0 4 -16 26 -35 50 l-35 42 27 6
c16 2 51 8 78 11 28 3 58 8 68 11 26 8 20 37 -13 59 -16 11 -30 23 -30 27 0
22 44 113 62 127 27 22 20 44 -36 104 l-44 48 -63 -35 c-35 -19 -83 -38 -106
-42 l-43 -7 0 40 c0 23 6 45 13 51 6 6 84 18 172 27 197 20 205 22 205 41 0
17 -86 106 -112 116 -9 4 -43 -6 -77 -23z m-311 -223 l0 -43 -52 -7 c-29 -3
-65 -9 -80 -12 -28 -6 -28 -6 -28 44 0 57 1 57 108 61 l52 1 0 -44z m255 -158
c-9 -56 -22 -78 -43 -78 -9 0 -41 -3 -69 -6 l-53 -7 0 56 c0 61 -5 56 65 70
11 3 40 5 63 6 l44 1 -7 -42z m-276 -99 c-18 -11 -109 -22 -117 -15 -3 4 -6
30 -7 58 l0 52 65 11 65 10 3 -54 c2 -36 -1 -57 -9 -62z m-217 21 c3 -30 6
-56 4 -57 -1 -1 -38 -6 -83 -10 l-81 -9 -6 50 c-3 28 -2 54 2 58 9 9 108 27
137 25 16 -2 21 -12 27 -57z m388 -157 c-8 -26 -28 -76 -47 -111 -18 -35 -33
-72 -33 -83 0 -15 -7 -19 -34 -19 -19 0 -42 -3 -51 -7 -16 -5 -17 1 -13 67 3
53 8 75 21 85 25 18 21 31 -19 61 -32 25 -34 29 -18 35 11 4 46 8 79 9 33 2
74 5 90 9 17 4 32 6 34 4 2 -1 -2 -24 -9 -50z"/>
<path d="M400 5708 c0 -7 25 -37 55 -67 l54 -55 -21 -39 c-13 -26 -16 -43 -10
-49 12 -12 55 -4 74 15 7 6 32 24 56 40 23 15 42 34 42 41 0 21 -43 52 -126
92 -73 35 -124 44 -124 22z"/>
<path d="M293 5503 c-24 -9 -13 -36 33 -76 l46 -40 -4 -66 c-3 -60 -1 -66 17
-68 15 -2 30 14 63 72 34 61 53 115 39 115 -1 0 -41 16 -87 35 -88 37 -87 36
-107 28z"/>
<path d="M553 5398 c-4 -6 -40 -72 -78 -147 -68 -130 -72 -136 -100 -134 -16
1 -32 -3 -36 -9 -11 -17 25 -81 61 -111 42 -36 68 -25 90 39 65 184 113 343
107 357 -7 20 -32 22 -44 5z"/>
<path d="M2673 4363 c-19 -7 -16 -34 8 -59 14 -15 21 -37 22 -70 l2 -48 -70
-12 c-38 -7 -133 -16 -210 -19 -169 -8 -215 -18 -215 -45 0 -25 85 -70 132
-70 17 0 89 9 159 21 71 11 147 19 171 17 40 -3 43 -5 46 -34 l3 -31 -88 -11
c-48 -6 -128 -14 -178 -17 -158 -11 -170 -18 -116 -69 39 -37 81 -41 235 -21
70 9 130 14 133 12 2 -3 5 -17 6 -33 l2 -29 -100 -12 c-55 -7 -170 -19 -255
-28 -192 -19 -256 -31 -264 -51 -8 -22 -2 -30 50 -60 39 -23 52 -26 107 -21
34 3 71 8 82 11 16 5 24 -3 42 -42 36 -76 45 -144 44 -321 -1 -159 -2 -166
-26 -201 -14 -20 -25 -43 -25 -51 0 -24 84 -144 103 -147 10 -2 28 5 39 15 18
16 20 28 17 128 l-4 110 60 13 c33 7 131 21 218 32 149 18 187 28 187 52 0 15
-59 87 -80 98 -13 7 -24 5 -42 -9 -14 -12 -76 -29 -163 -46 -77 -14 -147 -29
-156 -31 -13 -4 -18 5 -24 42 -3 25 -4 48 -1 52 11 10 194 46 381 75 72 11 80
14 83 35 4 24 -26 65 -59 82 -10 6 -36 1 -75 -14 -32 -13 -97 -29 -144 -36
-47 -7 -109 -18 -138 -25 -52 -13 -52 -13 -58 12 -8 29 7 43 46 43 14 0 41 5
61 10 51 14 391 61 397 55 3 -3 0 -120 -6 -259 -7 -140 -9 -261 -6 -270 9 -23
-22 -31 -50 -13 -33 22 -146 67 -168 67 -31 0 -20 -27 25 -61 44 -35 96 -78
161 -135 42 -37 88 -45 122 -20 17 13 19 26 17 133 -1 65 3 208 9 319 l11 201
28 10 c50 19 37 53 -59 154 l-34 37 28 6 c16 4 74 4 129 0 55 -3 114 -7 130
-7 29 -2 30 -1 29 46 0 52 -23 92 -66 116 -22 13 -30 12 -79 -12 -30 -15 -85
-31 -124 -37 -105 -17 -295 -37 -300 -31 -3 2 -5 19 -5 37 0 40 3 41 185 49
234 10 244 15 169 95 -58 62 -73 67 -121 37 -33 -20 -72 -31 -195 -54 -27 -5
-28 -3 -28 34 0 39 0 39 42 42 23 1 85 9 137 16 53 8 117 15 142 15 58 0 109
17 109 37 0 27 -80 113 -105 113 -13 0 -25 -6 -28 -12 -4 -12 -59 -32 -153
-57 -23 -6 -62 -11 -88 -11 l-47 0 6 54 c8 61 6 62 -85 98 -46 19 -56 20 -77
11z m335 -612 c-16 -26 -99 -46 -369 -91 -64 -11 -123 -22 -131 -25 -8 -3 -31
9 -53 29 l-40 34 25 10 c14 5 84 14 155 21 72 6 162 16 200 21 102 15 125 17
178 19 44 1 46 0 35 -18z"/>
<path d="M803 3149 c-9 -9 -7 -21 7 -49 10 -20 22 -61 25 -91 3 -30 8 -68 11
-86 5 -31 4 -32 -53 -43 -105 -21 -118 -25 -121 -44 -5 -27 27 -45 80 -46 l48
0 -20 -51 c-11 -28 -30 -68 -42 -88 l-22 -38 -31 41 c-47 62 -65 56 -87 -34
-10 -41 -22 -78 -27 -83 -15 -15 -28 0 -34 35 -4 26 3 44 30 86 19 29 45 60
59 69 41 27 48 49 25 86 -11 18 -30 42 -43 55 l-24 22 -40 -38 c-36 -33 -52
-39 -155 -61 -122 -26 -141 -34 -132 -57 13 -35 117 -58 161 -35 9 4 29 11 44
15 l27 6 -21 -37 c-29 -49 -116 -177 -190 -278 -60 -83 -65 -94 -48 -126 10
-18 39 -27 41 -11 3 30 16 50 87 134 l80 95 5 -46 c3 -25 6 -120 6 -211 2
-131 -1 -173 -14 -203 -15 -37 -15 -40 6 -75 34 -57 60 -82 86 -82 21 0 23 5
23 46 0 26 -5 76 -12 111 -9 48 -9 72 0 96 8 23 8 70 2 162 -5 71 -5 135 -1
143 5 9 27 -5 79 -54 60 -55 75 -64 87 -54 8 7 15 28 15 47 0 27 -8 42 -42 72
l-41 39 29 48 c20 35 29 44 32 32 2 -10 11 -18 21 -18 21 0 82 63 107 110 l19
35 3 -49 c2 -26 -2 -62 -7 -79 -9 -25 -7 -37 13 -73 l24 -43 -46 -6 c-81 -10
-92 -15 -92 -33 0 -13 17 -25 55 -41 l55 -23 113 20 c61 11 157 26 211 32 110
13 146 23 146 42 0 16 -51 68 -67 68 -10 0 -13 26 -13 110 l0 111 28 -16 c15
-8 54 -38 87 -65 70 -59 80 -64 100 -56 28 10 13 121 -17 130 -7 2 -55 19
-105 37 -125 45 -126 62 -5 78 49 6 104 11 124 11 49 0 55 22 16 65 -49 57
-58 59 -145 30 -43 -14 -79 -25 -81 -25 -7 0 11 115 20 133 7 15 2 25 -27 53
-29 27 -45 34 -76 34 -46 0 -58 -17 -35 -52 14 -21 39 -177 30 -187 -2 -2 -24
-6 -49 -9 -38 -4 -50 -1 -70 18 -23 22 -35 22 -77 5 -16 -6 -18 1 -18 84 l0
90 -55 36 c-61 39 -66 40 -82 24z m264 -331 c39 -14 40 -21 8 -73 -19 -32 -24
-36 -25 -19 0 28 -15 39 -68 54 -65 17 -49 36 42 49 5 0 25 -4 43 -11z m-91
-203 c-15 -20 -25 -43 -22 -50 12 -33 49 -14 123 63 l75 77 -5 -79 c-4 -60 -2
-84 9 -101 9 -14 11 -25 5 -29 -9 -6 -192 -36 -216 -36 -6 0 -11 53 -13 133
l-3 132 37 -37 37 -37 -27 -36z"/>
<path d="M417 3143 c-16 -15 -4 -42 38 -83 25 -24 45 -53 45 -64 0 -11 -12
-37 -26 -58 -26 -37 -27 -68 -2 -68 7 0 35 21 63 46 27 25 62 52 77 60 31 16
38 53 14 77 -19 19 -170 97 -188 97 -8 0 -18 -3 -21 -7z"/>
<path d="M1310 2354 c-72 -17 -286 -49 -475 -69 -201 -22 -229 -28 -233 -45
-1 -9 16 -25 43 -39 39 -20 53 -23 104 -17 l60 7 -11 -33 c-18 -51 -55 -106
-78 -113 -27 -9 -34 -42 -17 -90 21 -61 46 -58 97 10 42 56 90 149 90 173 0 7
-7 23 -15 36 -15 23 -15 23 27 31 24 4 52 10 62 12 30 6 36 -14 36 -131 0
-108 0 -108 -22 -102 -13 3 -40 9 -60 12 -33 6 -38 4 -38 -12 1 -12 28 -37 76
-68 65 -43 79 -48 101 -40 36 12 45 52 41 179 l-3 102 25 -17 c14 -10 52 -35
85 -56 33 -22 92 -69 131 -106 39 -38 77 -68 83 -68 19 0 29 42 21 97 -3 29
-8 55 -11 57 -14 13 -213 106 -258 121 -52 17 -55 17 -68 -1 -12 -17 -13 -17
-13 2 0 49 16 54 190 66 206 14 220 21 153 83 -42 38 -44 39 -123 19z"/>
<path d="M2670 2321 c-94 -50 -106 -202 -21 -274 99 -83 245 -7 245 127 0 126
-118 204 -224 147z m105 -67 c19 -8 45 -55 45 -84 0 -12 -14 -35 -30 -52 -25
-24 -36 -29 -58 -24 -62 15 -84 95 -37 141 24 25 49 31 80 19z"/>
<path d="M798 1341 c-44 -39 -46 -96 -4 -140 28 -29 28 -31 12 -55 -9 -14 -25
-30 -36 -36 -21 -11 -26 -36 -11 -59 21 -33 134 48 173 123 13 24 22 61 22 89
1 43 -3 52 -32 78 -42 38 -82 38 -124 0z"/>
</g>
</svg>
