<?xml version="1.0" standalone="no"?>
<!DOCTYPE svg PUBLIC "-//W3C//DTD SVG 20010904//EN"
 "http://www.w3.org/TR/2001/REC-SVG-20010904/DTD/svg10.dtd">
<svg version="1.0" xmlns="http://www.w3.org/2000/svg"
 width="680.000000pt" height="1417.000000pt" viewBox="0 0 680.000000 1417.000000"
 preserveAspectRatio="xMidYMid meet">

<g transform="translate(0.000000,1417.000000) scale(0.100000,-0.100000)"
fill="#ffffff" stroke="none">
<path d="M1170 13484 c-35 -30 -113 -51 -305 -84 -66 -11 -140 -24 -165 -29
-176 -36 -173 -36 -184 -16 -22 37 -72 98 -88 108 -12 8 -21 7 -31 -2 -14 -11
-13 -20 3 -79 10 -37 18 -74 18 -82 1 -8 4 -62 8 -120 8 -125 -8 -338 -35
-471 -22 -107 -68 -231 -111 -299 -41 -66 -45 -85 -20 -110 16 -16 25 -19 35
-10 25 21 104 147 125 201 51 127 55 145 85 354 27 189 23 175 53 175 28 1
161 24 200 36 21 6 22 4 22 -44 0 -48 -1 -51 -32 -61 -89 -27 -98 -26 -135 14
-60 66 -93 27 -52 -62 12 -26 28 -88 35 -138 l12 -90 -24 -18 c-13 -10 -24
-23 -24 -28 0 -13 94 -109 108 -109 17 0 32 34 32 73 0 37 12 47 56 47 23 0
24 -2 24 -84 0 -72 -3 -85 -17 -90 -38 -11 -215 -36 -260 -36 -72 0 -95 -9
-91 -34 2 -15 23 -31 73 -55 39 -18 79 -33 90 -33 11 0 50 11 87 25 99 37 301
96 337 99 30 3 33 0 59 -62 16 -38 35 -66 44 -68 22 -4 68 68 68 105 0 48
-126 208 -200 255 -25 16 -24 16 35 22 86 9 110 18 113 43 2 15 -5 27 -23 39
-24 16 -26 21 -20 63 9 69 13 77 40 89 33 15 31 31 -6 87 -44 65 -59 70 -105
38 -40 -27 -96 -53 -114 -53 -14 0 -13 32 4 72 12 27 24 37 63 50 26 9 65 19
85 23 20 3 47 14 59 24 l23 18 -54 57 c-29 31 -56 56 -60 56 -4 0 -29 -17 -56
-39 -64 -50 -196 -108 -381 -166 l-43 -13 0 71 c0 40 4 77 8 84 10 16 103 39
207 53 77 10 152 23 300 55 39 8 80 14 92 15 l21 0 -1 -332 c-2 -284 1 -345
15 -413 31 -142 67 -213 145 -292 61 -60 116 -71 146 -29 15 23 -16 389 -35
414 -6 6 -19 12 -29 12 -22 0 -22 0 -24 -95 -5 -172 -5 -176 -16 -169 -19 11
-70 134 -91 214 -15 61 -18 106 -16 245 1 94 7 222 14 285 7 63 13 120 14 126
0 7 9 14 20 17 33 9 34 35 4 79 -37 53 -79 98 -92 98 -6 0 -25 -12 -42 -26z
m-190 -648 l-12 -64 -49 -9 -49 -10 0 68 0 68 38 10 c60 15 77 17 81 8 1 -4
-2 -37 -9 -71z m-199 -97 c-3 -4 -25 -9 -47 -13 l-41 -6 -7 38 c-12 73 -10 77
42 93 l47 15 6 -60 c3 -34 3 -64 0 -67z m139 -87 c0 -9 16 -39 35 -66 19 -27
35 -54 35 -60 0 -10 -108 -42 -115 -34 -1 2 -5 40 -7 85 -5 88 -8 82 45 92 4
0 7 -7 7 -17z"/>
<path d="M2687 13133 c-10 -9 -9 -43 1 -43 15 0 32 -50 37 -105 6 -62 14 -57
-115 -75 -47 -7 -90 -17 -97 -22 -18 -15 -4 -37 38 -58 46 -24 86 -25 125 -5
45 23 57 20 50 -16 -4 -19 0 -38 10 -54 15 -23 15 -24 -33 -37 -46 -14 -49
-13 -77 9 -16 14 -35 21 -44 18 -10 -4 -23 3 -34 17 -17 23 -18 23 -48 6 -57
-32 -60 -29 -60 84 0 56 6 117 12 136 13 34 12 35 -30 72 -48 43 -105 73 -130
68 -25 -5 -27 -37 -3 -62 31 -33 38 -68 46 -214 l7 -130 -68 -17 c-38 -9 -87
-20 -108 -25 -52 -11 -72 -36 -49 -62 28 -31 85 -41 133 -22 22 9 43 15 45 12
6 -6 -21 -125 -45 -198 -12 -36 -48 -120 -81 -187 -53 -107 -59 -125 -51 -155
6 -26 13 -33 33 -33 18 0 25 6 27 24 2 13 28 67 57 120 29 53 63 117 75 144
12 26 24 47 25 47 2 0 3 -108 4 -239 0 -191 -3 -242 -14 -251 -7 -6 -13 -30
-13 -55 0 -35 6 -53 31 -84 41 -50 66 -58 91 -28 17 20 18 35 12 187 l-6 165
47 25 c26 14 75 51 109 83 l62 57 7 -129 c8 -144 0 -244 -22 -278 -9 -13 -13
-33 -9 -45 6 -26 69 -98 85 -98 16 0 41 30 41 50 0 25 15 33 37 22 11 -6 43
-6 83 -1 104 15 351 39 398 39 48 0 102 23 102 44 0 18 -64 74 -94 82 -12 3
-51 -4 -86 -16 -35 -12 -83 -24 -107 -27 -38 -5 -43 -3 -48 20 -4 13 -5 39 -3
58 l3 34 152 20 c83 11 155 23 158 27 14 14 -7 47 -46 74 -38 26 -42 27 -77
14 -20 -7 -72 -21 -115 -30 l-78 -17 3 36 c3 34 5 36 56 47 29 7 88 15 132 19
47 4 84 13 90 21 17 19 5 47 -31 73 -34 25 -29 25 -163 -13 -49 -14 -91 -24
-93 -22 -10 10 11 75 25 81 14 5 115 18 275 34 19 2 3 42 -29 71 -27 23 -42
30 -58 25 -62 -19 -176 -42 -176 -35 0 4 9 19 21 34 15 19 19 34 14 54 l-6 28
78 12 c43 7 88 12 101 12 34 0 38 27 9 58 -30 32 -27 71 9 115 13 16 24 34 24
40 0 10 -78 87 -88 87 -2 0 -29 -15 -60 -34 -64 -39 -157 -74 -168 -63 -4 3 0
26 10 49 16 42 17 43 93 62 43 10 112 21 153 24 68 4 89 13 90 34 0 15 -73 88
-87 88 -8 0 -43 -13 -77 -29 -33 -16 -73 -31 -89 -35 l-27 -6 30 49 c17 27 28
56 24 64 -7 19 -93 87 -110 87 -38 0 -61 -38 -34 -55 13 -8 13 -101 -1 -126
-8 -16 -13 -18 -25 -8 -7 6 -24 9 -36 6 -13 -3 -40 -10 -60 -15 -37 -10 -38
-9 -38 18 0 16 4 40 9 53 12 31 -4 56 -65 96 -45 31 -65 37 -77 24z m273 -239
c0 -15 -38 -132 -46 -143 -2 -2 -17 8 -34 22 -17 15 -37 24 -46 20 -13 -5 -15
2 -12 33 3 38 5 40 63 60 75 27 75 27 75 8z m-15 -248 c4 -24 4 -53 0 -65 -7
-23 11 -86 32 -112 37 -45 0 -85 -94 -99 -32 -4 -76 -11 -97 -15 l-39 -8 27
36 c15 19 38 43 52 51 26 18 32 50 12 63 -9 5 1 11 26 18 53 15 69 41 39 62
-39 26 -25 113 17 113 15 0 20 -10 25 -44z m223 12 c-3 -30 -7 -34 -55 -47
-62 -16 -83 -10 -83 23 0 25 24 38 90 49 51 9 51 8 48 -25z m-575 -10 c14 -60
18 -136 8 -142 -20 -13 -11 -40 26 -78 l36 -37 -28 -43 c-33 -50 -185 -202
-193 -193 -9 9 -12 285 -3 285 4 0 20 -22 34 -48 40 -73 65 -98 85 -86 30 19
41 101 19 143 -6 13 -37 37 -67 53 -68 36 -80 52 -80 99 0 38 0 38 48 44 26 3
58 9 72 14 37 13 37 13 43 -11z m209 -27 c-3 -22 -12 -31 -40 -40 -21 -7 -42
-14 -48 -17 -7 -3 -16 8 -21 23 -10 27 -8 29 36 45 68 25 78 23 73 -11z m138
-365 l0 -32 -86 -12 c-48 -7 -88 -11 -91 -8 -3 2 -7 23 -10 46 -6 41 -5 42 17
30 24 -13 113 -7 140 10 21 13 30 3 30 -34z m4 -148 c3 -17 3 -35 -1 -38 -10
-9 -118 -30 -154 -30 -29 0 -38 17 -31 57 3 18 9 21 36 17 17 -3 54 2 81 9 28
8 53 15 56 16 4 0 9 -13 13 -31z m-78 -159 c86 17 84 18 84 -44 0 -53 -1 -55
-27 -56 -16 0 -58 -3 -95 -8 l-68 -7 0 63 0 63 25 -12 c18 -8 39 -8 81 1z"/>
<path d="M543 12194 c-3 -9 4 -37 17 -63 17 -35 24 -69 28 -142 l5 -97 -65
-11 c-36 -6 -96 -11 -135 -11 -84 0 -104 -14 -74 -52 11 -13 38 -33 61 -43 40
-18 43 -18 115 0 40 10 80 15 89 12 18 -7 22 -72 7 -96 -9 -13 -138 -38 -289
-56 -57 -6 -63 -9 -60 -29 4 -31 101 -78 144 -70 29 5 32 3 38 -26 7 -40 -7
-136 -34 -224 -21 -67 -60 -143 -122 -235 -58 -86 -23 -114 48 -38 61 63 124
143 124 156 0 6 9 20 19 30 18 18 23 19 68 6 89 -25 244 -74 254 -80 5 -4 72
-26 147 -50 75 -24 173 -58 217 -75 115 -46 118 -46 187 -14 144 67 143 67
146 103 3 31 2 33 -20 26 -13 -5 -69 -10 -126 -12 -86 -4 -123 0 -220 23 -64
14 -137 34 -162 44 -51 19 -88 31 -176 55 -59 16 -62 19 -68 53 -12 77 -12 78
59 96 35 9 78 16 95 16 41 0 70 16 70 39 0 24 -77 94 -93 85 -7 -4 -23 -15
-37 -24 -14 -9 -40 -22 -57 -28 l-33 -11 -2 42 c-2 65 3 101 15 109 6 3 42 9
81 13 93 9 146 23 153 41 3 8 -7 30 -21 49 -30 39 -66 46 -102 21 -11 -8 -47
-18 -80 -21 l-60 -7 1 56 c1 30 4 58 7 61 3 4 49 10 102 13 65 5 101 12 111
23 14 14 12 20 -22 62 -21 26 -43 47 -50 47 -7 0 -33 -11 -59 -25 -75 -40 -84
-36 -84 38 0 40 5 70 15 83 29 38 18 57 -61 107 -79 50 -101 56 -111 31z m52
-634 c8 -27 13 -174 7 -229 l-5 -43 -40 6 c-22 4 -43 9 -48 11 -9 6 29 129 41
133 17 6 11 35 -15 77 -14 22 -25 43 -25 47 0 6 19 10 67 17 6 0 14 -8 18 -19z"/>
<path d="M1251 12047 c-6 -6 -11 -18 -11 -27 0 -9 -10 -26 -22 -38 -24 -22
-144 -82 -165 -82 -6 0 -27 25 -46 55 -69 110 -129 125 -93 23 47 -132 49
-153 50 -429 2 -295 3 -302 68 -335 28 -15 56 -16 205 -11 237 8 265 23 192
102 -44 48 -66 54 -102 30 -23 -15 -134 -34 -199 -35 -49 0 -56 14 -64 132
l-7 94 74 13 c41 6 93 16 117 21 23 6 54 10 68 10 70 0 87 54 28 90 -31 20
-34 26 -29 54 26 135 29 141 62 172 18 18 33 38 33 45 0 15 -85 96 -121 115
-20 10 -29 10 -38 1z m-37 -290 l-7 -95 -65 -16 c-36 -9 -67 -14 -69 -12 -2 2
-6 39 -9 82 l-5 79 78 31 c43 17 79 30 81 28 2 -1 0 -45 -4 -97z"/>
<path d="M2472 11648 c-5 -7 -13 -27 -16 -44 -14 -64 -130 -247 -241 -379
-129 -154 -149 -194 -100 -204 15 -2 41 19 98 80 l79 84 -4 -362 c-3 -265 -7
-366 -16 -375 -21 -21 -12 -61 26 -128 40 -68 74 -88 97 -57 8 11 11 157 9
512 -2 272 -5 499 -8 503 -5 8 65 103 104 142 18 18 19 17 24 -33 18 -160 26
-280 28 -435 l2 -174 -60 -31 c-73 -39 -76 -59 -16 -93 23 -13 48 -24 54 -24
10 0 131 86 256 181 l47 35 0 -85 0 -86 -40 -8 c-22 -4 -55 -11 -72 -14 -54
-9 -42 -34 31 -64 46 -19 69 -23 86 -17 42 15 41 4 -8 -68 -46 -70 -94 -117
-199 -196 -42 -32 -51 -43 -42 -54 29 -35 111 5 306 148 29 21 61 38 73 38 35
0 34 27 -4 94 l-35 65 37 6 c20 3 66 14 102 24 125 36 116 39 132 -28 l15 -58
-64 39 c-62 38 -93 43 -93 16 0 -7 50 -65 111 -128 61 -63 125 -134 142 -157
46 -64 69 -55 80 29 9 65 -4 91 -62 129 -44 29 -48 35 -38 53 7 14 12 132 14
356 l3 335 25 18 c14 10 25 25 25 32 0 19 -58 84 -84 96 -12 5 -29 15 -39 21
-15 11 -21 10 -36 -8 -9 -12 -37 -32 -61 -44 -45 -23 -130 -51 -130 -43 0 18
48 109 70 133 22 23 42 31 116 45 127 25 169 39 172 61 3 23 -82 114 -107 114
-9 0 -27 -13 -39 -29 -15 -20 -33 -31 -62 -36 -23 -4 -46 -13 -53 -19 -6 -7
-18 -11 -27 -9 -8 2 -63 -8 -120 -22 -120 -29 -115 -28 -195 -39 -119 -17
-131 -34 -58 -85 45 -32 49 -33 93 -22 79 21 133 31 137 27 4 -3 -16 -89 -33
-145 -3 -10 -18 -2 -49 29 -28 28 -49 41 -59 37 -20 -8 -20 -17 -1 -86 l14
-54 -28 27 c-15 14 -30 26 -34 26 -4 0 -26 -12 -48 -27 -53 -35 -63 -24 -56
59 3 35 8 73 12 85 8 26 -24 61 -85 91 l-39 19 34 33 c19 19 35 39 35 46 0 20
-83 114 -101 114 -9 0 -21 -6 -27 -12z m722 -435 c5 -17 10 -309 7 -420 -1
-52 -2 -53 -30 -53 -27 0 -73 -8 -180 -31 -24 -6 -46 -8 -48 -5 -3 2 -7 22
-10 44 l-5 39 83 22 c182 48 202 61 160 105 -36 38 -55 40 -124 13 -34 -14
-74 -27 -89 -31 -27 -6 -28 -5 -28 32 0 38 0 38 53 50 126 29 192 51 201 65 8
13 3 24 -24 52 -19 19 -39 35 -46 35 -6 0 -40 -13 -75 -29 -94 -43 -115 -46
-123 -18 -13 49 -7 61 39 80 35 15 194 61 227 66 4 1 9 -7 12 -16z m-374 -167
c0 -46 2 -96 6 -112 5 -31 0 -34 -111 -79 -16 -7 -38 -16 -47 -19 -15 -7 -17
4 -17 117 l0 125 27 10 c27 11 121 39 135 41 4 1 7 -37 7 -83z"/>
<path d="M1273 10932 c-6 -4 -13 -17 -17 -30 -8 -22 -58 -54 -108 -66 -22 -5
-29 -1 -47 29 -42 72 -79 57 -62 -26 6 -30 13 -80 16 -112 4 -46 2 -59 -11
-64 -19 -7 -13 -67 12 -114 18 -36 26 -32 -141 -59 -71 -12 -131 -23 -133 -25
-2 -2 -13 5 -25 16 -27 25 -57 25 -57 0 0 -10 7 -38 15 -62 40 -111 55 -243
33 -279 -10 -16 -7 -29 17 -79 41 -86 72 -90 92 -12 8 32 14 36 63 47 30 7 56
13 58 14 1 0 2 -24 2 -53 l0 -54 -82 -11 c-46 -6 -119 -14 -163 -17 -115 -9
-135 -14 -135 -34 0 -10 17 -30 37 -44 37 -25 40 -26 128 -16 50 6 116 13 148
16 l57 5 0 -46 c0 -24 -4 -48 -10 -51 -35 -22 49 -159 93 -153 21 3 22 7 22
136 l0 132 55 17 c69 20 276 29 307 12 70 -38 68 64 -3 120 -24 19 -28 19 -62
5 -52 -21 -181 -52 -227 -54 -76 -3 -75 -4 -75 45 0 50 9 58 76 68 39 6 41 5
63 -33 29 -51 57 -53 77 -5 8 19 23 88 35 152 11 65 22 132 26 149 3 19 17 41
34 53 39 29 36 48 -12 99 -43 46 -58 50 -92 27 -24 -15 -112 -45 -134 -45 -15
0 -17 46 -3 55 5 3 29 6 52 7 46 0 129 15 166 29 29 11 28 43 -2 57 -22 10
-24 16 -19 49 3 21 16 48 29 61 32 31 30 45 -13 92 -42 47 -64 62 -80 52z
m-35 -204 l-3 -43 -47 -5 -48 -6 0 37 c0 32 4 37 33 47 62 20 68 17 65 -30z
m12 -295 c0 -16 -3 -38 -6 -51 l-6 -22 -34 21 c-33 20 -36 20 -74 5 -55 -22
-60 -21 -60 14 0 30 16 38 100 53 68 12 80 8 80 -20z m-280 -52 c0 -24 -6 -31
-32 -40 -18 -6 -49 -12 -68 -13 -31 -3 -35 0 -38 24 -3 24 1 28 35 37 102 26
103 26 103 -8z m254 -118 c-4 -21 -7 -39 -8 -39 0 -1 -34 -4 -74 -8 l-73 -6 3
32 c3 32 5 33 68 44 36 6 71 12 78 13 10 1 11 -9 6 -36z m-345 -8 c20 -10 37
-12 59 -6 24 7 32 6 36 -6 16 -40 7 -50 -55 -62 -34 -7 -63 -10 -66 -7 -8 8
-16 96 -9 96 4 0 20 -7 35 -15z"/>
<path d="M889 10878 c-10 -24 -25 -35 -58 -46 l-44 -15 -24 32 c-46 59 -99 29
-58 -33 20 -30 44 -156 35 -181 -10 -27 38 -114 67 -121 29 -8 43 2 43 31 0
20 8 25 53 35 28 7 60 19 70 28 19 17 23 47 6 58 -14 8 -3 68 21 116 l19 36
-36 46 c-44 56 -73 61 -94 14z m3 -157 c-3 -41 -8 -50 -29 -60 -14 -7 -27 -10
-28 -9 -2 2 -6 24 -10 51 -7 43 -6 47 13 47 12 0 24 5 27 10 3 6 12 10 18 10
8 0 11 -16 9 -49z"/>
<path d="M538 10856 c-25 -31 -37 -36 -145 -61 -65 -15 -128 -29 -140 -31 -38
-7 -26 -32 28 -60 l51 -25 100 26 c55 15 101 25 103 23 4 -5 -15 -161 -20
-166 -7 -8 -159 -41 -187 -42 -48 0 -66 -66 -26 -94 21 -15 22 -19 11 -80 -7
-40 -19 -72 -32 -85 -27 -27 -27 -51 0 -85 18 -23 26 -26 53 -20 17 3 36 10
42 15 12 10 147 50 151 45 1 -1 -6 -44 -17 -96 -10 -52 -26 -135 -35 -185 -20
-105 -21 -107 -43 -96 -46 25 -156 71 -168 71 -17 0 -18 -29 -1 -50 7 -9 28
-26 47 -38 40 -25 92 -77 109 -110 19 -36 59 -26 93 23 32 47 44 84 69 220 34
185 45 231 62 255 27 39 21 64 -28 109 -49 45 -60 45 -110 1 -11 -10 -32 -20
-47 -24 -14 -3 -33 -9 -42 -12 -13 -5 -16 1 -16 35 0 59 23 109 57 122 15 6
66 18 113 27 77 15 85 19 88 42 3 17 -4 31 -23 46 l-27 21 17 77 c12 53 23 80
36 87 10 5 19 19 19 30 0 25 -79 119 -100 119 -8 0 -27 -15 -42 -34z"/>
<path d="M3176 10188 c-26 -37 -130 -65 -371 -98 -82 -11 -162 -23 -176 -26
-22 -4 -28 0 -39 26 -7 17 -25 37 -40 45 -45 23 -51 3 -29 -85 32 -132 43
-218 30 -246 -6 -14 -11 -31 -11 -38 0 -20 80 -116 97 -116 11 0 7 -10 -14
-37 -16 -21 -37 -51 -48 -68 -10 -16 -57 -74 -104 -127 -77 -88 -101 -110
-101 -92 0 8 54 193 86 297 19 59 22 82 14 92 -21 25 -38 4 -65 -78 -15 -45
-49 -127 -75 -182 -27 -55 -61 -136 -76 -180 -15 -44 -33 -89 -41 -100 -7 -11
-13 -26 -13 -35 0 -8 -4 -21 -9 -29 -7 -12 -14 -10 -36 7 -32 25 -55 19 -55
-15 0 -33 63 -134 100 -161 37 -28 56 -28 71 1 13 23 16 36 43 177 21 106 34
140 55 140 31 0 136 79 217 162 74 77 84 84 120 84 21 0 51 3 67 8 26 8 27 7
27 -32 0 -39 -1 -40 -44 -51 -57 -14 -82 -14 -105 1 -10 6 -26 8 -36 4 -15 -5
-16 -13 -9 -54 4 -26 8 -86 8 -134 1 -73 4 -91 24 -117 32 -43 57 -55 76 -35
9 8 16 26 16 39 0 17 8 26 31 34 18 6 33 11 34 11 8 0 15 -76 10 -99 -6 -30
-18 -34 -165 -60 -122 -21 -135 -41 -63 -94 l43 -30 102 32 c57 18 152 48 212
67 59 19 111 32 114 29 4 -3 11 -20 17 -38 14 -45 42 -47 59 -5 33 80 31 92
-21 143 -26 26 -58 54 -70 62 -31 21 -29 33 6 33 58 0 74 19 50 59 -9 14 -8
25 5 51 9 18 16 39 16 47 0 7 9 13 19 13 42 0 31 44 -25 98 l-34 32 -39 -20
c-22 -11 -58 -26 -80 -34 l-41 -14 0 27 c0 14 -3 35 -6 46 -5 19 6 23 153 53
87 18 164 32 172 32 12 0 13 -22 7 -127 -8 -154 -51 -498 -72 -575 -6 -21 -44
-16 -117 14 -92 37 -107 -3 -19 -52 31 -18 79 -50 106 -71 54 -43 74 -41 100
9 32 62 68 264 81 457 13 191 36 339 56 361 22 24 24 40 6 51 -8 4 -26 27 -42
51 -15 23 -34 42 -42 42 -8 0 -33 -11 -56 -24 -54 -31 -145 -60 -282 -90 -60
-13 -127 -29 -148 -34 -34 -9 -37 -9 -25 6 7 10 21 25 31 36 10 10 16 24 13
32 -3 8 -9 20 -12 28 -4 10 9 17 48 25 29 6 73 15 98 21 25 5 90 16 145 26 55
9 110 18 123 20 27 5 28 30 3 63 -16 21 -17 27 -5 50 8 14 14 32 14 40 0 31
24 91 36 91 22 0 34 33 21 56 -27 47 -71 94 -88 94 -10 0 -25 -10 -33 -22z
m-26 -157 c0 -42 -24 -120 -39 -127 -9 -4 -35 -10 -58 -14 -48 -8 -50 -4 -32
51 27 84 37 98 77 102 20 2 40 4 45 5 4 1 7 -7 7 -17z m-214 -48 c-3 -21 -6
-50 -6 -64 0 -33 -18 -55 -52 -63 -24 -5 -28 -3 -34 20 -4 15 -17 46 -30 68
-13 23 -24 44 -24 49 0 4 17 7 38 8 20 1 48 5 62 9 49 16 53 13 46 -27z m-213
-40 c8 -27 18 -62 22 -79 6 -30 5 -31 -36 -38 -23 -4 -43 -5 -44 -4 -1 2 -9
35 -17 75 -15 70 -15 71 6 81 41 20 53 14 69 -35z m-33 -234 c-7 -11 -14 -18
-17 -15 -8 8 5 36 17 36 7 0 7 -6 0 -21z m317 -360 c-3 -22 -7 -42 -9 -43 -1
-2 -27 -6 -55 -9 l-53 -6 0 39 c0 33 4 40 23 44 103 22 101 23 94 -25z m-199
-47 l3 -42 -50 0 c-48 0 -51 2 -51 25 0 14 -1 28 -2 32 -3 8 71 33 87 29 6 -1
11 -21 13 -44z m148 -110 c-3 -5 8 -28 24 -53 33 -49 32 -50 -41 -62 l-37 -5
-5 56 c-2 31 -3 60 0 65 2 4 18 7 34 7 17 0 28 -4 25 -8z"/>
<path d="M2202 10138 c-14 -14 -16 -38 -3 -38 12 0 131 -117 131 -129 0 -5 -6
-16 -13 -23 -16 -17 -37 -64 -37 -83 0 -30 43 -14 106 40 36 30 69 55 73 55
13 0 22 30 13 46 -12 22 -139 103 -195 124 -61 24 -60 23 -75 8z"/>
<path d="M2123 9803 c-24 -9 -13 -28 53 -87 l66 -59 -7 -55 c-4 -30 -13 -75
-21 -101 -18 -59 -18 -101 0 -101 20 0 29 15 66 113 18 49 46 109 62 133 15
25 28 51 28 59 0 23 -73 66 -147 86 -70 20 -80 21 -100 12z"/>
<path d="M1313 9639 c-7 -7 -5 -29 8 -74 26 -94 29 -148 34 -636 l5 -447 -41
9 c-22 5 -57 16 -76 24 -34 15 -53 13 -53 -5 0 -5 35 -37 78 -72 42 -34 85
-72 94 -83 22 -26 46 -13 73 41 19 38 20 59 20 555 0 481 1 518 18 536 24 27
15 45 -51 95 -32 24 -63 49 -70 56 -16 15 -25 15 -39 1z"/>
<path d="M724 9613 c-20 -84 -175 -271 -404 -486 -81 -77 -92 -90 -79 -102 13
-13 27 -6 109 55 52 39 108 81 125 95 26 21 32 22 46 10 34 -32 73 -37 155
-20 44 9 117 21 163 26 79 9 111 20 111 40 0 14 -67 79 -81 79 -8 0 -23 -6
-34 -14 -25 -17 -125 -46 -159 -46 -14 0 -46 -7 -72 -16 -71 -24 -74 -5 -7 51
32 26 77 68 101 94 42 46 42 46 70 29 15 -9 56 -33 90 -53 35 -20 95 -64 134
-98 57 -48 74 -58 87 -50 19 13 20 88 1 123 -11 21 -76 55 -222 118 l-68 28
30 29 c17 16 30 35 30 43 0 21 -77 92 -100 92 -13 0 -22 -9 -26 -27z"/>
<path d="M1106 9394 c-4 -9 0 -24 7 -33 27 -30 35 -86 41 -273 5 -137 3 -193
-6 -207 -16 -27 40 -155 70 -159 40 -6 45 25 42 292 -2 138 1 265 5 283 6 29
4 33 -26 49 -19 9 -48 28 -65 40 -36 28 -59 30 -68 8z"/>
<path d="M923 9160 c-10 -11 -39 -27 -65 -36 -48 -16 -48 -15 -79 11 -17 14
-37 24 -43 22 -12 -4 -12 -12 4 -146 8 -65 8 -97 0 -105 -16 -16 -12 -43 15
-97 21 -40 30 -50 48 -47 16 2 23 11 25 33 4 34 18 55 38 55 26 0 -23 -118
-94 -223 -54 -80 -67 -91 -57 -48 6 26 2 35 -23 58 -16 16 -41 36 -55 46 l-27
18 30 40 c23 32 27 45 20 64 -8 21 -6 24 21 30 40 9 47 30 19 60 -19 20 -21
30 -15 67 4 24 16 57 26 74 l19 31 -28 36 c-30 41 -51 46 -76 19 -9 -11 -34
-25 -55 -32 -35 -11 -41 -10 -79 14 -72 45 -88 28 -57 -59 17 -46 20 -142 5
-180 -12 -31 15 -92 55 -123 l25 -20 -22 -39 c-25 -44 -134 -187 -184 -241
-36 -40 -43 -62 -19 -62 24 0 141 101 206 179 33 39 63 71 67 71 4 0 28 -23
53 -50 35 -38 51 -49 65 -44 11 4 -5 -18 -33 -47 -29 -30 -53 -62 -53 -71 0
-54 79 -3 200 130 l74 80 29 -36 c16 -20 32 -39 35 -42 4 -3 14 -18 21 -33 8
-15 32 -46 53 -69 44 -48 61 -43 79 25 13 51 0 70 -97 145 -38 30 -70 60 -72
66 -2 7 13 32 32 55 36 43 37 54 9 97 -13 20 -11 22 17 27 40 9 48 32 20 62
-17 18 -21 31 -16 52 13 53 28 81 47 86 40 11 7 71 -58 105 -29 16 -30 15 -50
-8z m-19 -167 c-4 -32 -8 -59 -9 -60 -1 -2 -16 -6 -33 -9 -32 -6 -32 -6 -32
32 0 22 -3 49 -6 61 -6 23 6 30 59 32 l27 1 -6 -57z m-294 -19 c0 -58 -14 -84
-45 -84 -20 0 -25 5 -25 24 0 13 -3 37 -6 54 -6 28 -4 32 27 41 19 5 37 10 42
10 4 1 7 -20 7 -45z m-59 -191 c-8 -15 -10 -15 -11 -2 0 17 10 32 18 25 2 -3
-1 -13 -7 -23z"/>
<path d="M3220 8706 c-62 -32 -230 -61 -570 -98 -105 -12 -115 -15 -118 -34
-2 -17 8 -28 45 -49 46 -26 51 -26 115 -16 37 6 71 11 76 11 12 0 27 -220 15
-230 -4 -5 -41 -10 -82 -12 l-74 -3 -22 40 c-30 52 -50 65 -70 44 -14 -13 -14
-24 1 -104 18 -106 30 -328 29 -545 -1 -124 -4 -161 -17 -184 -11 -20 -14 -35
-8 -50 5 -11 19 -48 32 -81 29 -72 54 -83 86 -37 19 25 32 31 114 45 103 19
225 35 335 43 72 6 73 6 84 -22 35 -86 40 -94 62 -94 48 0 51 20 59 395 8 405
16 502 47 541 11 15 21 32 21 38 -1 15 -115 136 -128 136 -5 0 -19 -15 -30
-34 -24 -40 -59 -60 -119 -70 l-43 -6 0 49 c0 28 5 73 11 101 8 37 8 54 0 64
-13 16 28 23 186 33 66 4 104 10 107 18 7 18 -42 113 -64 125 -25 13 -28 13
-80 -14z m-268 -196 c2 -21 2 -73 0 -115 -4 -70 -6 -77 -29 -86 -14 -5 -29 -7
-34 -3 -10 6 -12 94 -3 183 7 58 8 61 34 61 25 0 28 -4 32 -40z m259 -310 c0
-22 1 -71 1 -110 0 -38 -1 -86 -1 -106 l-1 -37 -25 27 c-26 28 -32 30 -87 17
l-38 -9 -1 39 c0 21 -1 68 -1 104 0 100 1 103 20 108 9 3 43 5 75 6 l57 1 1
-40z m-259 -122 c5 -135 13 -169 47 -187 10 -6 61 -11 114 -12 l97 -1 -6 -157
c-4 -86 -10 -160 -15 -165 -5 -6 -16 -2 -28 8 -18 16 -25 17 -73 5 -29 -7 -60
-12 -68 -11 -8 0 -24 -4 -35 -8 -24 -11 -221 -40 -269 -40 l-33 0 -7 77 c-3
42 -6 118 -6 169 0 77 2 92 14 88 27 -10 96 57 125 121 41 89 49 114 56 177 6
58 12 64 61 67 21 1 22 -4 26 -131z m-179 95 c10 -18 -27 -154 -61 -223 l-37
-75 -6 60 c-4 33 -9 97 -12 142 l-6 83 32 9 c40 12 85 13 90 4z"/>
<path d="M3056 7781 c-3 -5 -23 -11 -43 -14 -21 -3 -74 -12 -118 -21 -44 -9
-102 -19 -130 -22 -27 -4 -58 -11 -67 -16 -23 -11 -23 -47 -1 -55 9 -4 25 -15
36 -26 14 -14 26 -17 45 -12 88 21 180 36 277 46 61 5 114 14 119 19 9 9 -11
48 -47 88 -21 22 -61 30 -71 13z"/>
<path d="M2243 8713 c-22 -8 -15 -23 47 -91 33 -37 60 -73 60 -81 0 -8 -14
-42 -32 -77 -46 -90 -30 -101 55 -40 35 25 69 46 74 46 21 0 63 42 63 64 0 55
-215 199 -267 179z"/>
<path d="M1145 8540 c-4 -6 -3 -16 3 -22 6 -6 12 -6 17 2 4 6 3 16 -3 22 -6 6
-12 6 -17 -2z"/>
<path d="M5377 8498 c-14 -18 -106 -149 -206 -291 l-182 -258 31 -63 c16 -35
35 -86 42 -115 l11 -51 99 0 98 0 -1 -57 c-1 -85 -10 -106 -47 -119 -18 -5
-40 -17 -48 -26 -20 -19 -11 -54 16 -61 15 -4 46 34 159 193 78 109 141 201
141 204 0 3 -9 6 -20 6 -19 0 -20 7 -20 151 0 193 -9 210 -96 188 -76 -19 -84
-39 -84 -200 l0 -139 -57 0 c-32 0 -81 3 -110 6 l-51 7 131 181 c71 99 170
235 219 301 48 65 88 126 88 135 0 25 -21 40 -56 40 -25 0 -39 -7 -57 -32z"/>
<path d="M4489 8466 c-166 -44 -259 -227 -259 -506 0 -105 -1 -109 -22 -112
-20 -3 -23 -10 -26 -51 -4 -57 9 -77 49 -77 17 0 29 -5 29 -12 0 -28 64 -145
98 -181 33 -35 80 -67 97 -67 8 0 0 195 -10 233 -6 23 -4 27 12 27 15 0 22 11
31 48 6 26 14 55 17 65 6 15 1 17 -45 17 l-52 0 4 173 c4 139 9 184 26 238 70
216 212 126 240 -151 7 -68 9 -75 27 -70 11 3 53 5 93 5 l73 0 -7 45 c-28 202
-113 338 -235 374 -62 19 -78 19 -140 2z"/>
<path d="M2148 8330 c-29 -18 -21 -38 25 -67 76 -49 87 -62 87 -110 0 -23 -9
-66 -19 -94 -22 -57 -18 -81 13 -77 19 3 66 81 135 225 17 36 4 51 -76 89 -81
39 -138 51 -165 34z"/>
<path d="M2453 8238 c-5 -7 -19 -40 -32 -73 -13 -33 -30 -73 -37 -90 -7 -16
-33 -79 -59 -140 -26 -60 -59 -137 -74 -170 -15 -33 -31 -73 -35 -90 -12 -48
-24 -57 -51 -39 -20 13 -24 13 -39 -1 -21 -21 -20 -40 3 -73 39 -57 81 -126
81 -133 0 -11 35 -20 52 -14 20 8 38 49 38 88 0 18 6 52 15 77 8 25 37 124 66
220 28 96 55 184 59 195 5 11 23 66 41 122 26 84 30 105 19 118 -15 18 -34 19
-47 3z"/>
<path d="M4723 7960 c-29 -17 -33 -25 -33 -65 0 -37 -3 -45 -19 -45 -14 0 -21
-12 -30 -57 -14 -73 -15 -73 10 -73 19 0 21 -4 14 -37 -3 -21 -15 -58 -26 -82
-20 -46 -23 -70 -13 -119 l6 -31 37 18 c61 32 122 111 156 204 16 43 20 47 51
47 19 0 34 3 34 8 -1 16 -21 98 -29 117 -5 11 -14 34 -21 52 -26 68 -85 96
-137 63z"/>
<path d="M825 7841 c-64 -28 -80 -109 -31 -160 32 -33 27 -53 -20 -90 -20 -16
-25 -26 -20 -46 11 -42 50 -30 124 39 76 70 101 182 52 231 -28 27 -74 39
-105 26z"/>
<path d="M5541 7783 c-38 -54 -40 -58 -20 -61 38 -6 90 73 70 106 -6 10 -20
-3 -50 -45z"/>
<path d="M5379 7558 l-66 -93 81 -6 c91 -6 125 -1 140 24 16 25 -4 50 -47 61
-35 9 -36 11 -39 58 l-3 49 -66 -93z"/>
<path d="M2780 7273 c-20 -8 -30 -24 -30 -50 0 -30 -55 -55 -237 -109 -24 -7
-14 -44 15 -55 55 -21 89 -21 146 0 52 19 56 19 56 3 0 -9 -9 -32 -21 -51 -11
-19 -29 -55 -39 -80 -10 -25 -19 -40 -19 -34 -1 19 -70 92 -102 109 -59 30
-101 4 -62 -39 11 -12 37 -54 58 -93 l37 -71 -58 -88 c-95 -143 -104 -155
-113 -155 -5 0 -3 17 4 38 8 21 15 65 17 97 3 59 2 60 -24 63 -23 3 -28 -1
-34 -25 -3 -15 -10 -41 -14 -58 -5 -16 -12 -50 -15 -75 -4 -25 -15 -67 -25
-95 -10 -27 -41 -134 -70 -237 -50 -177 -53 -186 -72 -175 -16 10 -22 9 -33
-7 -17 -22 -9 -45 41 -128 39 -64 67 -80 94 -52 16 18 44 142 70 319 27 184
43 255 56 255 8 0 59 44 113 98 68 66 101 92 104 82 2 -8 25 -23 51 -33 50
-20 43 -21 331 48 64 16 69 35 19 86 -43 44 -54 46 -109 20 -22 -10 -56 -24
-75 -31 -48 -17 -214 -60 -217 -56 -2 2 3 9 12 16 8 7 15 17 15 22 0 6 17 32
38 58 38 50 48 65 119 190 23 41 43 68 43 59 0 -9 35 -63 78 -120 87 -117 84
-112 187 -267 41 -62 82 -115 90 -118 8 -3 43 3 77 15 34 12 72 21 85 21 28 0
45 29 32 53 -6 9 -21 17 -34 17 -28 0 -155 56 -155 68 0 5 -21 30 -47 55 l-47
47 34 35 c19 19 54 45 78 56 48 24 61 44 44 68 -7 9 -17 27 -22 41 -13 31 -38
50 -56 43 -7 -2 -22 -24 -33 -47 -12 -23 -37 -57 -56 -76 l-35 -34 -25 24
c-14 13 -25 29 -25 36 0 17 85 101 121 120 16 8 29 21 29 28 0 25 -51 124 -67
130 -22 9 -53 -22 -53 -51 0 -14 -21 -57 -46 -96 l-46 -71 -27 32 c-15 19 -35
32 -49 32 -20 0 -22 2 -11 23 7 12 19 27 27 33 22 16 6 53 -45 102 -46 43 -48
44 -73 35z"/>
<path d="M2173 7154 c-4 -10 16 -35 63 -78 l69 -63 -22 -52 c-21 -51 -21 -81
0 -81 5 0 43 33 83 73 121 118 104 147 -122 206 -55 15 -64 14 -71 -5z"/>
<path d="M1294 7017 c-12 -6 -32 -20 -45 -29 -40 -28 -151 -51 -404 -82 -77
-10 -162 -21 -190 -26 -81 -15 -297 -40 -340 -40 -44 0 -85 -22 -85 -46 0 -9
27 -28 63 -45 l64 -29 69 16 c38 8 83 18 99 21 296 51 267 54 285 -30 17 -82
14 -95 -22 -102 -357 -59 -336 -59 -379 5 -24 34 -41 50 -56 50 -27 0 -27 3
-9 -69 41 -159 44 -507 5 -597 -26 -62 -24 -92 11 -147 16 -26 30 -52 30 -57
0 -5 10 -16 22 -24 51 -36 79 25 71 158 -6 90 1 104 36 72 9 -8 28 -17 42 -21
21 -5 40 6 123 77 154 130 140 128 133 23 -3 -50 -13 -109 -22 -132 l-18 -42
30 -47 c40 -65 57 -75 85 -46 22 21 23 33 29 203 3 99 9 182 11 185 5 5 162
-147 200 -195 20 -23 26 -25 48 -11 11 7 14 25 12 72 -1 35 -5 70 -7 78 -3 8
-44 38 -91 65 -82 48 -85 51 -64 65 11 8 37 27 56 42 20 15 53 30 73 34 73 13
75 37 14 137 -42 70 -62 71 -81 5 -8 -30 -31 -67 -67 -107 -30 -34 -55 -66
-55 -70 0 -15 -33 -22 -42 -9 -9 14 -8 201 1 216 3 6 40 15 81 21 106 16 289
41 300 41 13 0 13 -173 0 -225 -6 -22 -17 -103 -25 -180 -9 -77 -21 -165 -28
-195 -15 -64 -22 -66 -121 -31 -33 12 -65 21 -73 21 -31 0 -7 -38 77 -121 79
-77 95 -89 125 -89 41 0 60 23 81 102 18 69 70 409 89 595 5 42 15 72 31 94
13 18 24 38 24 45 0 17 -88 106 -123 123 -25 13 -31 13 -65 -6 -52 -29 -90
-40 -217 -63 -152 -27 -155 -27 -155 13 0 17 3 55 6 83 6 50 8 52 43 58 65 10
375 39 404 38 35 -2 77 14 77 29 0 14 -120 139 -134 139 -6 0 -21 -6 -32 -13z
m-474 -581 c0 -52 4 -106 10 -120 12 -32 4 -56 -19 -56 -9 0 -34 -12 -56 -27
-55 -38 -270 -145 -272 -135 -1 4 -4 89 -6 189 -4 159 -3 182 11 188 17 6 73
-42 102 -89 20 -31 15 -60 -23 -124 -21 -36 -17 -62 10 -62 26 0 173 150 173
177 0 24 -17 39 -100 86 l-55 31 45 8 c25 5 72 13 105 17 33 5 63 9 68 10 4 0
7 -41 7 -93z"/>
<path d="M2090 6835 c-16 -20 -6 -43 24 -54 13 -6 43 -28 66 -50 34 -32 41
-45 36 -63 -4 -13 -13 -54 -21 -93 -7 -38 -17 -80 -21 -93 -7 -25 11 -53 31
-46 13 5 55 109 55 137 0 9 16 46 35 81 19 36 35 75 35 86 0 32 -42 64 -107
82 -93 26 -120 29 -133 13z"/>
<path d="M3006 6611 c-10 -11 -32 -25 -49 -32 -18 -6 -45 -18 -62 -24 -41 -17
-176 -55 -196 -55 -8 0 -25 14 -37 30 -24 31 -47 39 -55 18 -2 -7 2 -38 10
-68 14 -55 26 -280 14 -280 -3 0 -15 7 -25 15 -23 17 -76 20 -76 4 0 -14 32
-69 41 -69 9 0 83 -98 108 -143 l19 -34 -121 -12 c-66 -6 -126 -16 -134 -22
-20 -17 0 -44 51 -70 44 -22 45 -22 148 -5 57 9 141 21 188 27 47 6 110 15
140 20 80 13 214 30 300 37 71 7 75 8 78 32 2 18 -9 37 -39 68 -46 47 -43 46
-72 30 -30 -16 -145 -47 -179 -48 l-26 0 18 49 c10 28 28 65 41 83 32 45 35
124 6 155 -19 21 -19 26 -7 98 7 41 17 75 21 75 5 0 13 9 18 19 9 15 3 28 -30
70 -44 55 -66 62 -93 32z m-26 -210 c-5 -35 -11 -65 -14 -68 -5 -6 -125 -37
-177 -47 l-36 -6 -15 59 -15 59 66 17 c36 9 95 25 131 35 36 9 66 17 67 16 1
-1 -2 -30 -7 -65z m-4 -198 c-3 -10 -10 -54 -16 -97 -6 -44 -13 -82 -16 -85
-7 -7 -94 -30 -116 -31 -9 0 -20 10 -23 23 -4 12 -19 37 -33 56 -17 23 -25 45
-24 65 3 34 16 46 51 46 14 0 38 4 55 9 111 34 129 36 122 14z"/>
<path d="M3200 5813 c-8 -4 -28 -16 -45 -28 -32 -24 -208 -63 -380 -84 -49 -6
-126 -18 -170 -26 -119 -22 -330 -45 -412 -45 -64 0 -73 -2 -73 -18 0 -25 32
-58 80 -82 47 -24 66 -24 167 -5 145 27 258 45 281 45 25 0 27 -20 16 -116
l-6 -51 -117 -17 c-64 -10 -140 -22 -170 -27 -30 -5 -67 -9 -83 -9 -47 0 -48
-28 -3 -67 53 -46 73 -49 157 -23 66 20 191 50 194 46 3 -2 -37 -220 -41 -224
-12 -12 -373 -42 -501 -42 -15 0 -24 -33 -13 -52 4 -8 40 -29 79 -47 69 -32
72 -33 115 -19 51 17 55 15 73 -32 8 -19 22 -57 33 -85 11 -27 22 -87 26 -133
6 -77 4 -84 -17 -107 -12 -13 -20 -30 -16 -37 24 -50 86 -134 100 -136 28 -6
65 7 87 29 28 28 239 61 441 68 182 7 205 12 192 46 -4 8 -91 79 -112 90 -1 1
13 41 30 89 28 73 37 88 58 92 39 8 55 19 58 42 2 13 -4 25 -16 31 -11 6 -30
28 -43 48 -26 44 -59 83 -70 83 -4 0 -20 -11 -36 -24 -38 -32 -108 -51 -301
-81 -90 -14 -189 -32 -220 -40 -31 -8 -62 -15 -69 -15 -17 0 -76 81 -66 91 8
8 94 20 473 66 84 10 225 19 335 20 l190 1 -2 43 c-2 30 -11 53 -31 78 -33 40
-51 43 -122 16 -24 -9 -67 -19 -93 -22 -45 -6 -49 -4 -44 13 3 10 9 33 12 49
19 89 48 156 76 176 16 11 29 29 29 41 0 25 -88 138 -108 138 -8 0 -31 -17
-52 -38 -37 -38 -78 -55 -208 -82 -23 -5 -51 -14 -61 -20 -33 -17 -38 -12 -30
38 15 88 21 112 29 112 5 0 11 8 15 18 4 14 22 22 73 30 91 15 349 45 392 46
30 1 35 5 38 26 2 19 -11 39 -49 78 -28 28 -52 52 -52 51 -1 0 -9 -3 -17 -6z
m-151 -483 c-15 -68 -26 -113 -40 -162 l-13 -48 -46 0 c-25 -1 -88 -7 -140
-14 -52 -8 -96 -13 -97 -12 -1 1 2 29 7 62 5 32 13 81 17 109 9 56 -1 51 168
80 55 10 105 19 110 20 37 12 42 5 34 -35z m-43 -590 c-9 -38 -16 -83 -16 -99
0 -32 -4 -35 -80 -45 -19 -2 -78 -11 -130 -20 -52 -9 -122 -18 -155 -21 -33
-4 -67 -8 -76 -11 -13 -4 -17 10 -23 83 -3 49 -7 97 -9 107 -2 17 13 22 133
43 126 22 211 35 320 51 55 8 57 4 36 -88z"/>
<path d="M1201 5731 c-14 -25 -119 -66 -256 -100 l-109 -28 -27 36 c-28 40
-85 91 -100 91 -22 0 -20 -35 3 -79 37 -68 51 -147 53 -311 1 -80 4 -151 6
-159 3 -9 -8 -17 -28 -23 -27 -7 -35 -4 -62 23 -58 57 -68 26 -37 -116 16 -73
25 -221 17 -270 -2 -11 0 -37 4 -57 l7 -38 -48 0 c-27 0 -54 4 -61 8 -8 5 -12
34 -12 82 1 53 -5 93 -20 134 -12 33 -21 70 -21 83 0 29 30 90 65 131 16 19
23 37 19 44 -18 30 -79 98 -92 103 -16 6 -52 -21 -52 -40 0 -17 -33 -45 -54
-45 -9 0 -39 -11 -66 -25 -27 -14 -60 -25 -74 -25 -29 0 -58 -26 -54 -49 2 -9
26 -24 59 -35 l57 -19 57 31 56 31 -6 -62 c-4 -41 -1 -87 9 -135 17 -78 21
-169 8 -189 -8 -13 -147 -37 -180 -31 -51 8 -58 -52 -9 -82 44 -28 75 -34 100
-22 12 6 40 16 61 23 100 30 526 -34 765 -116 100 -34 147 -32 229 7 86 40
102 55 102 91 0 28 -2 29 -32 23 -18 -3 -57 -9 -87 -12 -47 -6 -54 -5 -48 8
19 52 71 294 91 426 11 74 18 96 35 108 37 26 28 73 -24 124 -50 49 -40 48
-139 5 l-39 -17 6 64 c28 271 31 288 52 288 8 0 19 9 25 21 10 18 5 27 -38 70
-53 53 -93 64 -111 30z m-11 -195 c0 -94 -5 -101 -45 -70 -36 27 -54 24 -97
-13 -15 -14 -21 -12 -61 21 -75 61 -85 49 -51 -58 25 -80 30 -131 15 -155 -5
-8 -6 -24 -1 -37 8 -20 5 -23 -21 -29 -17 -4 -32 -5 -33 -3 -5 5 -36 260 -36
295 0 29 4 33 48 46 26 9 67 20 92 26 25 5 70 16 100 24 92 25 90 26 90 -47z
m-14 -183 c-13 -111 -12 -109 -68 -122 -28 -6 -52 -10 -53 -9 -1 2 -5 33 -9
71 -6 65 -6 67 16 67 13 1 43 12 68 25 25 13 47 24 49 25 2 0 0 -26 -3 -57z
m159 -220 c-3 -21 -10 -74 -15 -118 -10 -95 -48 -276 -60 -289 -8 -8 -45 2
-127 35 -27 11 -35 11 -45 0 -11 -10 -5 -20 32 -49 51 -42 122 -113 118 -117
-2 -2 -30 3 -63 11 -33 7 -75 14 -94 14 -19 0 -64 9 -100 19 -36 11 -93 22
-127 26 -69 7 -89 17 -81 37 3 8 -1 86 -9 174 -7 87 -13 164 -14 171 0 13 63
37 140 52 30 6 78 15 105 20 28 6 99 18 160 26 60 9 111 18 114 21 2 2 19 4
38 4 33 0 33 -1 28 -37z"/>
<path d="M1102 5099 c-13 -20 -163 -99 -189 -99 -8 0 -27 16 -44 35 -48 54
-104 45 -65 -11 24 -34 48 -145 42 -194 -5 -37 -1 -54 22 -95 33 -61 59 -66
84 -15 20 39 37 47 181 80 108 25 116 35 71 83 -30 32 -27 67 8 104 24 26 19
47 -27 101 -31 37 -64 41 -83 11z m-12 -174 c0 -28 -5 -47 -12 -49 -7 -2 -41
-12 -75 -23 l-61 -19 -6 39 c-4 22 -4 42 -1 45 5 5 131 49 148 51 4 1 7 -19 7
-44z"/>
<path d="M300 5577 c0 -16 18 -39 55 -71 30 -26 59 -55 64 -64 8 -15 2 -47
-24 -129 -5 -17 -3 -25 10 -29 24 -10 175 146 175 181 0 27 -54 68 -107 81
-15 4 -52 18 -82 30 -69 31 -91 31 -91 1z"/>
<path d="M1288 4442 c-16 -22 -98 -58 -153 -67 -22 -4 -50 -14 -63 -21 -18
-12 -20 -18 -12 -35 20 -36 55 -41 127 -19 96 30 103 28 103 -22 l0 -41 -24
22 c-23 22 -24 22 -82 5 -33 -9 -76 -23 -96 -31 -49 -20 -50 -47 -4 -70 32
-15 39 -15 93 1 103 32 113 32 113 3 0 -29 6 -27 -174 -72 -55 -14 -103 -30
-107 -37 -15 -24 -20 18 -15 133 3 63 8 130 11 150 7 34 4 38 -36 67 -24 18
-47 32 -53 32 -5 0 -23 -11 -40 -24 -18 -13 -70 -33 -121 -45 -131 -32 -127
-30 -123 -53 2 -13 17 -26 41 -36 36 -14 43 -13 126 12 48 14 91 26 94 26 4 0
7 -14 7 -30 0 -27 -3 -30 -24 -24 -42 10 -246 -52 -246 -75 0 -12 67 -51 88
-51 9 0 50 11 91 25 78 27 94 24 85 -12 -6 -22 -97 -67 -218 -108 -47 -15 -62
-25 -64 -42 -4 -25 15 -38 70 -48 29 -6 43 -2 79 22 24 15 46 31 47 36 2 4 8
7 14 7 5 0 23 9 39 21 20 14 29 16 28 7 -1 -29 -15 -43 -43 -43 -26 0 -31 -5
-39 -35 -18 -71 -173 -277 -281 -372 l-64 -58 10 38 c6 20 16 53 23 72 7 19
23 69 35 110 12 41 30 100 40 130 19 60 16 83 -9 78 -20 -4 -138 -239 -223
-445 -27 -65 -37 -80 -48 -73 -8 6 -25 10 -37 10 -34 0 -30 -36 13 -112 46
-82 52 -88 80 -88 28 0 31 6 71 137 26 87 30 93 55 93 27 0 177 109 205 150
31 44 35 23 31 -142 -3 -114 -7 -163 -16 -166 -32 -10 14 -139 59 -162 22 -13
59 18 59 50 0 15 6 19 28 18 23 -1 244 23 339 38 18 3 87 6 155 9 141 4 158 9
158 40 0 33 -75 99 -104 90 -68 -22 -129 -35 -193 -43 l-73 -8 0 37 0 37 78
11 c42 7 106 15 142 18 78 7 94 16 79 47 -25 48 -97 84 -113 57 -3 -4 -33 -11
-67 -15 -33 -4 -72 -12 -86 -17 -30 -11 -29 -12 -36 27 l-6 30 107 17 c59 10
127 18 152 20 60 3 65 26 14 78 -36 37 -67 49 -78 30 -3 -5 -36 -14 -73 -21
-38 -7 -78 -16 -89 -21 -19 -7 -23 -4 -26 21 -4 27 -2 28 46 34 87 11 210 38
224 48 19 16 15 26 -25 63 -44 40 -55 42 -114 16 -55 -23 -119 -35 -119 -22 0
5 9 26 21 45 22 38 16 65 -19 85 -15 10 -15 11 6 17 12 4 48 19 80 35 l57 28
5 -63 c6 -69 21 -96 55 -96 41 0 45 18 46 206 1 129 5 189 15 213 21 50 17 70
-17 102 -35 33 -72 37 -91 11z m-235 -462 c-3 -8 -10 -39 -15 -69 -5 -30 -11
-58 -14 -62 -6 -10 -94 -35 -154 -44 l-45 -7 35 37 c19 20 56 50 83 67 42 28
47 35 47 69 0 64 7 72 40 46 18 -13 27 -28 23 -37z m-41 -270 c3 -17 0 -30 -6
-30 -6 -1 -47 -7 -91 -15 -108 -20 -115 -19 -115 8 0 34 11 42 60 43 25 1 65
6 90 11 25 6 48 11 51 12 4 1 9 -12 11 -29z m1 -181 c-6 -6 -37 -14 -69 -19
-32 -4 -76 -11 -96 -15 l-38 -7 0 46 c0 45 1 46 21 35 21 -11 43 -9 134 9 36
7 41 6 49 -16 5 -14 4 -28 -1 -33z m-88 -120 c93 17 95 16 95 -24 0 -39 3 -37
-117 -55 -108 -15 -103 -17 -103 39 l0 50 31 -11 c23 -8 49 -8 94 1z"/>
<path d="M270 4375 c0 -8 17 -26 38 -39 20 -13 48 -36 62 -50 l25 -27 -23 -39
c-26 -47 -29 -90 -6 -90 20 0 149 104 158 126 17 44 -17 73 -126 110 -81 28
-128 31 -128 9z"/>
<path d="M2643 4288 c2 -24 15 -94 27 -156 24 -112 24 -113 6 -202 -20 -98
-21 -94 36 -164 33 -39 65 -30 73 22 3 20 10 51 15 68 6 17 10 38 10 47 0 9 6
31 14 49 8 18 21 49 30 69 9 20 22 41 29 48 8 6 22 29 32 51 15 32 15 42 5 55
-18 22 -23 20 -82 -31 l-53 -45 -22 48 c-13 26 -23 54 -23 61 0 19 -41 106
-54 114 -6 4 -19 8 -30 8 -15 0 -17 -6 -13 -42z"/>
<path d="M240 4065 c-13 -16 -11 -21 20 -47 19 -16 47 -37 63 -46 34 -20 34
-38 1 -129 -15 -40 -24 -79 -21 -88 11 -28 35 -16 63 33 15 26 49 75 76 110
26 35 48 69 48 76 0 22 -32 43 -105 71 -95 37 -128 41 -145 20z"/>
<path d="M2992 3968 c-7 -7 -12 -16 -12 -21 0 -5 36 -50 81 -100 44 -51 90
-109 102 -131 38 -68 44 -76 65 -99 11 -12 27 -44 37 -72 9 -27 21 -55 27 -62
19 -23 45 -14 62 21 17 36 40 172 31 187 -4 5 -27 23 -53 41 -26 17 -81 61
-122 98 -86 77 -182 150 -196 150 -6 0 -15 -5 -22 -12z"/>
<path d="M2239 3958 c-1 -7 0 -51 1 -98 2 -151 -69 -442 -113 -456 -39 -12
-38 -38 5 -108 23 -38 48 -71 56 -74 23 -8 47 29 60 94 7 33 22 97 33 144 61
246 72 339 49 420 -16 58 -88 119 -91 78z"/>
<path d="M2387 3816 c-9 -22 45 -302 78 -409 36 -118 134 -284 212 -359 67
-65 175 -96 366 -105 143 -7 166 28 110 166 -14 36 -32 106 -39 155 -13 97
-31 128 -56 102 -11 -10 -17 -49 -22 -136 -4 -67 -10 -128 -13 -136 -7 -19
-104 -19 -171 1 -41 13 -69 32 -132 92 -68 65 -87 90 -124 167 -70 149 -84
185 -116 306 -17 63 -36 127 -42 143 -11 29 -42 37 -51 13z"/>
<path d="M447 3133 c-3 -10 -5 -43 -5 -73 -1 -34 -12 -85 -30 -135 -70 -191
-68 -188 -106 -160 -11 8 -32 15 -48 15 -25 0 -28 -4 -28 -30 0 -18 6 -33 15
-36 8 -4 42 -37 75 -76 l60 -69 -42 -80 c-41 -79 -53 -88 -88 -69 -15 8 -22 5
-34 -12 -23 -33 -20 -54 15 -86 27 -25 30 -32 20 -51 -9 -17 -9 -39 0 -95 9
-56 10 -83 1 -119 -18 -70 -15 -114 7 -127 34 -18 77 12 105 74 11 24 11 38 0
85 -30 118 -42 196 -34 205 15 15 42 -2 32 -20 -6 -11 -1 -37 15 -80 12 -36
26 -97 29 -137 9 -100 17 -117 53 -117 33 0 61 34 61 76 0 76 -85 274 -117
274 -7 0 -13 4 -13 8 0 4 40 19 89 33 l90 25 12 -43 c6 -24 16 -43 22 -43 5 0
33 -11 62 -25 49 -24 56 -25 120 -15 37 6 69 9 72 7 2 -3 1 -16 -2 -30 -6 -23
-13 -26 -58 -29 -45 -3 -52 -6 -55 -25 -4 -26 2 -29 115 -63 40 -12 70 -26 67
-31 -19 -31 -225 -109 -331 -126 -18 -3 -37 -11 -43 -18 -40 -48 149 -46 298
3 93 31 168 68 191 96 12 14 17 13 52 -4 21 -11 45 -20 54 -20 8 0 14 -3 14
-7 -4 -23 7 -33 69 -62 80 -36 95 -38 121 -12 17 17 18 25 9 61 -10 39 -16 44
-82 75 -39 19 -83 37 -98 40 -36 9 -35 20 5 65 19 20 46 59 61 87 l28 50 116
7 c69 4 119 12 124 18 10 17 -20 68 -51 85 -27 16 -27 17 -13 59 18 54 13 66
-39 104 l-42 30 2 123 c2 166 11 258 27 282 22 31 17 48 -24 88 -38 37 -69 46
-89 26 -12 -12 -109 -48 -130 -49 -7 0 -13 7 -13 15 0 20 -43 29 -70 15 -22
-12 -22 -16 -15 -99 4 -47 9 -141 10 -208 l2 -121 -28 -6 c-20 -4 -29 -12 -29
-24 0 -25 39 -60 73 -64 l28 -3 -31 -35 c-27 -30 -31 -32 -27 -13 4 17 -3 29
-25 44 l-30 22 5 201 c3 111 8 210 11 221 5 15 -3 32 -29 63 -38 44 -58 51
-84 28 -9 -7 -40 -21 -70 -29 -52 -15 -55 -15 -68 3 -19 27 -46 40 -62 31 -10
-7 -9 -22 5 -77 11 -47 17 -113 18 -211 1 -156 -1 -163 -56 -163 -72 0 -76
-27 -9 -69 41 -27 53 -30 75 -21 14 5 26 8 26 5 0 -7 -82 -125 -91 -131 -4 -2
-24 20 -45 48 -20 29 -51 65 -68 79 l-30 27 54 83 c30 46 62 92 72 102 23 23
23 38 -2 70 -11 14 -20 30 -20 36 0 6 -9 15 -19 20 -23 13 -27 9 -80 -94 -81
-155 -82 -157 -102 -139 -16 15 -16 19 11 84 16 38 54 117 84 175 31 58 56
109 56 114 0 4 -21 31 -46 59 -48 53 -79 66 -87 35z m833 -170 c0 -21 -2 -23
-15 -13 -10 8 -31 10 -65 5 -60 -8 -69 9 -12 24 87 22 92 22 92 -16z m-372 2
c2 -18 -3 -20 -48 -21 -58 -1 -68 17 -17 34 44 14 61 10 65 -13z m9 -125 c1
-38 -1 -40 -20 -33 -12 4 -35 7 -50 7 -41 -2 -31 27 13 39 19 5 39 13 45 18 5
5 9 9 10 9 0 0 1 -18 2 -40z m363 26 c0 -33 -12 -46 -36 -40 -13 3 -38 1 -54
-5 -29 -10 -31 -9 -28 11 2 17 14 25 48 34 61 16 70 16 70 0z m-370 -155 c0
-27 -3 -29 -42 -33 -50 -6 -44 -8 -52 18 -6 19 -1 23 41 32 26 5 49 10 51 11
1 0 2 -12 2 -28z m365 8 c9 -27 6 -29 -59 -36 -55 -6 -56 -5 -56 20 0 28 12
34 72 36 29 1 38 -3 43 -20z m44 -237 c73 -74 73 -74 -34 -91 -56 -8 -74 -8
-90 3 -21 14 -46 20 -72 17 -7 0 -13 -10 -13 -21 0 -17 -7 -20 -45 -20 -35 0
-43 3 -39 15 4 8 14 15 25 15 10 0 23 8 28 18 5 9 39 39 75 67 41 30 66 57 66
68 0 25 13 16 99 -71z m-394 28 c3 -6 1 -10 -4 -10 -7 0 -11 -29 -11 -74 0
-86 7 -81 -131 -92 l-86 -6 5 30 c3 23 16 39 56 65 29 19 70 52 92 74 38 37
61 41 79 13z m-407 -26 c13 -26 21 -49 18 -51 -7 -8 -126 -16 -126 -9 0 10 71
106 79 106 4 0 17 -21 29 -46z m601 -226 c-25 -50 -83 -128 -94 -128 -19 0
-85 29 -85 38 0 4 10 25 23 46 19 35 28 41 77 52 88 18 93 18 79 -8z"/>
<path d="M2670 2321 c-94 -50 -106 -202 -21 -274 99 -83 245 -7 245 127 0 126
-118 204 -224 147z m105 -67 c19 -8 45 -55 45 -84 0 -12 -14 -35 -30 -52 -25
-24 -36 -29 -58 -24 -62 15 -84 95 -37 141 24 25 49 31 80 19z"/>
<path d="M500 2275 c-10 -13 -10 -23 5 -55 10 -21 30 -85 45 -142 31 -120 46
-132 94 -73 25 33 27 41 21 83 -10 68 -48 135 -97 171 -48 36 -51 36 -68 16z"/>
<path d="M798 1341 c-44 -39 -46 -96 -4 -140 28 -29 28 -31 12 -55 -9 -14 -25
-30 -36 -36 -21 -11 -26 -36 -11 -59 21 -33 134 48 173 123 13 24 22 61 22 89
1 43 -3 52 -32 78 -42 38 -82 38 -124 0z"/>
</g>
</svg>
