<?xml version="1.0" standalone="no"?>
<!DOCTYPE svg PUBLIC "-//W3C//DTD SVG 20010904//EN"
 "http://www.w3.org/TR/2001/REC-SVG-20010904/DTD/svg10.dtd">
<svg version="1.0" xmlns="http://www.w3.org/2000/svg"
 width="680.000000pt" height="1417.000000pt" viewBox="0 0 680.000000 1417.000000"
 preserveAspectRatio="xMidYMid meet">

<g transform="translate(0.000000,1417.000000) scale(0.100000,-0.100000)"
fill="#ffffff" stroke="none">
<path d="M1153 13459 c-43 -25 -82 -35 -225 -59 -95 -16 -249 -38 -342 -50
-227 -28 -249 -41 -149 -87 55 -26 60 -26 148 -16 49 6 133 18 185 27 175 29
364 55 450 62 91 7 120 17 120 38 0 19 -101 116 -120 115 -8 0 -38 -14 -67
-30z"/>
<path d="M2329 13114 c-11 -14 -10 -22 10 -56 19 -33 24 -60 29 -168 l7 -128
-60 -12 c-33 -7 -77 -18 -98 -26 -20 -8 -49 -14 -63 -14 -33 0 -64 -17 -64
-35 0 -16 54 -59 87 -69 13 -4 56 3 105 18 63 20 84 23 90 13 4 -6 7 -55 6
-107 -1 -107 6 -97 -108 -175 -100 -69 -102 -70 -157 -105 -46 -29 -53 -38
-53 -65 0 -42 17 -55 82 -62 l53 -5 75 77 c119 122 110 131 110 -120 l0 -217
-32 7 c-34 8 -37 9 -110 46 -45 22 -49 22 -65 7 -14 -14 -15 -22 -5 -43 6 -14
20 -25 29 -25 10 0 29 -9 43 -20 14 -11 30 -20 36 -20 5 0 37 -27 71 -60 33
-33 66 -60 72 -60 25 0 49 41 60 101 7 38 13 173 14 334 l2 269 60 48 c32 26
62 48 66 48 10 0 18 -133 24 -400 3 -129 10 -252 15 -273 12 -40 48 -70 105
-85 17 -5 73 -5 125 -1 106 9 190 15 330 25 112 7 171 34 197 89 15 31 15 38
-5 102 -11 37 -26 103 -33 146 -12 80 -26 100 -53 78 -9 -7 -15 -46 -18 -114
-6 -114 -24 -164 -61 -171 -12 -3 -44 -10 -72 -15 -51 -11 -285 -31 -362 -31
-38 0 -42 3 -51 33 -13 42 -22 170 -14 185 4 6 34 15 67 21 33 5 103 19 155
30 52 11 131 25 175 32 116 17 152 27 159 44 9 24 -3 41 -40 61 -30 17 -34 23
-34 60 0 22 4 54 9 70 5 16 12 46 16 66 3 20 17 47 30 60 14 13 25 33 25 44 0
22 -89 114 -110 114 -6 0 -23 -13 -38 -28 -42 -44 -97 -63 -322 -112 -47 -10
-93 -21 -102 -25 -10 -4 -18 -3 -18 2 0 13 -71 83 -85 83 -6 0 -40 -18 -74
-40 -34 -22 -66 -40 -71 -40 -11 0 -14 121 -4 156 6 21 42 37 113 49 69 11 79
44 28 93 -38 37 -51 39 -95 12 -18 -11 -35 -20 -37 -20 -13 0 -4 171 11 206
l16 39 -33 27 c-18 16 -38 28 -44 28 -5 0 -21 9 -35 20 -31 24 -63 25 -81 4z
m798 -745 c-4 -62 -8 -113 -9 -114 -2 -2 -26 -7 -53 -13 -28 -6 -59 -14 -69
-18 -19 -7 -19 -3 -12 111 3 65 8 120 10 122 2 3 53 11 130 22 5 0 6 -48 3
-110z m-253 5 c8 -62 7 -147 -2 -159 -9 -13 -109 -45 -116 -37 -3 3 -6 51 -6
107 l0 102 53 15 c28 9 55 16 58 17 4 0 9 -20 13 -45z"/>
<path d="M3090 13111 c-10 -20 -80 -71 -115 -85 -58 -23 -220 -57 -223 -48 -2
6 -13 26 -25 44 -44 64 -110 38 -73 -29 48 -89 76 -228 57 -286 -14 -40 -3
-69 45 -126 41 -50 84 -34 84 32 0 19 6 26 28 30 15 3 56 12 92 21 124 31 153
37 211 43 90 9 105 46 34 80 -36 17 -36 18 -30 63 10 70 26 113 51 137 13 12
24 26 24 30 -1 17 -27 51 -61 81 -42 37 -83 42 -99 13z m-9 -226 c-1 -33 -7
-67 -11 -76 -9 -16 -130 -47 -204 -52 l-39 -2 -14 63 c-8 35 -13 66 -10 68 6
7 260 63 271 60 6 -1 9 -29 7 -61z"/>
<path d="M1328 13093 c-41 -28 -137 -52 -207 -53 -25 0 -70 -4 -100 -10 -56
-9 -111 -16 -356 -45 -71 -8 -161 -20 -200 -25 -38 -6 -102 -12 -141 -14 -82
-4 -94 -9 -94 -40 0 -17 13 -28 55 -49 66 -32 73 -33 228 -7 67 12 151 25 187
31 36 6 75 12 88 15 17 3 22 0 22 -16 0 -27 -45 -135 -107 -257 -59 -117 -77
-146 -86 -136 -4 3 -66 -2 -138 -13 -179 -25 -197 -45 -102 -113 61 -45 80
-48 122 -27 15 8 61 23 102 34 41 11 144 40 229 65 253 72 371 101 380 91 18
-20 102 -181 107 -207 6 -29 32 -50 49 -39 17 11 33 68 40 138 8 77 11 74
-164 223 -171 144 -195 160 -208 127 -5 -14 36 -75 89 -132 15 -16 23 -31 19
-35 -4 -4 -74 -19 -157 -34 -82 -14 -163 -29 -178 -32 -27 -5 -28 -3 -22 18
16 49 121 224 158 261 41 42 44 54 22 85 -15 21 -14 22 17 27 40 7 224 24 374
35 122 9 134 13 134 42 0 25 -87 119 -109 118 -9 0 -33 -12 -53 -26z"/>
<path d="M1194 12216 c-3 -8 -3 -19 0 -24 3 -5 -24 -40 -59 -78 l-63 -69 -44
24 c-163 92 -238 119 -238 87 0 -16 84 -82 157 -122 29 -16 53 -32 53 -36 0
-11 -131 -91 -215 -130 -109 -52 -110 -52 -113 -77 -3 -16 2 -21 20 -21 36 0
117 27 181 61 33 17 61 28 64 26 7 -7 -15 -80 -30 -101 -10 -13 -34 -22 -76
-28 -33 -4 -87 -12 -119 -16 l-57 -8 2 125 c3 112 6 128 25 148 l21 23 -28 40
c-44 63 -59 67 -98 26 -37 -39 -76 -60 -129 -70 -33 -6 -38 -4 -54 23 -19 32
-39 45 -55 35 -12 -7 -11 -56 1 -90 16 -40 22 -318 9 -399 -13 -89 -14 -114
-5 -145 6 -24 3 -26 -56 -43 -72 -21 -89 -32 -81 -53 7 -19 75 -54 105 -54 21
0 148 66 221 114 31 21 31 26 16 -98 l-12 -94 28 -36 c28 -37 55 -46 73 -23 6
7 12 50 14 95 l3 83 66 69 66 68 7 -63 c4 -37 2 -83 -5 -108 -9 -39 -8 -50 13
-92 30 -63 50 -75 79 -50 21 19 21 25 15 156 l-7 136 43 7 c24 4 54 10 67 13
21 5 23 3 17 -23 -3 -16 -7 -98 -8 -181 -1 -84 -5 -153 -9 -153 -5 0 -13 -9
-19 -20 -8 -16 -5 -32 16 -75 25 -54 27 -56 62 -53 l37 3 6 253 c4 146 10 257
16 263 12 12 141 32 159 25 7 -3 11 -13 9 -23 -2 -10 -12 -67 -22 -126 l-18
-109 -30 7 c-93 22 -95 -2 -10 -89 64 -65 67 -67 85 -51 11 10 18 20 17 24 0
3 4 16 10 27 7 12 22 70 33 130 33 172 39 193 61 215 19 19 19 22 5 42 -9 12
-26 37 -39 54 -29 43 -43 47 -81 24 -34 -21 -132 -51 -165 -51 -19 0 -21 6
-21 59 l0 59 68 5 c37 4 81 8 97 10 17 3 73 8 125 12 52 4 98 9 103 12 20 12
4 53 -33 87 -45 41 -46 41 -80 21 -40 -23 -50 -19 -50 20 0 43 -26 71 -106
111 -82 41 -86 53 -33 84 105 61 112 71 82 118 -10 15 -23 36 -29 47 -14 25
-52 32 -60 11z m-74 -296 c0 -4 29 -28 64 -54 75 -55 95 -76 75 -76 -8 -1 -50
-7 -94 -16 -162 -30 -172 -28 -115 26 37 34 37 40 4 79 l-26 31 23 19 c18 15
28 16 46 8 13 -6 23 -13 23 -17z m-560 -85 l0 -105 -24 11 c-17 8 -29 8 -44 0
-33 -18 -42 -13 -42 22 0 17 -4 48 -8 67 -14 62 -6 76 51 93 29 8 55 15 60 16
4 0 7 -46 7 -104z m450 -214 c0 -27 3 -56 6 -65 4 -11 -4 -16 -33 -21 -21 -3
-57 -11 -81 -17 -23 -6 -45 -8 -48 -5 -3 3 18 36 46 74 46 59 69 78 103 82 4
1 7 -21 7 -48z m-452 -63 l3 -96 -47 -16 c-26 -9 -52 -16 -58 -16 -8 0 -9 33
-6 102 l5 101 40 13 c22 6 45 11 50 10 6 -2 11 -45 13 -98z m226 73 c21 6 39
9 41 7 5 -5 -42 -76 -110 -165 l-60 -78 -3 70 c-2 39 -1 98 3 132 l6 61 43
-19 c35 -15 49 -16 80 -8z"/>
<path d="M3083 11666 c-16 -13 -37 -28 -48 -33 -50 -26 -716 -101 -723 -81
-15 37 -87 53 -99 22 -3 -9 5 -48 18 -88 24 -71 30 -154 14 -208 -6 -23 0 -38
39 -93 41 -57 50 -64 67 -55 13 8 19 21 19 45 0 24 5 35 15 35 8 0 15 -3 15
-7 0 -16 -42 -130 -54 -146 -14 -19 -99 -37 -173 -37 -90 0 -97 -30 -22 -90
57 -45 57 -45 84 -26 28 19 170 56 290 75 39 6 82 14 96 17 22 5 27 1 41 -35
21 -53 48 -54 83 -4 14 21 25 43 25 49 0 11 -98 107 -159 157 -68 54 -91 22
-37 -52 l37 -50 -43 -5 c-114 -14 -148 -16 -148 -10 0 8 55 103 73 125 6 8 20
18 30 22 9 3 17 15 17 26 0 16 10 20 68 25 37 4 92 9 122 12 54 5 55 5 74 -27
16 -27 21 -60 25 -174 9 -212 22 -224 216 -206 66 6 150 11 187 11 76 0 98 6
98 27 0 17 -69 113 -81 113 -5 0 -23 -8 -41 -19 -56 -32 -278 -55 -278 -29 0
7 -3 23 -6 35 -5 18 0 25 27 37 87 38 227 86 251 86 42 0 45 31 8 95 -17 30
-36 57 -41 60 -5 4 -33 -18 -62 -48 -28 -30 -82 -73 -119 -96 l-68 -41 0 49
c0 28 5 53 10 56 18 11 11 35 -13 44 -28 11 -51 37 -39 45 5 3 65 8 133 11 68
3 131 8 141 11 25 8 29 30 8 56 -18 24 -18 26 0 92 11 43 26 73 39 82 26 18
27 38 4 56 -18 14 -34 36 -54 75 -17 32 -35 35 -66 9z m-12 -148 c-5 -13 -11
-49 -15 -80 l-7 -58 -52 0 c-29 0 -67 -4 -85 -9 -31 -9 -32 -9 -26 17 4 15 13
37 21 50 8 13 15 37 15 53 1 28 3 29 52 30 28 0 60 4 71 9 31 13 35 12 26 -12z
m-261 -57 c0 -21 -3 -52 -6 -69 -5 -26 -11 -30 -48 -35 -23 -3 -50 -9 -59 -13
-13 -5 -17 -1 -17 18 0 14 -11 46 -24 71 l-23 47 31 1 c49 2 99 9 104 14 3 3
14 5 24 5 14 0 18 -8 18 -39z m-238 -51 c10 -30 16 -60 14 -66 -2 -6 -38 -14
-79 -18 -41 -4 -88 -11 -105 -15 -36 -11 -37 -9 -47 81 l-6 57 33 5 c54 9 101
13 137 12 32 -1 35 -4 53 -56z"/>
<path d="M2569 10918 c-18 -13 -65 -27 -135 -40 -60 -11 -116 -23 -124 -28 -9
-5 -24 0 -42 15 -38 32 -62 23 -54 -19 3 -17 9 -108 12 -203 6 -145 4 -179
-10 -222 -16 -48 -16 -54 0 -87 10 -20 24 -38 31 -41 8 -3 19 -17 24 -30 6
-18 15 -23 32 -21 20 3 22 8 23 73 1 145 0 142 37 149 17 4 61 11 97 16 36 6
78 14 94 20 16 6 31 8 33 6 2 -2 3 -36 1 -75 l-3 -72 -70 35 c-68 34 -85 36
-85 14 0 -7 41 -52 92 -101 83 -81 94 -89 117 -81 38 14 42 49 41 340 -1 228
1 262 14 267 22 8 20 46 -1 54 -10 4 -31 17 -46 30 -34 28 -44 28 -78 1z m13
-152 l3 -54 -24 19 c-30 24 -44 24 -117 0 -33 -10 -76 -21 -96 -25 -35 -6 -38
-5 -38 17 0 14 6 29 13 34 16 12 88 33 118 34 13 0 40 6 59 13 69 26 78 22 82
-38z m-2 -113 c0 -10 3 -36 7 -57 l6 -39 -40 23 -41 22 -53 -20 c-30 -11 -73
-23 -96 -27 -43 -7 -43 -7 -43 23 0 35 11 40 155 71 113 24 105 24 105 4z"/>
<path d="M1340 10895 c-40 -30 -78 -41 -204 -61 -267 -42 -430 -59 -696 -69
-177 -7 -190 -10 -190 -35 0 -11 4 -20 8 -20 4 0 32 -16 62 -36 81 -52 94 -56
143 -39 23 8 89 20 147 26 58 6 132 14 165 19 33 4 61 6 63 5 7 -6 -21 -174
-40 -240 -19 -64 -106 -254 -146 -316 -69 -107 -116 -162 -191 -222 -101 -82
-133 -105 -179 -128 -27 -13 -44 -30 -48 -45 -7 -26 10 -54 31 -54 11 0 182
101 271 161 52 35 139 120 161 157 79 133 126 217 148 265 22 50 28 57 53 57
22 0 177 31 289 57 21 5 22 3 14 -23 -5 -16 -19 -63 -31 -104 -12 -41 -28 -88
-35 -105 -35 -86 -111 -245 -132 -278 l-23 -37 -33 16 c-17 9 -41 25 -52 35
-33 30 -116 62 -128 50 -14 -14 11 -50 73 -103 28 -24 65 -67 81 -96 34 -59
54 -73 85 -62 54 21 183 287 271 560 37 114 56 150 78 150 24 0 38 37 23 63
-58 102 -97 127 -134 86 -10 -11 -27 -25 -37 -30 -32 -18 -284 -76 -292 -68
-2 3 7 38 21 79 13 41 24 80 24 86 0 7 9 16 20 19 22 7 26 35 10 65 -8 16 -5
20 23 28 17 6 86 16 152 23 66 6 129 13 140 15 11 1 52 3 92 3 61 1 74 4 83
21 14 26 -6 65 -59 113 -23 20 -42 37 -44 37 -2 0 -18 -11 -37 -25z"/>
<path d="M2765 10838 c-3 -7 3 -38 13 -68 9 -30 17 -80 16 -110 -1 -30 -3
-109 -4 -175 -4 -150 6 -188 60 -215 35 -18 60 -20 234 -20 171 0 200 2 240
20 65 27 75 53 52 138 -10 36 -20 98 -23 136 -6 78 -16 106 -38 106 -23 0 -32
-30 -34 -109 -2 -102 -17 -147 -57 -172 -29 -17 -50 -20 -177 -21 -80 0 -150
3 -156 6 -6 4 -11 36 -11 74 l0 67 53 24 c28 13 79 38 112 55 33 16 75 32 94
35 55 9 59 29 24 107 -34 77 -57 91 -74 47 -6 -15 -17 -39 -23 -52 -11 -24
-78 -78 -148 -120 l-37 -22 6 83 c3 46 9 87 14 93 18 18 10 53 -13 61 -13 3
-30 12 -38 19 -24 21 -79 29 -85 13z"/>
<path d="M2163 10203 c-24 -9 -13 -41 20 -62 17 -11 53 -42 80 -68 l47 -49
-15 -43 c-18 -53 -19 -87 -2 -94 13 -5 143 101 160 130 16 26 -12 68 -66 100
-121 70 -195 99 -224 86z"/>
<path d="M3275 10122 c-31 -27 -257 -80 -455 -107 -63 -8 -122 -17 -130 -20
-8 -2 -64 -11 -125 -20 -156 -22 -155 -22 -155 -49 0 -19 12 -31 57 -55 67
-36 75 -37 156 -12 69 22 182 43 361 67 66 9 125 18 132 21 25 9 34 -38 40
-194 9 -250 10 -824 2 -830 -5 -2 -18 7 -31 21 -22 24 -95 56 -128 56 -8 0
-34 9 -57 20 -22 11 -47 20 -55 20 -16 0 -37 -20 -37 -36 0 -11 111 -77 213
-126 20 -10 37 -25 37 -33 0 -9 21 -29 46 -45 44 -27 48 -28 75 -15 51 27 52
31 50 613 -1 351 2 492 10 492 7 0 10 15 7 39 l-3 40 57 6 c50 6 59 10 64 30
7 27 -8 59 -44 98 -25 27 -68 36 -87 19z"/>
<path d="M2127 9823 c-18 -17 -2 -48 54 -104 l61 -61 -3 -116 c-4 -101 -2
-117 12 -120 11 -2 20 8 28 30 11 28 71 152 108 219 16 31 9 43 -55 82 -89 55
-187 89 -205 70z"/>
<path d="M2490 9770 c0 -11 11 -45 25 -76 29 -65 30 -71 12 -56 -18 16 -33 3
-55 -48 -11 -25 -40 -80 -66 -123 -25 -43 -46 -80 -46 -82 0 -9 -95 -163 -116
-188 -13 -16 -24 -33 -24 -39 0 -5 -15 -34 -32 -64 -26 -44 -38 -54 -59 -54
-39 0 -57 -25 -39 -56 51 -83 98 -143 115 -148 24 -7 55 26 55 58 0 12 6 30
13 41 7 11 30 63 51 115 20 52 55 136 78 185 22 50 53 124 68 165 16 41 38 97
49 123 12 27 21 61 22 75 l0 27 11 -25 c18 -39 16 -347 -1 -387 -16 -35 -17
-33 42 -133 36 -61 68 -76 87 -41 5 11 9 56 8 101 -3 71 -1 80 15 80 31 0 302
72 314 84 17 15 -4 57 -35 71 -29 13 -28 45 2 155 19 72 26 85 47 90 44 10 34
41 -32 108 -68 67 -97 77 -122 39 -14 -21 -214 -127 -241 -127 -7 0 -19 15
-28 33 -45 92 -118 153 -118 97z m385 -262 c-4 -57 -12 -109 -17 -115 -6 -7
-26 -15 -47 -19 -20 -3 -58 -12 -84 -21 -27 -8 -50 -13 -52 -12 -1 2 -4 49 -6
104 l-4 99 30 7 c17 4 59 19 95 32 98 38 93 42 85 -75z"/>
<path d="M712 9618 c-7 -7 -12 -23 -12 -36 0 -50 -205 -237 -403 -368 -28 -18
-37 -31 -35 -47 5 -39 46 -33 122 18 51 34 71 43 77 34 8 -14 21 -108 23 -174
1 -29 10 -51 35 -82 18 -23 40 -44 48 -48 26 -9 44 15 41 54 -3 32 0 36 27 42
17 4 62 7 100 8 l70 1 -175 -95 c-96 -52 -199 -105 -227 -117 -35 -14 -53 -28
-53 -39 0 -43 65 -28 264 60 87 39 163 68 167 65 9 -5 -20 -32 -96 -90 -55
-41 -105 -70 -311 -177 -37 -19 -41 -29 -21 -45 18 -15 74 3 222 72 150 71
193 93 228 123 29 23 47 23 47 -1 0 -20 -79 -89 -120 -106 -19 -8 -37 -17 -40
-21 -7 -11 -265 -139 -278 -139 -7 0 -20 -4 -30 -9 -9 -5 -43 -16 -74 -25 -63
-18 -88 -45 -63 -66 16 -14 30 -11 155 27 147 44 253 84 303 114 26 16 51 29
55 29 4 0 24 11 44 25 58 39 71 34 63 -22 -11 -77 -25 -123 -38 -123 -6 0 -36
10 -65 22 -45 19 -55 20 -62 8 -13 -20 -2 -34 60 -77 72 -51 100 -62 127 -52
39 14 72 112 74 222 2 112 -3 114 167 -42 83 -78 159 -141 168 -141 9 0 42 6
73 14 31 8 68 17 84 20 20 5 27 12 27 30 0 22 -7 26 -69 40 -39 9 -75 16 -81
16 -19 0 -169 114 -254 192 l-78 73 91 38 c51 20 100 37 111 37 57 0 63 28 24
101 -30 54 -48 66 -66 43 -29 -35 -83 -83 -120 -105 -22 -13 -52 -33 -66 -45
l-27 -21 -43 53 -42 53 39 27 c22 14 43 34 46 44 6 20 56 29 225 39 96 5 105
8 108 26 2 13 -8 28 -27 43 l-30 22 21 62 c11 35 27 68 34 74 26 21 14 51 -38
99 l-51 49 -31 -36 c-27 -32 -39 -38 -96 -46 -36 -5 -67 -8 -69 -6 -3 3 21 30
52 62 31 32 57 63 57 69 0 14 -79 83 -95 83 -6 0 -22 -11 -34 -24 -17 -18 -41
-27 -95 -36 -39 -6 -80 -14 -91 -17 -20 -5 -19 -5 1 18 35 40 36 47 9 94 -28
46 -58 58 -83 33z m198 -224 c0 -3 -10 -22 -22 -43 -22 -38 -23 -39 -113 -51
-49 -6 -121 -16 -158 -21 -38 -5 -73 -7 -78 -3 -15 9 103 96 121 88 8 -4 22
-7 30 -7 23 1 173 33 179 38 6 7 41 6 41 -1z m225 -181 c-4 -32 -9 -60 -11
-62 -7 -8 -100 -20 -158 -20 l-59 -1 7 47 c7 55 16 62 76 64 71 2 102 7 114
19 5 5 16 10 24 10 12 0 13 -11 7 -57z m-315 -47 c0 -52 2 -51 -147 -61 l-92
-7 -12 41 c-7 23 -10 44 -7 47 3 3 50 9 104 13 170 14 154 17 154 -33z"/>
<path d="M2653 8753 c-19 -7 -16 -28 12 -82 25 -51 51 -138 43 -147 -7 -6
-163 -35 -225 -40 -47 -5 -51 -3 -46 15 7 28 -28 57 -139 114 -97 50 -140 57
-146 24 -2 -10 8 -27 24 -40 15 -12 45 -40 66 -62 44 -47 48 -74 17 -140 -34
-73 -10 -100 38 -43 29 34 60 64 87 86 13 10 22 6 57 -28 47 -45 59 -47 126
-21 26 10 72 22 101 26 l52 7 0 -35 c0 -33 -3 -36 -42 -49 -57 -18 -58 -46 -3
-72 34 -16 46 -17 88 -7 66 15 67 15 67 -19 0 -26 -5 -30 -42 -40 -22 -7 -68
-16 -100 -21 -52 -9 -61 -7 -80 11 -25 23 -54 26 -61 8 -2 -7 2 -28 9 -46 21
-53 29 -149 14 -178 -12 -21 -11 -30 9 -71 12 -25 19 -48 16 -51 -3 -3 -33 -9
-66 -13 -34 -4 -68 -14 -76 -22 -13 -13 -11 -17 15 -35 57 -41 72 -42 203 -16
67 13 124 22 126 20 11 -11 -12 -57 -31 -61 -49 -13 -137 -26 -226 -36 -179
-20 -211 -39 -138 -85 23 -15 51 -26 62 -26 31 -1 216 29 254 41 17 5 32 7 32
3 0 -17 -45 -71 -102 -125 -75 -71 -178 -125 -256 -135 -43 -5 -58 -11 -60
-25 -6 -31 17 -47 68 -47 37 0 71 12 166 60 133 67 209 126 245 194 13 25 26
46 29 46 7 0 169 -142 267 -232 80 -75 87 -77 187 -53 88 23 113 34 119 55 8
32 -15 50 -79 60 -123 20 -249 83 -354 178 l-64 59 139 7 c77 4 185 9 240 12
105 6 115 8 115 27 0 19 -110 127 -129 127 -9 0 -25 -6 -36 -14 -27 -18 -79
-33 -204 -56 -147 -28 -152 -28 -144 13 3 17 7 33 8 34 1 2 82 16 181 33 98
17 185 36 192 44 11 11 9 18 -12 42 -13 17 -40 38 -59 49 -34 18 -35 18 -63
-2 -39 -28 -219 -81 -232 -68 -3 2 -1 19 4 37 11 36 16 38 224 70 75 11 85 16
88 35 2 14 -5 27 -21 38 -23 15 -24 19 -14 51 7 22 20 39 34 45 31 11 29 28
-9 80 -50 70 -61 73 -110 29 -18 -16 -48 -33 -68 -36 -19 -3 -48 -10 -63 -16
-34 -13 -40 -8 -32 24 7 27 40 41 130 54 102 14 115 30 66 82 -20 22 -34 29
-50 25 -17 -4 -21 -1 -21 20 0 14 4 29 10 32 10 6 241 37 257 34 26 -4 33 4
33 39 0 75 -43 113 -96 85 -48 -25 -128 -53 -151 -53 -16 0 -20 5 -16 20 3 10
11 25 19 31 28 23 16 53 -36 92 -27 20 -56 37 -64 37 -23 0 -35 -30 -25 -64 5
-17 9 -54 9 -83 0 -58 9 -53 -115 -68 -27 -4 -60 -9 -72 -12 -22 -5 -22 -4
-16 75 l6 80 -71 36 c-39 20 -73 36 -74 35 -2 0 -9 -3 -15 -6z m333 -299 c-3
-9 -6 -25 -6 -37 0 -19 -10 -24 -73 -40 -97 -23 -97 -24 -97 23 0 38 1 39 38
45 20 3 55 10 77 14 62 13 68 13 61 -5z m94 -322 l0 -39 -69 -16 c-91 -22 -91
-22 -91 16 0 31 3 34 53 50 46 15 74 22 100 26 4 0 7 -16 7 -37z m-250 -50 l0
-39 -71 -13 c-61 -12 -72 -11 -80 1 -20 33 -10 48 44 63 49 14 83 22 100 25 4
0 7 -16 7 -37z m-4 -148 c-3 -9 -6 -24 -6 -34 0 -14 -11 -19 -57 -24 -32 -4
-66 -9 -75 -12 -14 -4 -18 1 -18 19 0 31 16 44 66 56 65 15 97 13 90 -5z"/>
<path d="M4489 8466 c-166 -44 -259 -227 -259 -506 0 -105 -1 -109 -22 -112
-20 -3 -23 -10 -26 -51 -4 -57 9 -77 49 -77 17 0 29 -5 29 -12 0 -28 64 -145
98 -181 33 -35 80 -67 97 -67 8 0 0 195 -10 233 -6 23 -4 27 12 27 15 0 22 11
31 48 6 26 14 55 17 65 6 15 1 17 -45 17 l-52 0 4 173 c4 139 9 184 26 238 70
216 212 126 240 -151 7 -68 9 -75 27 -70 11 3 53 5 93 5 l73 0 -7 45 c-28 202
-113 338 -235 374 -62 19 -78 19 -140 2z"/>
<path d="M5350 8474 c-115 -13 -238 -37 -275 -53 -29 -13 -47 -29 -59 -56 -23
-49 -76 -258 -76 -301 0 -44 26 -70 81 -79 57 -10 174 -50 215 -74 l33 -19 10
31 c16 45 49 76 88 83 19 4 32 11 30 17 -7 22 -125 77 -232 107 -60 18 -111
33 -112 34 -2 2 4 25 12 53 l15 50 142 11 c160 12 178 20 216 92 43 86 18 115
-88 104z"/>
<path d="M2070 8314 c0 -11 18 -32 40 -48 22 -16 54 -44 71 -63 l33 -33 -11
-67 c-7 -38 -19 -101 -29 -141 -14 -56 -15 -75 -5 -85 20 -20 43 5 61 69 15
55 56 139 108 224 35 56 30 65 -60 111 -61 30 -100 42 -145 46 -57 5 -63 4
-63 -13z"/>
<path d="M2464 8162 c-6 -4 -35 -56 -66 -117 -30 -60 -84 -166 -120 -235 -36
-69 -77 -149 -92 -179 l-27 -53 -23 21 c-32 30 -56 27 -56 -7 0 -28 84 -201
104 -214 36 -24 55 13 136 257 29 88 82 232 117 321 34 88 63 165 63 171 0 18
-25 43 -36 35z"/>
<path d="M4723 7960 c-29 -17 -33 -25 -33 -65 0 -37 -3 -45 -19 -45 -14 0 -21
-12 -30 -57 -14 -73 -15 -73 10 -73 19 0 21 -4 14 -37 -3 -21 -15 -58 -26 -82
-20 -46 -23 -70 -13 -119 l6 -31 37 18 c61 32 122 111 156 204 16 43 20 47 51
47 19 0 34 3 34 8 -1 16 -21 98 -29 117 -5 11 -14 34 -21 52 -26 68 -85 96
-137 63z"/>
<path d="M5373 7863 c-34 -5 -54 -36 -56 -94 -2 -31 -2 -32 83 -55 100 -28
110 -29 110 -9 0 10 10 15 29 15 40 0 53 20 49 77 -3 48 -3 48 -40 51 -21 2
-38 7 -38 13 0 9 -72 10 -137 2z"/>
<path d="M825 7841 c-64 -28 -80 -109 -31 -160 32 -33 27 -53 -20 -90 -20 -16
-25 -26 -20 -46 11 -42 50 -30 124 39 76 70 101 182 52 231 -28 27 -74 39
-105 26z"/>
<path d="M5045 7833 c3 -10 11 -39 17 -65 l11 -48 77 0 76 0 15 65 15 65 -109
0 c-100 0 -109 -1 -102 -17z"/>
<path d="M5236 7549 c-21 -16 -65 -39 -98 -50 -52 -20 -58 -24 -58 -50 l0 -29
85 0 c68 0 95 5 128 21 57 29 130 90 120 99 -7 7 -124 41 -134 39 -2 0 -22
-14 -43 -30z"/>
<path d="M2910 7254 c0 -14 5 -35 12 -47 7 -14 10 -65 8 -147 -2 -69 -4 -145
-4 -170 l-1 -45 -115 -17 c-63 -9 -127 -17 -142 -17 l-26 -1 4 135 c2 75 8
145 14 155 16 29 -1 53 -62 88 -29 16 -69 39 -88 50 -22 13 -40 18 -49 13 -20
-13 -16 -55 8 -88 31 -42 52 -132 59 -259 l7 -111 -105 -13 c-128 -16 -143
-17 -200 -19 -25 -1 -51 -5 -59 -10 -24 -15 -2 -49 55 -82 50 -28 60 -31 111
-24 31 4 66 10 77 15 12 4 42 10 69 14 l47 7 0 -140 0 -139 -67 -7 c-38 -3
-84 -10 -103 -15 -19 -5 -73 -12 -120 -15 -111 -8 -127 -12 -134 -31 -10 -26
9 -47 66 -76 l54 -28 80 15 c43 8 97 21 119 29 36 13 238 31 207 19 -7 -3 -24
-28 -39 -56 -38 -75 -70 -112 -153 -175 -130 -99 -187 -132 -275 -158 -20 -6
-31 -17 -33 -32 -2 -12 0 -22 5 -23 4 0 18 -2 31 -5 52 -9 184 37 292 103 58
36 114 73 125 83 27 24 104 64 135 70 16 3 26 13 28 27 4 25 -73 163 -90 163
-8 0 -8 3 -2 9 9 9 340 37 578 49 159 9 167 15 115 91 -38 57 -67 70 -113 52
-17 -7 -58 -19 -91 -27 -33 -8 -75 -19 -93 -25 -17 -6 -42 -7 -53 -4 -19 6
-21 12 -16 59 4 28 9 97 13 153 l7 102 76 6 c155 12 266 27 273 38 8 13 -5 39
-44 90 -35 43 -65 48 -116 17 -19 -12 -63 -27 -99 -34 l-65 -14 6 72 c8 93 25
176 36 176 5 0 14 9 20 20 14 27 3 46 -62 109 -41 39 -60 51 -85 51 -29 0 -33
-3 -33 -26z m-5 -525 c-7 -21 -8 -32 -20 -180 -4 -48 -11 -92 -15 -99 -4 -7
-47 -16 -96 -21 -49 -5 -99 -14 -111 -19 l-22 -9 -3 150 c-3 126 -1 150 12
154 8 2 56 9 107 15 50 6 104 15 120 20 15 4 29 9 31 9 2 1 0 -8 -3 -20z"/>
<path d="M475 7011 c-3 -5 1 -29 10 -53 46 -132 -9 -663 -86 -825 -40 -84
-107 -190 -142 -223 -30 -28 -33 -43 -14 -57 35 -29 187 133 256 272 l43 87
77 -76 c42 -42 84 -76 93 -76 24 0 38 31 38 83 l0 45 -85 41 c-46 22 -90 41
-96 41 -8 0 -10 18 -5 63 9 78 26 147 36 147 5 0 32 21 62 48 29 26 63 53 76
60 l22 12 0 -294 c0 -249 -2 -295 -15 -306 -8 -7 -15 -18 -15 -24 0 -26 79
-191 93 -194 18 -4 57 43 57 69 0 11 9 21 23 23 35 8 154 24 257 36 52 6 109
13 126 15 30 3 33 0 60 -58 36 -76 58 -84 81 -30 15 33 17 94 19 501 l2 463
22 24 c15 16 20 30 15 44 -9 29 -94 101 -118 101 -12 0 -37 -16 -57 -35 -34
-33 -41 -35 -228 -70 -106 -19 -204 -35 -217 -35 -18 0 -33 13 -57 50 -32 49
-61 64 -71 36 -3 -8 -2 -43 3 -78 5 -35 11 -91 13 -125 l3 -62 -23 34 c-36 53
-58 46 -92 -29 -39 -86 -48 -88 -39 -8 4 37 11 103 14 147 4 44 13 89 20 99
18 26 5 46 -55 90 -47 35 -93 46 -106 27z m857 -338 c2 -71 3 -130 1 -132 -2
-3 -13 6 -24 18 -12 13 -28 20 -38 18 -9 -3 -40 -12 -69 -21 l-53 -15 7 67 c3
37 11 75 16 86 8 14 5 25 -10 46 -12 15 -18 30 -15 34 4 3 27 7 52 7 25 1 60
5 76 9 17 4 35 8 41 9 8 1 13 -39 16 -126z m-292 -38 c0 -119 1 -118 -90 -130
-30 -3 -63 -9 -72 -11 -16 -5 -18 5 -18 109 0 128 -1 126 73 128 23 1 53 4 67
8 14 5 28 6 33 4 4 -2 7 -51 7 -108z m300 -384 l0 -208 -47 -6 c-45 -5 -244
-31 -325 -42 -33 -4 -37 -3 -31 12 4 10 25 41 48 68 23 28 60 82 82 122 l39
72 40 -42 c22 -23 60 -66 84 -94 24 -29 49 -53 56 -53 44 0 60 114 22 150 -21
19 -93 63 -156 94 -29 15 -36 39 -22 81 11 32 14 34 68 40 31 4 62 8 67 10 6
2 25 4 43 4 l32 1 0 -209z m-434 158 c30 -18 38 -19 70 -9 19 7 38 9 42 6 3
-4 -5 -48 -17 -99 -24 -94 -59 -176 -105 -244 l-26 -38 -1 65 c0 36 -1 127 -2
203 -1 75 0 137 2 137 2 0 19 -9 37 -21z m-16 -420 c0 -5 -4 -9 -10 -9 -5 0
-10 7 -10 16 0 8 5 12 10 9 6 -3 10 -10 10 -16z"/>
<path d="M345 6790 c-3 -5 -3 -45 0 -88 7 -89 -13 -205 -45 -257 -11 -18 -20
-37 -20 -42 0 -16 72 -103 85 -103 7 0 18 6 24 14 12 14 36 170 46 306 6 79 5
88 -17 119 -29 42 -63 67 -73 51z"/>
<path d="M2794 6285 c-8 -21 -6 -23 165 -149 68 -50 158 -128 205 -178 46 -48
91 -88 100 -88 9 0 21 12 26 26 12 31 13 134 2 152 -10 15 -112 82 -126 82 -5
0 -19 9 -30 19 -33 30 -258 141 -299 148 -29 4 -38 2 -43 -12z"/>
<path d="M2845 5819 c-4 -5 -1 -24 6 -41 9 -23 10 -38 1 -62 -6 -17 -14 -47
-17 -67 -4 -20 -32 -81 -62 -135 -31 -54 -64 -114 -74 -133 -10 -19 -29 -46
-43 -60 -13 -14 -31 -39 -39 -56 -8 -16 -48 -66 -88 -110 -41 -44 -84 -94 -97
-110 l-23 -30 4 115 c2 67 10 127 17 143 12 24 11 32 -3 57 -17 28 -16 29 18
80 19 29 47 64 62 79 16 15 42 43 60 62 17 19 41 42 52 52 12 9 21 23 21 30 0
11 -63 102 -109 157 -20 24 -21 25 -36 6 -8 -11 -15 -31 -15 -45 -1 -105 -150
-350 -341 -563 -72 -80 -86 -112 -57 -131 15 -10 28 -2 80 48 35 33 82 78 106
100 l43 40 -2 -329 c-1 -306 -3 -330 -20 -347 -21 -21 -20 -25 22 -115 31 -69
51 -82 79 -54 29 29 33 74 28 316 -4 168 -2 224 7 224 16 0 242 233 285 293
18 26 36 47 39 47 11 0 131 -125 131 -136 0 -21 62 -94 81 -94 12 0 27 16 44
50 14 27 25 55 25 63 0 19 -68 81 -125 114 -104 58 -114 67 -102 88 21 39 80
110 90 110 20 0 267 -337 267 -364 0 -4 9 -16 19 -25 16 -14 30 -17 70 -12 28
3 73 9 101 12 58 7 73 21 68 65 -3 30 -7 33 -58 46 -68 17 -116 49 -200 133
-66 66 -200 215 -213 237 -4 6 10 29 33 53 23 24 39 47 38 52 -2 5 -28 42 -58
83 -45 61 -60 75 -82 75 -15 0 -30 -5 -33 -11z"/>
<path d="M596 5734 c-20 -19 -20 -19 3 -41 10 -10 21 -34 24 -54 7 -45 13 -43
-206 -60 -149 -12 -158 -14 -155 -32 3 -18 22 -33 96 -72 18 -10 42 -8 130 11
59 13 112 24 119 24 7 0 15 -15 18 -33 4 -19 17 -47 30 -63 19 -24 27 -27 42
-18 20 12 37 77 29 115 -5 25 -3 26 55 33 105 10 129 23 109 57 -7 10 -28 13
-82 11 l-74 -3 4 39 c4 37 1 40 -45 70 -56 36 -75 39 -97 16z"/>
<path d="M997 5743 c-4 -3 -7 -25 -7 -48 0 -23 -9 -66 -19 -96 -42 -120 -64
-174 -75 -181 -16 -11 -68 -6 -91 9 -26 17 -52 17 -58 -2 -4 -8 0 -39 8 -70
13 -46 36 -264 30 -273 -3 -4 -210 -40 -213 -37 -2 2 4 26 14 55 13 39 14 54
5 63 -8 8 -16 9 -28 1 -16 -10 -31 -45 -117 -279 -20 -55 -51 -130 -68 -166
l-32 -67 -26 20 c-57 42 -82 -16 -32 -74 15 -18 40 -50 55 -70 33 -44 68 -50
84 -15 6 12 18 56 28 97 26 108 104 392 110 398 3 3 5 0 5 -7 0 -7 16 -19 36
-27 30 -12 45 -13 89 -3 29 6 59 9 66 7 9 -3 -24 -42 -93 -111 -82 -80 -108
-112 -108 -131 0 -37 18 -33 91 22 87 66 106 75 164 78 l50 2 -77 -72 c-72
-69 -125 -108 -197 -148 -21 -11 -29 -22 -25 -32 11 -28 72 -17 173 32 50 24
191 151 238 213 10 15 33 30 51 34 l32 7 -14 -34 c-32 -76 -217 -250 -319
-298 -74 -35 -81 -51 -32 -70 46 -17 196 55 275 132 64 63 148 157 174 196 16
24 38 48 48 53 10 5 18 18 18 28 0 23 18 31 46 20 20 -7 21 -12 14 -51 -9 -46
-20 -79 -49 -143 -10 -22 -26 -59 -36 -82 -10 -24 -21 -43 -25 -43 -4 0 -27 7
-51 15 -44 16 -69 14 -69 -6 0 -16 103 -115 129 -124 54 -17 87 34 161 245 26
74 56 152 66 172 l17 37 -38 55 c-39 56 -62 68 -84 42 -7 -8 -31 -17 -54 -21
-23 -4 -76 -16 -117 -27 -41 -11 -114 -24 -162 -27 l-87 -6 14 22 c8 12 15 31
15 41 0 17 10 20 78 25 42 3 140 13 217 21 77 8 174 18 215 21 41 4 79 11 83
15 16 15 -3 45 -46 73 -51 31 -64 33 -103 12 -36 -18 -94 -20 -94 -2 3 82 22
222 34 238 18 26 12 45 -27 87 -37 39 -46 39 -101 7 -39 -23 -144 -51 -154
-41 -2 3 4 18 13 34 16 26 25 30 79 36 33 4 88 10 122 14 33 4 74 5 90 1 16
-3 52 -3 79 0 63 8 68 26 23 81 -39 46 -65 50 -101 15 -17 -17 -26 -22 -29
-13 -3 9 -13 10 -44 1 -21 -6 -63 -12 -92 -12 -29 0 -59 -4 -65 -7 -7 -4 -2 4
11 18 30 34 28 59 -11 96 -31 30 -65 41 -80 25z m173 -395 l-1 -43 -14 26 c-8
15 -22 29 -30 33 -13 5 -168 -27 -247 -50 -10 -3 -18 -1 -18 3 0 10 107 40
194 54 33 5 62 11 64 14 3 3 16 5 29 5 21 0 23 -5 23 -42z m-13 -114 c-2 -2
-16 2 -31 10 -28 14 -37 13 -213 -34 -28 -7 -33 -5 -33 9 0 13 24 21 124 40
68 13 130 27 137 32 11 6 15 1 17 -22 2 -17 2 -33 -1 -35z m1 -81 c-2 -14 -22
-20 -88 -29 -47 -7 -106 -16 -132 -20 -29 -4 -48 -3 -48 3 0 9 201 59 248 62
17 1 23 -4 20 -16z"/>
<path d="M370 5401 c0 -11 23 -39 51 -63 l52 -45 -37 -57 c-20 -31 -36 -64
-36 -72 0 -12 -5 -14 -17 -9 -93 39 -114 44 -138 35 -38 -14 -31 -33 30 -85
30 -26 55 -54 55 -61 0 -8 -12 -50 -27 -94 -25 -74 -26 -82 -11 -97 25 -25 42
-11 81 69 21 40 48 92 61 115 27 48 25 78 -7 87 -20 6 -20 7 -5 16 24 15 152
148 162 170 12 27 -7 48 -79 82 -72 34 -135 38 -135 9z"/>
<path d="M3025 5045 c-22 -19 -43 -35 -48 -35 -4 0 -26 -9 -50 -19 -23 -10
-82 -29 -132 -41 -49 -11 -115 -27 -145 -35 -30 -8 -67 -14 -81 -15 -34 0 -72
-30 -64 -51 7 -19 87 -59 117 -59 22 0 42 6 265 80 67 22 124 40 126 40 12 0
-62 -204 -88 -244 l-17 -26 -47 24 c-111 58 -165 79 -180 69 -35 -22 -17 -47
80 -113 53 -36 104 -73 114 -82 9 -10 20 -18 25 -18 5 0 35 -31 66 -70 32 -38
66 -73 76 -76 33 -10 48 14 48 75 0 61 -14 83 -82 126 -16 9 -28 22 -28 29 0
10 39 80 111 198 12 20 39 55 60 77 23 24 39 51 39 65 0 29 -86 136 -109 136
-9 -1 -34 -16 -56 -35z"/>
<path d="M1181 4404 c-25 -24 -49 -44 -54 -44 -5 0 -22 -11 -38 -24 -25 -21
-187 -105 -321 -166 -63 -29 -67 -63 -8 -62 3 0 15 3 28 7 l23 7 -6 -109 c-3
-59 -12 -139 -20 -178 -7 -38 -19 -106 -25 -150 -19 -128 -74 -272 -129 -335
l-30 -35 5 235 c3 129 7 241 10 248 2 7 27 24 56 37 74 34 123 77 115 99 -8
20 -6 20 -109 -17 -38 -14 -68 -22 -68 -19 0 4 -7 37 -15 74 l-14 68 100 97
c56 54 110 101 120 105 31 12 33 35 5 82 -49 83 -63 88 -116 35 -16 -16 -37
-29 -47 -30 -66 -2 -367 -60 -375 -72 -11 -18 2 -34 54 -62 l51 -28 91 28 c50
15 111 34 135 41 25 8 51 14 58 14 8 0 -11 -33 -44 -75 -31 -41 -61 -75 -65
-75 -4 0 -19 15 -33 34 -29 38 -59 50 -75 32 -7 -9 -2 -32 15 -76 14 -35 25
-72 25 -83 0 -10 4 -26 9 -36 6 -10 13 -40 16 -67 l7 -49 -94 -39 c-51 -21
-114 -48 -141 -59 -39 -16 -47 -24 -47 -46 0 -25 5 -28 66 -42 l67 -16 51 35
c28 19 64 41 80 49 l28 15 -6 -174 c-6 -154 -20 -268 -32 -268 -3 0 -42 18
-87 40 -45 21 -86 35 -90 31 -20 -20 0 -57 48 -91 27 -19 67 -52 88 -72 26
-25 49 -38 67 -38 30 0 60 27 60 54 0 13 5 16 20 11 14 -5 32 4 61 29 86 73
172 239 203 391 23 110 58 364 52 374 -3 5 4 20 15 35 l20 26 -20 29 c-15 20
-18 32 -10 36 6 4 16 2 21 -3 16 -16 29 -275 26 -517 -1 -115 1 -216 5 -222 5
-9 2 -13 -8 -13 -9 0 -29 -6 -43 -14 -15 -7 -54 -21 -87 -31 -74 -21 -90 -32
-73 -52 36 -43 119 -56 160 -24 13 11 42 24 63 30 22 6 65 24 97 40 l56 29 7
-27 c3 -14 9 -42 13 -61 11 -52 45 -54 70 -3 27 54 37 122 18 129 -8 3 -33 34
-56 70 -29 44 -48 64 -62 64 -18 0 -19 -4 -14 -36 4 -19 10 -42 12 -49 5 -13
-33 -42 -42 -32 -7 7 -13 143 -19 413 -4 196 -2 234 10 244 18 15 17 15 38
-90 8 -41 25 -111 37 -155 13 -44 28 -105 35 -135 8 -30 28 -93 46 -140 17
-47 42 -125 55 -174 12 -48 26 -91 29 -95 4 -3 46 -8 94 -9 71 -3 89 -1 94 11
10 26 -5 57 -33 72 -24 13 -90 94 -90 112 0 3 -20 47 -44 97 -25 50 -47 105
-51 121 -4 17 -13 47 -21 67 -28 75 -93 338 -107 430 -5 35 -4 37 26 43 18 4
52 15 77 25 25 10 57 21 73 24 36 8 35 33 -4 82 -30 38 -64 63 -84 63 -5 0
-30 -20 -54 -45z m-106 -264 c6 -20 2 -19 -31 14 -38 35 -38 37 -20 51 18 14
21 13 32 -13 6 -16 15 -39 19 -52z"/>
<path d="M2485 4350 c-4 -6 -8 -27 -10 -48 -5 -54 -55 -170 -107 -249 -25 -37
-51 -79 -58 -93 -15 -30 -69 -106 -167 -237 -73 -96 -83 -119 -62 -140 15 -15
69 10 69 31 0 8 7 16 15 20 8 3 15 10 15 16 0 12 31 48 88 104 18 18 41 45 52
60 l18 29 7 -57 c4 -32 5 -188 3 -347 -4 -278 -5 -290 -26 -319 -23 -31 -29
-65 -13 -75 6 -3 24 -30 41 -60 33 -57 68 -78 94 -56 18 15 28 369 18 701 -6
195 -5 259 5 274 10 16 9 24 -4 47 -15 26 -15 30 -1 46 9 10 26 38 39 61 48
87 55 99 82 128 15 16 26 37 25 46 -4 23 -90 127 -105 128 -6 0 -15 -5 -18
-10z"/>
<path d="M3250 4196 c-43 -28 -171 -54 -495 -99 -210 -29 -230 -34 -233 -52
-2 -13 12 -35 37 -59 l40 -39 138 26 c76 14 156 28 178 29 39 3 40 2 46 -37
11 -58 29 -505 28 -671 -1 -78 2 -151 6 -164 4 -12 3 -20 -1 -18 -52 29 -246
118 -257 118 -8 0 -17 -7 -21 -15 -6 -17 -3 -20 119 -117 44 -34 105 -87 135
-116 74 -71 95 -76 117 -26 13 31 18 86 23 274 4 129 3 249 -1 265 -4 17 -6
68 -4 115 1 47 -1 136 -6 199 -7 84 -6 123 3 147 11 30 10 36 -12 59 l-23 25
30 0 c16 0 43 4 59 10 16 5 79 13 139 17 l110 8 3 36 c3 32 -2 40 -42 72 -51
43 -68 44 -116 13z"/>
<path d="M1293 3126 c-15 -26 -141 -55 -373 -86 -91 -12 -178 -25 -195 -29
-28 -6 -31 -4 -54 39 -48 92 -72 101 -102 38 -11 -24 -35 -65 -54 -93 -38 -54
-231 -255 -246 -255 -15 0 -10 -40 5 -46 27 -10 112 50 341 240 51 42 70 49
86 30 18 -22 79 -45 101 -38 21 6 24 -19 7 -63 -22 -53 -70 -158 -89 -195 -25
-47 -25 -76 -1 -102 24 -26 91 -151 91 -170 0 -21 28 -46 44 -40 11 4 56 101
56 120 0 2 -31 38 -70 80 l-70 75 34 52 c18 29 48 76 66 105 18 29 41 57 51
63 23 12 24 37 4 66 -18 26 -12 31 51 40 l47 6 -7 -44 c-3 -24 -29 -90 -56
-147 -28 -57 -50 -109 -50 -115 0 -7 15 -35 34 -63 19 -28 45 -73 58 -100 36
-74 51 -94 69 -94 21 0 33 16 48 62 11 34 10 41 -11 70 -12 18 -46 57 -74 87
l-52 54 53 76 c30 42 65 90 79 107 31 38 32 48 6 84 -24 33 -21 35 74 45 64 7
68 6 63 -11 -3 -11 -11 -39 -19 -64 -7 -25 -29 -78 -50 -119 -44 -85 -46 -101
-18 -141 11 -17 28 -43 39 -58 10 -15 29 -47 42 -71 40 -73 47 -83 59 -91 19
-12 -113 -46 -245 -64 -66 -9 -154 -23 -195 -31 -41 -8 -105 -17 -142 -21
-104 -10 -117 -48 -27 -77 47 -15 58 -14 162 3 61 11 113 17 116 14 3 -2 7
-53 9 -112 l4 -107 -29 -3 c-15 -1 -50 -6 -78 -11 -27 -5 -92 -12 -143 -16
-154 -10 -179 -32 -90 -80 49 -27 54 -28 107 -17 121 25 395 54 561 61 l175 6
3 26 c2 21 -6 35 -39 63 -47 40 -58 42 -97 22 -15 -7 -54 -16 -87 -19 -33 -3
-87 -10 -120 -16 -70 -12 -74 -9 -68 57 5 48 30 163 38 170 2 2 68 11 147 20
79 8 146 19 150 25 3 6 4 17 1 26 -6 17 -54 65 -77 78 -12 7 -11 17 5 63 29
81 26 93 -28 129 -27 17 -61 42 -78 56 l-29 24 34 48 c50 71 91 117 112 125
10 4 18 16 18 26 0 20 -39 78 -68 101 -15 12 -8 13 47 7 76 -7 94 2 80 42 -12
32 -89 92 -118 92 -11 0 -24 -6 -28 -14z"/>
<path d="M596 2868 c-2 -7 -9 -33 -16 -57 -6 -24 -29 -67 -51 -95 -95 -125
-117 -153 -169 -209 -30 -33 -74 -78 -97 -100 -31 -29 -43 -47 -43 -68 0 -50
33 -35 132 60 51 49 95 88 96 86 2 -2 3 -93 3 -202 -1 -181 -3 -200 -21 -225
-32 -44 -24 -72 38 -140 32 -35 77 -38 88 -6 3 12 3 116 0 232 -5 130 -3 246
3 300 9 80 9 92 -7 109 -16 18 -13 22 70 103 96 93 95 89 44 164 -39 60 -62
75 -70 48z"/>
<path d="M2670 2321 c-94 -50 -106 -202 -21 -274 99 -83 245 -7 245 127 0 126
-118 204 -224 147z m105 -67 c19 -8 45 -55 45 -84 0 -12 -14 -35 -30 -52 -25
-24 -36 -29 -58 -24 -62 15 -84 95 -37 141 24 25 49 31 80 19z"/>
<path d="M798 1341 c-44 -39 -46 -96 -4 -140 28 -29 28 -31 12 -55 -9 -14 -25
-30 -36 -36 -21 -11 -26 -36 -11 -59 21 -33 134 48 173 123 13 24 22 61 22 89
1 43 -3 52 -32 78 -42 38 -82 38 -124 0z"/>
</g>
</svg>
