<?xml version="1.0" standalone="no"?>
<!DOCTYPE svg PUBLIC "-//W3C//DTD SVG 20010904//EN"
 "http://www.w3.org/TR/2001/REC-SVG-20010904/DTD/svg10.dtd">
<svg version="1.0" xmlns="http://www.w3.org/2000/svg"
 width="3780.000000pt" height="2834.000000pt" viewBox="0 0 1890.000000 1417.000000"
 preserveAspectRatio="xMidYMid meet">

<g transform="translate(0.000000,1417.000000) scale(0.100000,-0.100000)"
fill="#00ff00" stroke="none">
<path d="M6945 9503 c55 -8 55 -6 55 -268 0 -262 0 -260 -55 -268 -16 -2 49
-4 145 -4 96 0 162 2 145 4 -53 7 -55 16 -55 274 0 255 0 254 55 262 17 2 -49
4 -145 4 -96 0 -161 -2 -145 -4z"/>
<path d="M7317 9503 c17 -2 43 -16 57 -30 l26 -26 0 -216 c0 -246 -1 -250 -71
-261 -31 -5 -9 -8 71 -8 79 0 103 3 76 8 -64 12 -66 19 -66 247 0 112 2 203 4
203 3 0 85 -103 182 -230 l178 -230 43 0 43 0 0 248 c0 277 1 280 66 292 27 5
6 8 -71 8 -77 0 -98 -3 -71 -8 62 -12 66 -24 66 -192 0 -81 -3 -148 -7 -147
-5 0 -68 79 -141 175 l-133 174 -142 -2 c-78 0 -128 -3 -110 -5z"/>
<path d="M8010 9503 c19 -3 41 -9 47 -15 10 -8 13 -71 13 -253 0 -265 1 -260
-60 -268 -19 -3 66 -4 190 -2 245 3 277 8 341 58 63 48 84 96 84 192 0 100
-15 143 -68 196 -50 51 -109 78 -180 85 -50 5 -51 5 -26 -10 59 -34 99 -209
79 -339 -21 -138 -52 -177 -141 -177 l-39 0 0 264 0 265 38 4 c20 2 -42 4
-138 4 -96 0 -159 -2 -140 -4z"/>
<path d="M8720 9503 c19 -3 41 -9 47 -15 10 -8 13 -71 13 -253 0 -182 -3 -245
-13 -253 -6 -6 -28 -12 -47 -15 -19 -2 99 -5 263 -5 l297 -2 0 123 -1 122 -36
-69 c-20 -37 -56 -89 -79 -114 l-42 -47 -81 -3 -81 -4 0 131 0 131 29 0 c41 0
78 -36 95 -90 13 -43 14 -39 14 95 0 134 -1 138 -14 95 -17 -54 -54 -90 -95
-90 l-29 0 0 130 0 130 58 0 c38 0 67 -6 88 -19 38 -23 94 -91 128 -155 l26
-49 0 117 0 116 -287 -2 c-159 0 -272 -3 -253 -5z"/>
<path d="M9330 9497 c29 -10 47 -33 122 -152 48 -77 88 -146 88 -152 0 -7 4
-13 8 -13 15 0 113 -177 106 -193 -3 -9 -18 -18 -32 -20 -15 -2 52 -4 148 -4
96 0 164 2 150 4 -14 3 -35 14 -47 25 -32 30 -205 315 -201 332 2 7 31 48 65
89 53 65 68 77 105 85 37 9 29 10 -57 9 -55 0 -85 -2 -67 -4 26 -3 32 -9 32
-28 0 -20 -87 -152 -95 -143 -1 1 -19 31 -39 65 -46 78 -47 100 -3 106 17 2
-47 4 -143 5 -147 1 -170 -1 -140 -11z"/>
<path d="M9464 9086 c-76 -93 -93 -106 -144 -117 -22 -4 4 -7 70 -7 58 1 89 3
70 7 -21 3 -36 13 -38 22 -2 9 24 53 58 98 33 44 58 81 56 81 -1 0 -34 -38
-72 -84z"/>
<path d="M7130 8276 c0 -14 43 -96 50 -96 10 0 21 41 14 51 -7 12 -64 51 -64
45z"/>
<path d="M7292 8220 l-27 -50 -127 0 c-79 0 -128 -4 -128 -10 0 -6 40 -10 100
-10 98 0 100 0 100 -24 0 -12 -5 -37 -11 -55 -9 -27 -16 -31 -45 -31 -19 0
-34 5 -34 10 0 6 -9 10 -20 10 -19 0 -20 -7 -20 -210 0 -203 1 -210 20 -210
13 0 20 7 20 20 0 19 7 20 105 20 98 0 105 -1 105 -20 0 -15 7 -20 25 -20 l25
0 0 210 0 210 -25 0 c-14 0 -25 -4 -25 -10 0 -6 -29 -10 -67 -10 l-66 0 21 23
c12 13 27 37 33 55 l11 32 89 0 c53 0 89 4 89 10 0 6 -32 10 -76 10 l-76 0 26
44 c29 49 31 56 16 56 -6 0 -22 -22 -38 -50z m38 -355 l0 -155 -105 0 -105 0
0 40 0 40 90 0 c73 0 90 3 90 15 0 12 -17 15 -90 15 l-90 0 0 45 0 45 90 0
c53 0 90 4 90 10 0 6 -37 10 -90 10 l-90 0 0 45 0 45 105 0 105 0 0 -155z"/>
<path d="M7650 8240 c0 -6 36 -10 89 -10 50 0 93 -5 96 -10 3 -6 3 -30 -1 -55
l-6 -45 -44 0 c-24 0 -44 5 -44 10 0 6 -11 10 -25 10 l-25 0 0 -180 0 -180 25
0 25 0 0 160 0 160 110 0 110 0 0 -153 c0 -115 -3 -158 -14 -172 -12 -17 -16
-17 -31 -5 -35 29 -45 67 -45 170 l0 100 -25 0 -25 0 0 -113 c0 -108 -1 -115
-29 -159 -16 -25 -46 -58 -67 -74 -89 -64 -63 -55 33 12 33 24 71 60 83 80
l23 35 17 -38 c24 -53 66 -101 110 -123 l38 -19 4 34 c4 33 2 36 -34 45 -51
14 -55 26 -19 56 l31 26 0 169 0 169 -25 0 c-14 0 -25 -4 -25 -10 0 -6 -26
-10 -59 -10 l-59 0 18 38 c11 20 21 45 24 55 5 14 18 17 96 17 53 0 90 4 90
10 0 6 -77 10 -210 10 -133 0 -210 -4 -210 -10z"/>
</g>
</svg>
