<?xml version="1.0" standalone="no"?>
<!DOCTYPE svg PUBLIC "-//W3C//DTD SVG 20010904//EN"
 "http://www.w3.org/TR/2001/REC-SVG-20010904/DTD/svg10.dtd">
<svg version="1.0" xmlns="http://www.w3.org/2000/svg"
 width="1890.000000pt" height="1417.000000pt" viewBox="0 0 1890.000000 1417.000000"
 preserveAspectRatio="xMidYMid meet">

<g transform="translate(0.000000,1417.000000) scale(0.100000,-0.100000)"
fill="#ffffff" stroke="none">
<path d="M10412 9505 c-142 -40 -224 -158 -209 -301 20 -197 245 -309 434
-218 94 45 163 151 163 249 0 102 -74 213 -170 254 -66 28 -152 35 -218 16z
m135 -10 c37 -26 53 -103 53 -251 0 -209 -26 -284 -100 -284 -82 0 -105 61
-104 275 0 159 10 212 47 253 24 26 72 29 104 7z"/>
<path d="M6908 9503 c12 -2 30 -16 39 -30 9 -14 56 -134 104 -267 85 -237 87
-241 114 -241 28 0 30 5 101 195 45 121 75 189 79 179 3 -9 34 -97 69 -195 62
-176 64 -179 92 -179 28 0 30 3 121 250 59 159 101 256 114 268 25 20 108 24
127 5 18 -18 17 -491 0 -506 -7 -6 -26 -12 -43 -15 -16 -2 49 -4 145 -4 96 0
162 2 145 4 -53 7 -55 16 -55 274 0 255 0 254 55 262 17 2 -89 4 -235 4 -146
0 -249 -2 -230 -6 53 -9 52 -47 -6 -203 -27 -71 -51 -128 -54 -128 -12 0 -101
269 -98 296 2 23 9 30 33 35 17 4 -44 7 -135 6 -91 0 -155 -2 -142 -4 26 -5
52 -43 71 -101 11 -34 9 -45 -28 -137 -45 -115 -32 -122 -100 60 -59 156 -59
165 -6 178 11 2 -52 5 -140 4 -88 0 -150 -2 -137 -4z"/>
<path d="M8207 9503 c17 -2 43 -16 57 -30 l26 -26 0 -216 c0 -246 -1 -250 -71
-261 -31 -5 -9 -8 71 -8 79 0 103 3 76 8 -64 12 -66 19 -66 247 0 112 2 203 4
203 3 0 85 -103 182 -230 l178 -230 43 0 43 0 0 248 c0 277 1 280 66 292 27 5
6 8 -71 8 -77 0 -98 -3 -71 -8 62 -12 66 -24 66 -192 0 -81 -3 -148 -7 -147
-5 0 -68 79 -141 175 l-133 174 -142 -2 c-78 0 -128 -3 -110 -5z"/>
<path d="M8900 9503 c19 -3 41 -9 47 -15 10 -8 13 -71 13 -253 0 -182 -3 -245
-13 -253 -6 -6 -28 -12 -47 -15 -19 -2 99 -5 263 -5 l297 -2 0 123 -1 122 -36
-69 c-20 -37 -56 -89 -79 -114 l-42 -47 -81 -3 -81 -4 0 131 0 131 29 0 c41 0
78 -36 95 -90 13 -43 14 -39 14 95 0 134 -1 138 -14 95 -17 -54 -54 -90 -95
-90 l-29 0 0 130 0 130 58 0 c38 0 67 -6 88 -19 38 -23 94 -91 128 -155 l26
-49 0 117 0 116 -287 -2 c-159 0 -272 -3 -253 -5z"/>
<path d="M9550 9503 c61 -8 60 -3 60 -268 0 -265 1 -260 -60 -268 -19 -3 78
-4 215 -3 220 1 254 3 287 19 49 25 71 61 72 118 2 88 -38 127 -143 138 l-66
7 45 8 c92 17 130 49 130 111 0 59 -16 91 -59 118 -34 21 -47 22 -276 23 -132
1 -224 0 -205 -3z m322 -14 c42 -22 61 -119 37 -188 -13 -37 -35 -51 -83 -51
l-36 0 0 125 0 125 31 0 c17 0 39 -5 51 -11z m40 -280 c24 -31 33 -92 24 -154
-10 -64 -34 -85 -96 -85 l-50 0 0 136 0 135 51 -3 c42 -2 56 -8 71 -29z"/>
<path d="M10850 9389 l0 -121 36 69 c70 131 98 163 145 163 18 0 19 -10 19
-254 0 -191 -3 -256 -13 -264 -6 -6 -28 -12 -47 -15 -19 -2 48 -4 150 -4 102
0 169 2 150 4 -19 3 -41 9 -47 15 -10 8 -13 73 -13 264 l0 254 26 0 c35 0 79
-49 133 -150 23 -44 44 -80 47 -80 2 0 4 54 4 120 l0 120 -295 0 -295 0 0
-121z"/>
<path d="M11450 9389 l0 -121 36 69 c70 131 98 163 145 163 18 0 19 -10 19
-254 0 -191 -3 -256 -13 -264 -6 -6 -28 -12 -47 -15 -19 -2 48 -4 150 -4 102
0 169 2 150 4 -19 3 -41 9 -47 15 -10 8 -13 73 -13 264 l0 254 26 0 c35 0 79
-49 133 -150 23 -44 44 -80 47 -80 2 0 4 54 4 120 l0 120 -295 0 -295 0 0
-121z"/>
<path d="M12100 9503 c19 -3 41 -9 47 -15 19 -15 19 -493 1 -505 -7 -4 -31
-10 -53 -14 -22 -4 94 -7 258 -8 l297 -1 0 138 0 137 -39 -68 c-78 -140 -143
-197 -223 -197 l-48 0 0 254 c0 191 3 256 13 264 6 6 28 12 47 15 19 2 -48 4
-150 4 -102 0 -169 -2 -150 -4z"/>
<path d="M12710 9503 c19 -3 41 -9 47 -15 10 -8 13 -71 13 -253 0 -182 -3
-245 -13 -253 -6 -6 -28 -12 -47 -15 -19 -2 99 -5 263 -5 l297 -2 0 123 -1
122 -36 -69 c-20 -37 -56 -89 -79 -114 l-42 -47 -81 -3 -81 -4 0 131 0 131 29
0 c41 0 78 -36 95 -90 13 -43 14 -39 14 95 0 134 -1 138 -14 95 -17 -54 -54
-90 -95 -90 l-29 0 0 130 0 130 58 0 c38 0 67 -6 88 -19 38 -23 94 -91 128
-155 l26 -49 0 117 0 116 -287 -2 c-159 0 -272 -3 -253 -5z"/>
<path d="M7857 8273 c-4 -3 -7 -19 -7 -35 l0 -28 -85 0 c-50 0 -85 -4 -85 -10
0 -6 34 -10 81 -10 l80 0 -3 -27 c-3 -27 -6 -28 -65 -31 -80 -4 -83 -22 -4
-22 l59 0 -7 -27 c-7 -27 -10 -28 -79 -31 -90 -4 -95 -22 -7 -22 36 0 65 -4
65 -9 0 -13 -94 -154 -113 -170 -9 -7 -17 -18 -17 -24 0 -6 10 -2 23 9 18 16
32 20 75 16 28 -2 52 -8 52 -13 0 -22 -36 -76 -83 -126 -27 -29 -45 -53 -39
-53 16 0 122 100 144 135 l18 30 0 -92 c0 -92 0 -93 25 -93 l25 0 0 103 0 104
58 2 c31 1 64 4 73 6 9 3 22 -1 29 -10 15 -19 31 -20 24 -2 -3 8 0 25 5 39 9
24 6 27 -32 44 -42 19 -107 76 -107 94 0 6 32 10 70 10 40 0 70 4 70 10 0 6
-47 10 -121 10 -121 0 -121 0 -115 23 3 12 6 25 6 30 0 4 43 7 95 7 57 0 95 4
95 10 0 6 -37 10 -90 10 -49 0 -90 2 -90 4 0 3 4 16 10 30 9 25 12 26 105 26
57 0 95 4 95 10 0 6 -38 10 -94 10 l-95 0 6 35 c5 32 4 35 -19 35 -14 0 -28
-3 -31 -7z m106 -284 l16 -41 -24 16 c-21 14 -28 14 -82 -5 -80 -27 -88 -23
-55 28 26 41 29 43 78 43 50 0 51 0 67 -41z m47 -81 c16 -18 30 -36 30 -40 0
-5 -29 -8 -65 -8 l-65 0 0 40 c0 39 1 40 35 40 27 0 42 -8 65 -32z m-150 -13
l0 -35 -65 0 c-36 0 -65 4 -65 9 0 4 9 20 21 35 17 21 29 26 65 26 44 0 44 0
44 -35z"/>
<path d="M7060 8225 c0 -13 26 -15 175 -15 149 0 175 2 175 15 0 13 -26 15
-175 15 -149 0 -175 -2 -175 -15z"/>
<path d="M7080 7990 c0 -6 57 -10 150 -10 93 0 150 4 150 10 0 6 -57 10 -150
10 -93 0 -150 -4 -150 -10z"/>
<path d="M7940 7822 c0 -31 31 -81 75 -120 48 -42 70 -53 62 -29 -2 6 0 22 4
35 7 17 5 22 -9 22 -27 0 -91 43 -112 76 -11 16 -20 23 -20 16z"/>
<path d="M7020 7685 c0 -13 31 -15 215 -15 184 0 215 2 215 15 0 13 -31 15
-215 15 -184 0 -215 -2 -215 -15z"/>
</g>
</svg>
