<?xml version="1.0" standalone="no"?>
<!DOCTYPE svg PUBLIC "-//W3C//DTD SVG 20010904//EN"
 "http://www.w3.org/TR/2001/REC-SVG-20010904/DTD/svg10.dtd">
<svg version="1.0" xmlns="http://www.w3.org/2000/svg"
 width="1890.000000pt" height="1417.000000pt" viewBox="0 0 1890.000000 1417.000000"
 preserveAspectRatio="xMidYMid meet">

<g transform="translate(0.000000,1417.000000) scale(0.100000,-0.100000)"
fill="#ffffff" stroke="none">
<path d="M12663 9513 c9 -2 25 -2 35 0 9 3 1 5 -18 5 -19 0 -27 -2 -17 -5z"/>
<path d="M12876 9490 c-8 -41 -28 -46 -73 -20 l-37 21 38 -42 c21 -23 49 -65
62 -93 l23 -51 0 108 c1 59 -1 107 -3 107 -2 0 -6 -14 -10 -30z"/>
<path d="M6945 9503 c55 -8 55 -6 55 -268 0 -262 0 -260 -55 -268 -16 -2 49
-4 145 -4 96 0 162 2 145 4 -53 7 -55 16 -55 274 0 255 0 254 55 262 17 2 -49
4 -145 4 -96 0 -161 -2 -145 -4z"/>
<path d="M7317 9503 c17 -2 43 -16 57 -30 l26 -26 0 -216 c0 -246 -1 -250 -71
-261 -31 -5 -9 -8 71 -8 79 0 103 3 76 8 -64 12 -66 19 -66 247 0 112 2 203 4
203 3 0 85 -103 182 -230 l178 -230 43 0 43 0 0 248 c0 277 1 280 66 292 27 5
6 8 -71 8 -77 0 -98 -3 -71 -8 62 -12 66 -24 66 -192 0 -81 -3 -148 -7 -147
-5 0 -68 79 -141 175 l-133 174 -142 -2 c-78 0 -128 -3 -110 -5z"/>
<path d="M8015 9503 c55 -8 55 -6 55 -268 0 -262 0 -260 -55 -268 -16 -2 47
-4 140 -4 94 0 159 2 145 4 -46 9 -50 19 -50 127 0 68 4 107 13 115 10 11 10
13 0 7 -10 -6 -13 23 -13 127 0 143 3 151 50 160 14 2 -51 4 -145 4 -93 0
-156 -2 -140 -4z"/>
<path d="M8425 9501 c54 -11 44 -38 -60 -160 l-97 -113 71 -107 c81 -122 87
-148 39 -154 -18 -2 50 -4 152 -4 115 -1 172 2 150 7 -19 5 -43 20 -55 36 -39
54 -225 349 -225 357 0 5 26 36 58 69 45 46 68 62 98 68 28 6 12 8 -61 8 -55
0 -86 -3 -70 -7z"/>
<path d="M9025 9328 c-32 -101 -60 -187 -62 -193 -2 -6 26 -9 75 -7 l78 3 17
-54 c23 -73 22 -96 -5 -101 -13 -3 -32 -7 -43 -9 -11 -3 108 -5 265 -5 157 0
267 4 246 8 -64 12 -66 19 -66 247 0 112 2 203 4 203 3 0 85 -103 182 -230
l178 -230 43 0 43 0 0 248 c0 277 1 280 66 292 27 5 6 8 -71 8 -77 0 -98 -3
-71 -8 62 -12 66 -24 66 -192 0 -81 -3 -148 -7 -147 -5 0 -68 79 -141 175
l-133 174 -142 -2 c-78 0 -128 -3 -110 -5 17 -2 43 -16 57 -30 l26 -26 0 -218
c0 -206 -1 -220 -20 -239 -28 -28 -113 -28 -138 0 -9 11 -58 132 -108 268
l-91 247 -40 3 -39 3 -59 -183z m53 -98 l31 -90 -65 0 c-35 0 -64 3 -64 7 0
18 55 173 61 173 4 0 21 -40 37 -90z"/>
<path d="M10130 9503 c19 -3 41 -9 47 -15 10 -8 13 -71 13 -253 0 -265 1 -260
-60 -268 -19 -3 66 -4 190 -2 245 3 277 8 341 58 63 48 84 96 84 192 0 100
-15 143 -68 196 -50 51 -109 78 -180 85 -50 5 -51 5 -26 -10 59 -34 99 -209
79 -339 -21 -138 -52 -177 -141 -177 l-39 0 0 264 0 265 38 4 c20 2 -42 4
-138 4 -96 0 -159 -2 -140 -4z"/>
<path d="M10998 9503 c12 -2 30 -16 39 -30 9 -14 56 -134 104 -267 85 -237 87
-241 114 -241 28 0 30 5 101 195 45 121 75 189 79 179 3 -9 34 -97 69 -195 62
-176 64 -179 92 -179 28 0 30 3 121 250 51 137 99 256 107 263 8 8 29 18 47
22 24 6 4 8 -66 8 -58 -1 -85 -3 -65 -7 53 -9 52 -47 -6 -203 -27 -71 -51
-128 -54 -128 -12 0 -101 269 -98 296 2 23 9 30 33 35 17 4 -44 7 -135 6 -91
0 -155 -2 -142 -4 26 -5 52 -43 71 -101 11 -34 9 -45 -28 -137 -45 -115 -32
-122 -100 60 -59 156 -59 165 -6 178 11 2 -52 5 -140 4 -88 0 -150 -2 -137 -4z"/>
<path d="M12045 9328 c-32 -101 -60 -187 -62 -193 -2 -6 26 -9 75 -7 l78 3 17
-54 c23 -73 22 -96 -5 -101 -13 -3 -32 -7 -43 -9 -11 -3 61 -5 160 -5 121 0
170 3 149 9 -17 5 -36 19 -43 32 -7 13 -52 131 -100 263 l-88 239 -40 3 -39 3
-59 -183z m53 -98 l31 -90 -65 0 c-35 0 -64 3 -64 7 0 18 55 173 61 173 4 0
21 -40 37 -90z"/>
<path d="M12569 9481 c-27 -16 -52 -43 -62 -64 -19 -39 -22 -112 -7 -151 14
-37 77 -79 183 -121 50 -20 102 -46 115 -58 29 -27 29 -73 0 -104 -31 -33 -3
-30 54 6 54 35 78 74 78 130 0 103 -52 154 -225 221 -108 42 -141 95 -90 145
33 34 9 31 -46 -4z"/>
<path d="M13015 9503 c55 -8 55 -6 55 -268 0 -262 0 -260 -55 -268 -16 -2 47
-4 140 -4 94 0 159 2 145 4 -47 9 -50 18 -50 144 l0 119 91 0 91 0 -4 -119
c-1 -66 -6 -123 -10 -126 -4 -4 -22 -11 -40 -15 -20 -5 34 -8 137 -8 106 0
157 3 136 8 -18 4 -37 14 -42 22 -5 7 -9 117 -9 243 0 127 4 236 9 243 5 8 24
18 42 22 21 5 -30 8 -136 8 -103 0 -157 -3 -137 -8 18 -4 36 -11 40 -15 4 -4
9 -60 11 -126 l3 -119 -91 0 -91 0 0 119 c0 126 3 135 50 144 14 2 -51 4 -145
4 -93 0 -156 -2 -140 -4z"/>
<path d="M12482 9085 c0 -83 3 -127 7 -109 16 63 30 67 100 29 25 -14 36 -18
23 -9 -35 26 -80 96 -107 166 l-24 63 1 -140z"/>
<path d="M8936 9061 c-25 -70 -38 -83 -87 -91 -31 -5 -12 -7 66 -7 61 0 95 2
76 6 -48 9 -58 30 -43 87 17 63 10 65 -12 5z"/>
<path d="M11956 9061 c-25 -70 -38 -83 -87 -91 -31 -5 -12 -7 66 -7 61 0 95 2
76 6 -48 9 -58 30 -43 87 17 63 10 65 -12 5z"/>
<path d="M12718 8953 c12 -2 30 -2 40 0 9 3 -1 5 -23 4 -22 0 -30 -2 -17 -4z"/>
<path d="M7112 8203 c-8 -49 -25 -104 -46 -148 l-34 -70 39 45 c21 25 49 64
61 88 l23 42 113 0 112 0 -2 -232 -3 -232 -34 -23 -34 -23 31 0 c18 0 43 10
61 26 l31 26 0 254 0 254 -25 0 c-16 0 -25 -6 -25 -15 0 -12 -19 -15 -110 -15
l-110 0 5 25 c3 14 7 36 10 50 5 22 2 25 -23 25 -28 0 -29 -2 -40 -77z"/>
<path d="M7740 8160 l0 -120 25 0 c18 0 25 5 25 20 0 19 7 20 95 20 88 0 95
-1 95 -20 0 -15 7 -20 25 -20 l25 0 0 120 0 120 -25 0 c-16 0 -25 -6 -25 -15
0 -12 -17 -15 -95 -15 -78 0 -95 3 -95 15 0 9 -9 15 -25 15 l-25 0 0 -120z
m240 5 l0 -65 -95 0 -95 0 0 65 0 65 95 0 95 0 0 -65z"/>
<path d="M7176 8063 c-3 -21 -6 -50 -6 -65 0 -40 -39 -138 -66 -165 -13 -13
-24 -35 -24 -50 0 -22 3 -24 28 -18 43 10 110 46 134 72 l22 24 -44 -20 c-25
-11 -61 -21 -80 -21 l-34 0 36 38 c46 46 74 109 83 185 6 56 6 57 -18 57 -20
0 -25 -6 -31 -37z"/>
<path d="M7261 7954 c-1 -61 22 -143 49 -176 l19 -23 1 23 c0 13 4 32 10 42 7
13 5 21 -6 31 -19 16 -44 62 -60 114 l-13 40 0 -51z"/>
<path d="M7700 7990 c0 -6 31 -10 74 -10 41 0 77 -4 80 -8 3 -5 3 -25 -1 -45
l-6 -37 -93 0 c-56 0 -94 -4 -94 -10 0 -6 39 -10 96 -10 94 0 95 0 89 -22 -13
-42 -67 -118 -114 -159 -59 -53 -34 -40 46 23 34 27 75 69 91 94 l30 45 25
-53 c30 -68 64 -107 115 -136 l40 -22 4 40 c3 30 0 40 -11 40 -33 0 -105 45
-132 83 -46 63 -42 67 61 67 53 0 90 4 90 10 0 6 -38 10 -95 10 -103 0 -101
-1 -89 59 l7 31 73 0 c43 0 74 4 74 10 0 6 -67 10 -180 10 -113 0 -180 -4
-180 -10z"/>
</g>
</svg>
