<?xml version="1.0" standalone="no"?>
<!DOCTYPE svg PUBLIC "-//W3C//DTD SVG 20010904//EN"
 "http://www.w3.org/TR/2001/REC-SVG-20010904/DTD/svg10.dtd">
<svg version="1.0" xmlns="http://www.w3.org/2000/svg"
 width="890.000000pt" height="667.000000pt" viewBox="0 0 890.000000 667.000000"
 preserveAspectRatio="xMidYMid meet">

<g transform="translate(0.000000,667.000000) scale(0.100000,-0.100000)"
fill="#00ff00" stroke="none">
<path d="M3894 4466 c-47 -21 -74 -61 -74 -113 0 -80 48 -133 120 -133 l31 0
-27 24 c-24 20 -28 32 -32 90 -5 75 9 118 41 134 22 11 22 11 -3 11 -14 0 -39
-6 -56 -13z"/>
<path d="M3343 4436 c-9 -29 -6 -46 18 -116 16 -45 27 -86 23 -91 -3 -5 19 -9
50 -9 51 0 55 2 46 18 -6 9 -28 64 -49 122 -29 80 -43 106 -58 108 -14 2 -22
-6 -30 -32z"/>
<path d="M3558 4345 l-3 -125 42 0 42 0 3 125 3 125 -42 0 -42 0 -3 -125z"/>
<path d="M4128 4345 l-3 -125 45 0 45 0 0 125 0 125 -42 0 -42 0 -3 -125z"/>
<path d="M4295 4345 l0 -125 45 0 45 0 -3 125 -3 125 -42 0 -42 0 0 -125z"/>
<path d="M4485 4345 l0 -125 37 0 36 0 4 63 c1 34 2 90 0 125 l-3 62 -37 0
-37 0 0 -125z"/>
<path d="M4657 4448 c11 -13 27 -34 36 -48 l17 -24 0 47 0 47 -37 0 -36 0 20
-22z"/>
<path d="M4820 4383 c20 -49 43 -105 51 -126 7 -20 17 -36 22 -34 14 4 48 100
38 107 -5 3 -21 35 -36 73 l-27 67 -43 0 -43 0 38 -87z"/>
<path d="M4985 4345 l0 -125 40 0 40 0 0 125 0 125 -40 0 -40 0 0 -125z"/>
<path d="M5176 4403 c42 -63 45 -72 42 -126 l-3 -57 45 0 45 0 -3 65 c-3 55
-9 75 -38 118 -19 28 -34 55 -34 59 0 5 -22 8 -49 8 l-50 0 45 -67z"/>
<path d="M5350 4459 c0 -5 5 -7 10 -4 6 3 10 8 10 11 0 2 -4 4 -10 4 -5 0 -10
-5 -10 -11z"/>
<path d="M4034 4420 c11 -19 21 -37 23 -39 2 -2 3 13 3 35 0 34 -3 39 -23 39
l-23 0 20 -35z"/>
<path d="M4610 4362 c-13 -15 -13 -19 3 -34 16 -17 17 -16 17 17 0 40 0 39
-20 17z"/>
<path d="M3775 4319 c-4 -12 -23 -39 -42 -60 l-35 -39 46 0 46 0 0 60 c0 63
-4 74 -15 39z"/>
<path d="M4680 4266 c-11 -19 -26 -37 -33 -40 -7 -2 5 -5 26 -5 37 -1 37 -1
37 39 0 22 -2 40 -4 40 -2 0 -14 -15 -26 -34z"/>
<path d="M3265 4230 c-3 -5 1 -10 10 -10 9 0 13 5 10 10 -3 6 -8 10 -10 10 -2
0 -7 -4 -10 -10z"/>
<path d="M3480 3751 c0 -94 4 -151 10 -151 6 0 10 55 10 144 0 86 -4 147 -10
151 -6 4 -10 -47 -10 -144z"/>
<path d="M3340 3764 c0 -81 4 -123 10 -119 6 4 10 57 10 126 0 73 -4 119 -10
119 -6 0 -10 -49 -10 -126z"/>
<path d="M3620 3851 c0 -22 4 -42 9 -46 6 -3 6 -18 0 -38 -11 -40 -11 -40 1
-32 6 4 10 -7 10 -25 0 -20 4 -30 12 -28 16 6 17 59 1 65 -10 4 -10 10 -2 25
8 15 8 22 0 28 -7 4 -11 11 -10 16 1 5 1 24 0 42 -2 46 -21 40 -21 -7z"/>
<path d="M3779 3885 c-5 -29 0 -70 9 -73 8 -2 12 10 12 37 0 23 -4 41 -10 41
-5 0 -10 -2 -11 -5z"/>
<path d="M3410 3755 c0 -77 4 -125 10 -125 6 0 10 48 10 125 0 77 -4 125 -10
125 -6 0 -10 -48 -10 -125z"/>
<path d="M3675 3850 c0 -16 5 -30 11 -30 6 0 9 13 6 30 -2 17 -7 30 -11 30 -3
0 -6 -13 -6 -30z"/>
<path d="M3725 3850 c0 -16 5 -30 11 -30 6 0 9 13 6 30 -2 17 -7 30 -11 30 -3
0 -6 -13 -6 -30z"/>
<path d="M3780 3700 c0 -62 -4 -90 -12 -90 -6 0 -8 -3 -5 -6 4 -4 13 -1 22 6
11 9 15 33 15 96 0 49 -4 84 -10 84 -6 0 -10 -37 -10 -90z"/>
<path d="M3689 3748 c-1 -7 -1 -34 0 -60 1 -47 1 -48 -29 -48 -16 0 -30 -4
-30 -10 0 -5 6 -8 13 -6 6 3 24 7 40 10 26 6 27 9 27 66 0 33 -4 60 -10 60 -5
0 -11 -6 -11 -12z"/>
<path d="M3739 3748 c-5 -16 -3 -61 3 -64 4 -3 8 11 8 30 0 20 -2 36 -5 36 -3
0 -5 -1 -6 -2z"/>
<path d="M3740 3641 c0 -5 5 -13 10 -16 6 -3 10 -2 10 4 0 5 -4 13 -10 16 -5
3 -10 2 -10 -4z"/>
</g>
</svg>