<?xml version="1.0" standalone="no"?>
<!DOCTYPE svg PUBLIC "-//W3C//DTD SVG 20010904//EN"
 "http://www.w3.org/TR/2001/REC-SVG-20010904/DTD/svg10.dtd">
<svg version="1.0" xmlns="http://www.w3.org/2000/svg"
 width="1890.000000pt" height="1417.000000pt" viewBox="0 0 1890.000000 1417.000000"
 preserveAspectRatio="xMidYMid meet">

<g transform="translate(0.000000,1417.000000) scale(0.100000,-0.100000)"
fill="#ffffff" stroke="none">
<path d="M6934 9500 c65 -12 66 -18 66 -265 0 -250 -3 -261 -68 -268 -20 -2
13 -4 73 -4 61 0 94 2 75 4 -69 9 -70 12 -70 247 0 117 4 206 9 201 4 -6 48
-110 96 -232 76 -190 92 -223 109 -223 18 0 31 30 100 238 44 130 83 240 86
245 4 4 4 -95 2 -220 -2 -126 -9 -233 -14 -240 -5 -6 -22 -14 -36 -16 -15 -2
95 -4 243 -4 149 0 257 2 240 4 -57 9 -63 27 -40 123 3 14 -6 -2 -20 -35 -14
-33 -33 -66 -42 -72 -21 -16 -125 -17 -141 -1 -18 18 -17 491 1 506 6 6 28 12
47 15 19 2 -26 4 -100 3 l-135 -1 -55 -157 c-30 -87 -57 -158 -61 -158 -3 0
-33 71 -66 158 l-61 157 -139 2 c-88 0 -124 -2 -99 -7z"/>
<path d="M7875 9328 c-32 -101 -60 -187 -62 -193 -2 -6 26 -9 75 -7 l78 3 17
-54 c23 -73 22 -96 -5 -101 -13 -3 -32 -7 -43 -9 -11 -3 144 -5 345 -5 201 0
349 3 330 7 -60 12 -60 12 -60 142 l0 119 28 0 c45 0 54 -14 69 -101 8 -46 22
-97 31 -114 40 -69 148 -83 214 -27 l31 27 -24 5 c-18 4 -30 21 -49 68 -31 77
-53 99 -121 122 l-54 17 54 8 c143 20 173 184 46 253 -25 14 -69 17 -265 18
-129 1 -219 0 -200 -3 19 -2 41 -11 48 -20 17 -23 17 -484 0 -501 -7 -7 -38
-12 -70 -12 -46 0 -62 4 -76 20 -9 11 -58 132 -108 268 l-91 247 -40 3 -39 3
-59 -183z m755 162 c28 -15 53 -92 47 -146 -7 -66 -34 -98 -85 -102 l-42 -3 0
130 0 131 31 0 c17 0 39 -4 49 -10z m-702 -260 l31 -90 -65 0 c-35 0 -64 3
-64 7 0 18 55 173 61 173 4 0 21 -40 37 -90z"/>
<path d="M8950 9389 l0 -121 36 69 c70 131 98 163 145 163 18 0 19 -10 19
-254 0 -191 -3 -256 -13 -264 -6 -6 -28 -12 -47 -15 -19 -2 48 -4 150 -4 102
0 169 2 150 4 -19 3 -41 9 -47 15 -10 8 -13 73 -13 264 l0 254 26 0 c35 0 79
-49 133 -150 23 -44 44 -80 47 -80 2 0 4 54 4 120 l0 120 -295 0 -295 0 0
-121z"/>
<path d="M9595 9503 c55 -8 55 -6 55 -268 0 -262 0 -260 -55 -268 -16 -2 94
-4 245 -4 151 0 262 2 245 4 -57 9 -63 27 -40 123 3 14 -6 -2 -20 -35 -14 -33
-33 -66 -42 -72 -9 -7 -43 -13 -75 -13 -46 0 -59 4 -68 19 -15 30 -14 486 3
499 6 6 26 12 42 15 17 2 -49 4 -145 4 -96 0 -161 -2 -145 -4z"/>
<path d="M10115 9328 c-32 -101 -60 -187 -62 -193 -2 -6 26 -9 75 -7 l78 3 17
-54 c23 -73 22 -96 -5 -101 -13 -3 -32 -7 -43 -9 -11 -3 61 -5 160 -5 121 0
170 3 149 9 -17 5 -36 19 -43 32 -7 13 -52 131 -100 263 l-88 239 -40 3 -39 3
-59 -183z m53 -98 l31 -90 -65 0 c-35 0 -64 3 -64 7 0 18 55 173 61 173 4 0
21 -40 37 -90z"/>
<path d="M10560 9503 c19 -3 41 -9 47 -15 19 -15 19 -493 1 -505 -7 -4 -31
-10 -53 -14 -22 -4 94 -7 258 -8 l297 -1 0 138 0 137 -39 -68 c-78 -140 -143
-197 -223 -197 l-48 0 0 254 c0 191 3 256 13 264 6 6 28 12 47 15 19 2 -48 4
-150 4 -102 0 -169 -2 -150 -4z"/>
<path d="M11485 9328 c-32 -101 -60 -187 -62 -193 -2 -6 26 -9 75 -7 l78 3 17
-54 c23 -73 22 -96 -5 -101 -13 -3 -32 -7 -43 -9 -11 -3 144 -5 345 -5 201 0
349 3 330 7 -60 12 -60 12 -60 142 l0 119 28 0 c45 0 54 -14 69 -101 8 -46 22
-97 31 -114 40 -69 148 -83 214 -27 l31 27 -24 5 c-18 4 -30 21 -49 68 -31 77
-53 99 -121 122 l-54 17 54 8 c143 20 173 184 46 253 -25 14 -69 17 -265 18
-129 1 -219 0 -200 -3 19 -2 41 -11 48 -20 17 -23 17 -484 0 -501 -7 -7 -38
-12 -70 -12 -46 0 -62 4 -76 20 -9 11 -58 132 -108 268 l-91 247 -40 3 -39 3
-59 -183z m755 162 c28 -15 53 -92 47 -146 -7 -66 -34 -98 -85 -102 l-42 -3 0
130 0 131 31 0 c17 0 39 -4 49 -10z m-702 -260 l31 -90 -65 0 c-35 0 -64 3
-64 7 0 18 55 173 61 173 4 0 21 -40 37 -90z"/>
<path d="M12560 9389 l0 -121 36 69 c70 131 98 163 145 163 18 0 19 -10 19
-254 0 -191 -3 -256 -13 -264 -6 -6 -28 -12 -47 -15 -19 -2 48 -4 150 -4 102
0 169 2 150 4 -19 3 -41 9 -47 15 -10 8 -13 73 -13 264 l0 254 26 0 c35 0 79
-49 133 -150 23 -44 44 -80 47 -80 2 0 4 54 4 120 l0 120 -295 0 -295 0 0
-121z"/>
<path d="M8932 9090 c0 -14 2 -19 5 -12 2 6 2 18 0 25 -3 6 -5 1 -5 -13z"/>
<path d="M11396 9061 c-25 -70 -38 -83 -87 -91 -31 -5 -12 -7 66 -7 61 0 95 2
76 6 -48 9 -58 30 -43 87 17 63 10 65 -12 5z"/>
<path d="M12542 9090 c0 -14 2 -19 5 -12 2 6 2 18 0 25 -3 6 -5 1 -5 -13z"/>
<path d="M7780 8263 c0 -5 7 -31 16 -58 16 -44 18 -47 30 -30 8 11 14 26 13
34 0 17 -59 69 -59 54z"/>
<path d="M8040 8250 c0 -18 -7 -20 -85 -20 -109 0 -112 -18 -2 -22 l82 -3 3
-249 c2 -182 -1 -252 -10 -263 -6 -8 -28 -23 -47 -33 l-36 -19 44 4 c25 2 56
13 70 23 l26 19 3 292 2 291 -25 0 c-18 0 -25 -5 -25 -20z"/>
<path d="M7020 8230 c0 -5 39 -11 88 -12 l87 -3 3 -92 3 -93 -81 0 c-64 0 -80
-3 -80 -15 0 -12 16 -15 80 -15 l81 0 -3 -147 -3 -148 -97 -3 c-54 -1 -98 -7
-98 -12 0 -6 84 -10 215 -10 137 0 215 4 215 10 0 6 -38 10 -95 10 l-95 0 0
150 0 150 85 0 c69 0 85 3 85 15 0 12 -16 15 -85 15 l-86 0 3 93 3 92 93 3
c50 1 92 7 92 12 0 6 -80 10 -205 10 -124 0 -205 -4 -205 -10z"/>
<path d="M7700 7935 l0 -285 25 0 25 0 0 285 0 285 -25 0 -25 0 0 -285z"/>
<path d="M7314 7867 c14 -37 32 -77 39 -88 14 -20 15 -20 21 3 12 46 5 65 -40
108 l-45 45 25 -68z"/>
</g>
</svg>
