<?xml version="1.0" standalone="no"?>
<!DOCTYPE svg PUBLIC "-//W3C//DTD SVG 20010904//EN"
 "http://www.w3.org/TR/2001/REC-SVG-20010904/DTD/svg10.dtd">
<svg version="1.0" xmlns="http://www.w3.org/2000/svg"
 width="1890.000000pt" height="1417.000000pt" viewBox="0 0 1890.000000 1417.000000"
 preserveAspectRatio="xMidYMid meet">

<g transform="translate(0.000000,1417.000000) scale(0.100000,-0.100000)"
fill="#ffffff" stroke="none">
<path d="M9387 9510 c-161 -41 -249 -193 -203 -353 23 -78 70 -136 140 -172
79 -40 186 -42 260 -6 48 24 106 95 106 130 0 9 -9 -2 -19 -24 -10 -22 -34
-55 -55 -73 -31 -27 -45 -32 -86 -32 -61 0 -98 29 -131 102 -20 45 -24 69 -24
163 0 94 4 118 24 162 27 61 56 83 108 83 68 0 110 -41 149 -147 15 -40 28
-73 30 -73 2 0 4 57 3 128 0 112 -2 123 -12 92 -7 -19 -19 -36 -28 -38 -9 -2
-39 11 -66 28 -56 35 -131 46 -196 30z"/>
<path d="M6940 9503 c61 -8 60 -3 60 -268 0 -182 -3 -245 -13 -253 -6 -6 -28
-12 -47 -15 -19 -2 48 -4 150 -4 102 0 169 2 150 4 -56 7 -60 15 -60 128 l0
102 103 5 c158 8 201 40 202 149 0 66 -20 101 -76 134 -31 18 -53 20 -269 21
-129 1 -219 0 -200 -3z m330 -13 c54 -29 53 -241 0 -270 -10 -6 -35 -10 -54
-10 l-36 0 0 145 0 145 36 0 c19 0 44 -5 54 -10z"/>
<path d="M7665 9328 c-32 -101 -60 -187 -62 -193 -2 -6 26 -9 75 -7 l78 3 17
-54 c23 -73 22 -96 -5 -101 -13 -3 -32 -7 -43 -9 -11 -3 111 -5 270 -5 160 0
272 4 251 8 -64 12 -66 19 -66 247 0 112 2 203 4 203 3 0 85 -103 182 -230
l178 -230 43 0 43 0 0 248 c0 277 1 280 66 292 27 5 6 8 -71 8 -77 0 -98 -3
-71 -8 62 -12 66 -24 66 -192 0 -81 -3 -148 -7 -147 -5 0 -68 79 -141 175
l-133 174 -142 -2 c-78 0 -128 -3 -110 -5 17 -2 43 -16 57 -30 l26 -26 0 -218
c0 -206 -1 -220 -20 -239 -29 -29 -123 -28 -148 0 -9 11 -58 132 -108 268
l-91 247 -40 3 -39 3 -59 -183z m53 -98 l31 -90 -65 0 c-35 0 -64 3 -64 7 0
18 55 173 61 173 4 0 21 -40 37 -90z"/>
<path d="M8785 9503 c55 -8 55 -6 55 -268 0 -262 0 -260 -55 -268 -16 -2 49
-4 145 -4 96 0 162 2 145 4 -53 7 -55 16 -55 274 0 255 0 254 55 262 17 2 -49
4 -145 4 -96 0 -161 -2 -145 -4z"/>
<path d="M9778 9500 c18 -4 36 -11 40 -15 4 -3 9 -100 12 -215 l5 -209 30 -32
c17 -17 48 -40 70 -50 56 -25 159 -34 214 -19 50 13 111 67 111 97 -1 12 -8 5
-21 -19 -24 -46 -64 -68 -124 -68 -61 0 -100 36 -110 101 -9 58 -2 405 8 415
4 4 26 11 50 15 23 3 -37 7 -138 7 -107 0 -167 -3 -147 -8z"/>
<path d="M10199 9500 c67 -11 71 -20 73 -209 l2 -166 6 173 c6 202 6 202 102
202 98 0 98 1 98 -263 0 -252 -3 -263 -68 -270 -20 -2 13 -4 73 -4 61 0 94 2
75 4 -69 9 -70 12 -70 247 0 117 4 206 9 201 4 -6 48 -110 96 -232 76 -190 92
-223 109 -223 18 0 31 30 100 238 44 130 83 240 86 245 4 4 4 -95 2 -220 -2
-126 -9 -233 -14 -240 -5 -6 -22 -14 -36 -16 -15 -2 50 -4 143 -4 94 0 157 2
140 4 -16 3 -36 9 -42 15 -19 15 -18 491 0 506 6 6 28 12 47 15 19 2 -26 4
-100 3 l-135 -1 -55 -157 c-30 -87 -57 -158 -61 -158 -3 0 -33 71 -66 158
l-61 157 -249 1 c-136 1 -228 -2 -204 -6z"/>
<path d="M10262 9100 c0 -14 2 -19 5 -12 2 6 2 18 0 25 -3 6 -5 1 -5 -13z"/>
<path d="M7576 9061 c-25 -70 -38 -83 -87 -91 -31 -5 -12 -7 66 -7 61 0 95 2
76 6 -48 9 -58 30 -43 87 17 63 10 65 -12 5z"/>
<path d="M7830 8247 c0 -57 -55 -152 -105 -184 -31 -19 -44 -35 -45 -50 0 -14
6 -23 15 -23 37 0 174 34 231 57 l62 24 42 -45 c46 -49 61 -57 53 -27 -3 10 0
28 6 39 9 17 8 22 -7 26 -26 9 -78 65 -102 111 l-21 40 7 -50 c12 -91 13 -88
-35 -102 -25 -7 -81 -15 -125 -18 -80 -6 -81 -6 -56 12 86 62 134 123 145 186
l7 37 -36 0 c-34 0 -36 -2 -36 -33z"/>
<path d="M7114 8248 c9 -38 26 -82 30 -77 25 29 24 47 -6 75 l-31 29 7 -27z"/>
<path d="M7390 8250 c0 -6 -38 -10 -95 -10 -123 0 -125 -18 -2 -22 l92 -3 3
-245 c1 -135 0 -255 -3 -268 -3 -12 -17 -28 -31 -34 -18 -8 -21 -14 -12 -20
16 -9 47 -1 71 20 15 14 17 41 17 304 0 281 0 288 -20 288 -11 0 -20 -4 -20
-10z"/>
<path d="M7030 7940 l0 -290 25 0 25 0 0 290 0 290 -25 0 -25 0 0 -290z"/>
<path d="M7210 8130 c0 -43 -3 -50 -20 -50 -11 0 -20 5 -20 10 0 6 -9 10 -20
10 -19 0 -20 -7 -20 -115 0 -108 1 -115 20 -115 13 0 20 7 20 20 0 13 7 20 20
20 18 0 20 -7 20 -69 0 -78 -11 -89 -70 -76 -27 6 -30 4 -30 -19 0 -16 6 -26
15 -26 41 0 119 25 144 46 35 29 41 30 41 6 0 -10 6 -26 13 -37 13 -17 15 -16
25 13 7 21 7 34 1 38 -6 3 -19 20 -30 38 -19 31 -19 31 -19 6 0 -28 -16 -50
-37 -50 -9 0 -13 18 -13 65 0 59 2 65 20 65 11 0 23 -7 26 -15 4 -8 12 -15 20
-15 11 0 14 23 14 110 0 91 -3 110 -15 110 -8 0 -15 -4 -15 -10 0 -5 -11 -10
-25 -10 -23 0 -25 3 -25 50 0 43 -3 50 -20 50 -17 0 -20 -7 -20 -50z m0 -140
c0 -53 -2 -60 -20 -60 -18 0 -20 7 -20 60 0 53 2 60 20 60 18 0 20 -7 20 -60z
m90 0 c0 -57 -1 -60 -25 -60 -24 0 -25 3 -25 60 0 57 1 60 25 60 24 0 25 -3
25 -60z"/>
<path d="M7730 7800 l0 -150 25 0 c16 0 25 6 25 15 0 12 18 15 105 15 98 0
105 -1 105 -20 0 -13 7 -20 20 -20 19 0 20 7 20 155 0 148 -1 155 -20 155 -11
0 -20 -7 -20 -15 0 -12 -18 -15 -105 -15 -87 0 -105 3 -105 15 0 9 -9 15 -25
15 l-25 0 0 -150z m258 3 l3 -93 -106 0 -105 0 0 95 0 96 103 -3 102 -3 3 -92z"/>
</g>
</svg>
