<?xml version="1.0" standalone="no"?>
<!DOCTYPE svg PUBLIC "-//W3C//DTD SVG 20010904//EN"
 "http://www.w3.org/TR/2001/REC-SVG-20010904/DTD/svg10.dtd">
<svg version="1.0" xmlns="http://www.w3.org/2000/svg"
 width="400.000000pt" height="400.000000pt" viewBox="0 0 400.000000 400.000000"
 preserveAspectRatio="xMidYMid meet">

<g transform="translate(0.000000,400.000000) scale(0.100000,-0.100000)"
fill="#ffffff" stroke="none">
<path d="M1778 3749 c-264 -36 -522 -131 -736 -272 -406 -266 -673 -662 -773
-1147 -35 -168 -35 -492 0 -660 100 -485 367 -881 773 -1147 184 -121 395
-206 628 -254 100 -21 143 -24 330 -24 187 0 230 3 330 24 485 100 881 367
1147 773 121 184 206 395 254 628 21 100 24 143 24 330 0 187 -3 230 -24 330
-147 715 -670 1244 -1380 1396 -96 21 -150 26 -311 29 -107 2 -225 0 -262 -6z
m350 -1319 c408 -233 742 -426 742 -430 0 -4 -334 -197 -742 -430 -409 -233
-753 -430 -765 -438 l-23 -14 0 882 0 882 23 -14 c12 -8 356 -205 765 -438z"/>
</g>
</svg>
